<svg xmlns="http://www.w3.org/2000/svg" width="1024" height="1024" viewBox="0 0 1024 1024" version="1.1"><path d="M 536 40.677 C 516.212 41.783, 497.203 43.058, 495.500 43.394 C 494.400 43.611, 489.900 44.313, 485.500 44.954 C 468.295 47.461, 438.813 53.639, 430.500 56.480 C 428.300 57.231, 420.650 59.705, 413.500 61.977 C 406.350 64.248, 398.475 66.929, 396 67.934 C 393.525 68.939, 387.675 71.246, 383 73.061 C 378.325 74.876, 367.525 79.925, 359 84.282 C 301.699 113.561, 266.116 142.590, 219.775 197.864 C 215.236 203.277, 204.579 217.448, 202.500 220.834 C 198.539 227.286, 191.614 235.473, 186.814 239.378 C 183.687 241.923, 179.862 245.785, 178.314 247.961 C 176.767 250.137, 172.852 255.649, 169.615 260.209 C 166.378 264.769, 161.264 273.225, 158.252 279 C 155.240 284.775, 152.419 289.950, 151.984 290.500 C 148.561 294.826, 134.165 327.003, 127.824 344.500 C 120.290 365.290, 106 418.637, 106 425.971 C 106 427.550, 104.899 435.342, 103.553 443.287 C 99.985 464.349, 99.020 478.227, 99.022 508.500 C 99.023 536.668, 100.586 557.253, 104.999 587.225 C 109.236 615.997, 118.486 654.014, 126.477 675.500 C 127.909 679.350, 129.679 684.300, 130.410 686.500 C 131.931 691.074, 142.268 714.321, 147.087 724 C 153.209 736.298, 163.260 753.528, 172.621 767.770 C 177.779 775.619, 182 782.319, 182 782.659 C 182 782.998, 183.688 785.169, 185.750 787.482 C 187.813 789.795, 192.423 795.470, 195.995 800.094 C 211.818 820.574, 236.363 846.076, 257 863.477 C 263.325 868.810, 269.490 874.012, 270.699 875.036 C 278.484 881.629, 292.248 891.790, 301.125 897.499 C 306.831 901.169, 312.639 904.973, 314.031 905.954 C 315.423 906.934, 318.348 908.713, 320.531 909.907 C 322.714 911.101, 327.200 913.633, 330.500 915.535 C 376.154 941.839, 438.492 961.438, 491 965.994 C 532.347 969.582, 539.035 969.581, 577 965.971 C 600.582 963.729, 615.483 961.337, 636 956.501 C 660.583 950.706, 663.044 949.959, 685.500 941.466 C 689.350 940.010, 693.625 938.465, 695 938.032 C 696.375 937.599, 699.975 936.124, 703 934.755 C 706.025 933.386, 710.750 931.430, 713.500 930.409 C 716.250 929.388, 720.300 927.564, 722.500 926.355 C 724.700 925.147, 729.689 922.605, 733.586 920.706 C 758.897 908.377, 790.502 887.033, 816 865.049 C 820.125 861.492, 824.108 858.114, 824.851 857.541 C 828.769 854.522, 854.689 828.328, 861.088 820.921 C 867.969 812.957, 871.360 808.781, 882.882 794.088 C 894.925 778.729, 912.999 748.767, 922.845 727.837 C 929.720 713.221, 930.536 711.352, 933.466 703.500 C 938.978 688.730, 940.863 683.192, 943.506 674 C 945.009 668.775, 946.828 662.475, 947.549 660 C 948.270 657.525, 949.136 653.925, 949.474 652 C 949.812 650.075, 950.749 645.575, 951.555 642 C 955.806 623.161, 958.393 593.206, 957.550 572.596 L 956.940 557.693 952.511 551.357 C 946.185 542.308, 945.831 541.463, 944.903 533.189 C 944.444 529.089, 943.454 524.810, 942.704 523.681 C 941.676 522.133, 941.562 520.411, 942.239 516.683 C 943.260 511.068, 942.161 508.791, 939.497 511.003 C 938.623 511.727, 934.580 516.411, 930.510 521.410 C 921.889 532.003, 904.711 549.016, 894.033 557.540 C 871.303 575.682, 848.517 591.424, 837.212 596.795 C 833.204 598.700, 830.085 600.419, 830.282 600.616 C 830.740 601.073, 851.681 599.184, 859.305 597.997 C 867.795 596.676, 877.897 592.312, 882.728 587.879 C 888.109 582.941, 889.344 582.914, 888.595 587.750 C 888.276 589.813, 887.550 595.423, 886.983 600.217 C 886.416 605.011, 885.552 610.861, 885.063 613.217 C 882.087 627.562, 880.577 633.466, 877.826 641.500 C 876.132 646.450, 874.390 651.850, 873.957 653.500 C 869.363 670.981, 849.324 712.093, 837.645 728 L 834.340 732.500 827.043 732.796 C 819.047 733.121, 819.062 733.112, 812.763 742 C 811.010 744.475, 808.384 747.850, 806.929 749.500 C 805.474 751.150, 801.094 756.157, 797.195 760.628 C 793.296 765.098, 787.494 770.931, 784.303 773.591 C 781.111 776.251, 775.575 781.183, 772 784.553 C 768.425 787.922, 763.625 791.858, 761.334 793.299 C 759.043 794.740, 756.873 796.396, 756.513 796.978 C 756.153 797.561, 753.528 799.218, 750.679 800.661 C 747.831 802.103, 744.150 804.299, 742.500 805.540 C 740.850 806.781, 735.220 810.012, 729.989 812.719 C 724.758 815.426, 719.358 818.375, 717.989 819.271 C 716.620 820.168, 709.265 823.403, 701.645 826.460 C 680.124 835.095, 675.328 837.754, 670.418 843.770 C 666.114 849.044, 665.396 851.279, 664.750 861.434 C 664.454 866.095, 665.584 865.656, 642.500 870.086 C 613.414 875.669, 608.249 876.103, 561.500 876.890 C 537.300 877.297, 516.600 878.025, 515.500 878.507 C 502.675 884.125, 496.371 891.620, 497.596 899.794 C 498.138 903.407, 499.281 905.237, 503.841 909.798 C 506.911 912.868, 508.902 915.057, 508.265 914.664 C 507.629 914.271, 499.321 913.052, 489.804 911.955 C 437.409 905.918, 399.879 895.013, 371.937 877.707 C 369.977 876.493, 365.658 873.867, 362.339 871.871 C 350.509 864.756, 328.558 847.535, 337 851.993 C 338.375 852.719, 342.223 855.026, 345.550 857.120 C 351.512 860.872, 374.875 872.394, 390.500 879.290 C 410.719 888.213, 423.045 893.375, 429.425 895.593 C 441.150 899.668, 450.372 898.420, 457.312 891.818 C 461.081 888.233, 461.239 887.835, 460.781 883.073 C 459.803 872.891, 453.952 868.512, 426.705 857.567 C 402.576 847.875, 399.513 846.464, 381.500 836.751 C 359.888 825.098, 337.810 810.108, 315.408 791.879 C 301.066 780.209, 275.143 753.277, 263.465 737.915 C 247.480 716.887, 242.516 709.979, 240.423 705.848 C 239.053 703.145, 236.434 698.586, 234.602 695.717 C 229.410 687.586, 218.476 666.314, 215.090 657.758 C 213.406 653.500, 211.577 649.225, 211.026 648.258 C 206.722 640.695, 190.820 584.121, 189.359 571.171 C 188.400 562.673, 185.855 558.690, 172.795 545.248 C 162.781 534.942, 160.304 531.750, 157.275 525.243 C 153.785 517.748, 153.667 517.115, 153.601 505.500 C 153.524 492.167, 155.163 485.114, 161.585 471.146 C 166.057 461.418, 181.596 438.787, 187.088 434 C 188.038 433.173, 189.977 427.917, 191.414 422.278 C 203.053 376.610, 218.130 335.935, 233.217 309.500 C 234.473 307.300, 235.752 305.275, 236.060 305 C 236.368 304.725, 238.187 301.350, 240.103 297.500 C 248.302 281.022, 283.605 236.299, 304.436 216 C 314.591 206.104, 313.534 207.066, 322.500 199.563 C 326.350 196.342, 330.263 192.985, 331.195 192.103 C 332.127 191.221, 334.827 189.043, 337.195 187.262 C 339.563 185.481, 345.167 181.206, 349.649 177.762 C 359.940 169.854, 370.747 162.294, 376.426 159.030 C 378.847 157.638, 385.704 153.536, 391.664 149.912 C 397.624 146.289, 407.675 140.929, 414 138 C 420.325 135.072, 425.950 132.350, 426.500 131.951 C 427.050 131.552, 430.425 130.086, 434 128.694 C 437.575 127.302, 443.425 125.025, 447 123.634 C 462.967 117.419, 473.486 114.535, 502.500 108.411 C 543.364 99.788, 590.384 97.925, 627.500 103.460 C 660.446 108.373, 679.542 113.066, 700.487 121.397 C 706.544 123.806, 712.850 126.247, 714.500 126.821 C 727.640 131.394, 749.824 142.773, 764.500 152.468 C 768.900 155.374, 777.778 161.208, 784.229 165.431 C 790.680 169.654, 798.330 175.228, 801.229 177.818 C 804.128 180.408, 809.922 185.106, 814.105 188.259 C 820.422 193.019, 822.963 194.272, 829.105 195.657 C 836.365 197.294, 836.655 197.483, 845.024 205.975 C 858.987 220.144, 874.484 241.447, 890.872 269 C 894.306 274.775, 897.535 280.175, 898.046 281 C 898.557 281.825, 899.725 283.850, 900.641 285.500 C 903.501 290.648, 912.698 303.351, 915.985 306.692 C 918.181 308.925, 920.789 310.257, 924.662 311.124 C 930.845 312.507, 932.572 311.936, 934.969 307.715 C 936.297 305.378, 936.217 304.375, 934.142 297.314 C 932.041 290.162, 928.797 281.932, 923.969 271.500 C 922.951 269.300, 921.240 265.250, 920.168 262.500 C 915.664 250.952, 897.269 220.331, 886.902 207.128 C 876.357 193.697, 863.912 179.898, 848.007 164 C 827.744 143.746, 827.530 143.563, 798.210 121.436 C 778.970 106.915, 745.941 87.847, 717.793 75.010 C 710.919 71.875, 687.403 63.471, 673 59.002 C 652.593 52.670, 639.619 49.731, 611.152 44.991 C 600.015 43.137, 553.681 39.782, 545 40.201 C 543.075 40.294, 539.025 40.508, 536 40.677 M 687.500 234.103 C 674.541 235.664, 636.388 246.384, 620.274 252.992 C 609.710 257.324, 605.463 260.665, 604.059 265.747 C 603.112 269.177, 604.725 273.370, 608.922 278.387 C 612.287 282.410, 632.872 289.940, 640.620 289.983 C 652.817 290.050, 681.026 297.391, 697.060 304.671 C 731.039 320.098, 749.721 332.436, 761 346.898 C 762.832 349.247, 764.969 350.487, 769 351.540 C 784.850 355.680, 794.893 351.445, 794.967 340.591 C 794.995 336.387, 794.426 334.921, 791 330.384 C 788.800 327.470, 787 324.758, 787 324.357 C 787 323.957, 786.135 322.700, 785.078 321.564 C 782.048 318.308, 775.732 306.561, 769.990 293.500 C 767.089 286.900, 764.384 281.050, 763.980 280.500 C 763.576 279.950, 762.909 278.375, 762.499 277 C 761.335 273.099, 756.215 262.391, 752.782 256.681 C 745.638 244.797, 732.977 236.338, 718.923 234.057 C 711.537 232.859, 697.659 232.879, 687.500 234.103 M 488.500 285.089 C 457.998 287.020, 422.297 293.632, 397 302.036 C 384.368 306.233, 361.425 315.555, 346 322.758 C 330.098 330.183, 297.586 349.707, 277 364.193 C 254.537 380, 241.064 390.882, 218.897 411.123 C 211.418 417.953, 192.500 442.785, 185.649 454.765 C 177.885 468.343, 172.026 485.439, 172.032 494.500 C 172.038 504.131, 177.777 520.597, 179.919 517.131 C 180.277 516.552, 182.242 515.379, 184.286 514.525 C 190.777 511.813, 205.875 513.362, 219.169 518.104 C 232.150 522.735, 233.909 523.606, 244.997 530.901 C 249.674 533.978, 253.950 536.682, 254.500 536.911 C 255.050 537.139, 258.425 539.629, 262 542.445 C 276.436 553.816, 286.592 559.785, 297.693 563.422 C 303.958 565.474, 308 568.467, 308 571.052 C 308 574.019, 300.620 577.315, 293.954 577.325 C 286.832 577.336, 280.597 574.504, 266.541 564.876 C 250.924 554.178, 247.882 551.988, 241.943 547.164 C 234.521 541.137, 218.719 533.565, 203.312 528.654 C 197.489 526.798, 185 526.391, 185 528.058 C 185 529.564, 189.004 536.514, 193.848 543.416 C 196.132 546.669, 198 549.685, 198 550.118 C 198 551.148, 206.703 563.584, 209.401 566.409 C 210.556 567.617, 213.750 571.426, 216.500 574.874 C 222.688 582.630, 250.342 607.771, 258.485 613.043 C 261.793 615.184, 266.975 618.786, 270 621.046 C 286.335 633.252, 322.189 650.617, 349.076 659.344 C 359.013 662.569, 386.127 668.879, 397.500 670.613 C 402.450 671.367, 415.275 672.744, 426 673.672 C 456.051 676.272, 482.011 674.361, 523 666.532 C 527.675 665.639, 532.400 664.472, 533.500 663.939 C 534.600 663.406, 536.850 662.567, 538.500 662.076 C 540.150 661.584, 544.650 659.959, 548.500 658.465 C 558.237 654.686, 563.564 654.296, 590.725 655.378 C 618.035 656.466, 638.651 655.345, 662 651.502 C 687.830 647.251, 696.650 645.102, 732 634.451 C 743.252 631.061, 764.543 622.770, 786 613.424 C 796.966 608.648, 826.142 593.456, 835.571 587.612 C 864.437 569.723, 883.202 555.418, 901.529 537.332 C 917.981 521.095, 923.516 514.862, 932.355 502.613 C 942.515 488.534, 946.510 481.919, 952.655 469 C 963.311 446.599, 969.337 417.055, 969.382 387 C 969.410 367.882, 968.129 361.324, 961.956 349 C 958.380 341.862, 955.177 338.968, 950.098 338.286 C 946.471 337.800, 946 337.969, 946 339.758 C 946 340.869, 947.766 345.355, 949.925 349.727 C 955.740 361.503, 957.438 368.055, 957.383 378.500 C 957.277 398.498, 947.338 415.466, 930.838 423.821 C 910.873 433.928, 878.268 431.346, 846.488 417.138 C 831.431 410.407, 818.463 402.857, 797.500 388.618 C 789.800 383.387, 777.200 375.161, 769.500 370.337 C 761.800 365.513, 752.659 359.638, 749.187 357.283 C 745.715 354.927, 742.627 353, 742.326 353 C 742.024 353, 737.916 350.667, 733.195 347.816 C 712.121 335.086, 671.089 316.501, 647.452 308.978 C 640.328 306.711, 631.350 303.796, 627.500 302.501 C 620.986 300.310, 612.414 298.110, 590.822 293.090 C 563.401 286.714, 518.416 283.196, 488.500 285.089 M 527 369.025 C 523.425 369.444, 518.475 370.315, 516 370.961 C 513.525 371.606, 509.755 372.587, 507.623 373.140 C 501.923 374.618, 504.380 375.941, 513.028 376.051 C 542.187 376.422, 571.018 389.752, 589.021 411.188 C 595.915 419.396, 604.165 435.716, 607.125 447 C 610.401 459.486, 610.413 480.681, 607.153 494.317 C 599.660 525.652, 581.982 551.859, 555 571.632 C 544.146 579.586, 531.160 588.147, 522.691 592.932 C 513.785 597.964, 516.667 597.703, 526.646 592.574 C 559.036 575.926, 582.477 556.898, 604.766 529.161 C 610.755 521.707, 617.728 505.888, 621.146 492 C 622.031 488.406, 622.480 480.607, 622.442 469.500 C 622.381 451.613, 621.067 443.833, 615.771 430 C 605.476 403.111, 583.557 378.550, 565 373.111 C 562.525 372.385, 559.429 371.371, 558.119 370.858 C 555.886 369.982, 538.286 367.926, 535 368.157 C 534.175 368.215, 530.575 368.606, 527 369.025 M 357.393 385.408 C 348.452 389.070, 342.526 392.926, 343.830 394.230 C 344.295 394.695, 345.760 394.664, 347.087 394.161 C 354.405 391.393, 367.395 392.062, 374 395.548 C 377.827 397.567, 384.930 404.942, 387.050 409.097 C 394.082 422.881, 387.870 432.921, 367.931 440.003 C 362.808 441.823, 359.227 442.309, 350.328 442.394 C 338.361 442.508, 338.377 442.860, 350.500 446.097 C 358.859 448.329, 372.296 448.563, 379.650 446.605 C 385.527 445.040, 392.948 440.287, 395.822 436.248 C 401.111 428.813, 402.440 414.429, 398.849 403.491 C 396.102 395.120, 390.841 389.076, 382.811 385.064 C 374.417 380.869, 368.270 380.952, 357.393 385.408 M 432.705 393.750 C 433.142 395.813, 433.482 402.225, 433.461 408 C 433.425 417.382, 433.112 419.192, 430.518 425 C 428.921 428.575, 426.404 433.300, 424.924 435.500 C 418.459 445.112, 404.875 455.927, 393 460.917 C 389.975 462.188, 386.779 463.589, 385.897 464.031 C 385.015 464.472, 382.203 465.147, 379.647 465.530 C 377.091 465.914, 375 466.584, 375 467.020 C 375 467.456, 374.100 467.577, 373 467.290 C 371.882 466.997, 371 467.259, 371 467.883 C 371 469.502, 374.837 469.269, 386.855 466.919 C 406.918 462.996, 415.042 459.671, 426.774 450.585 C 431.659 446.801, 439.500 437.903, 443.151 432 C 447.883 424.347, 448.243 406.490, 443.806 399.476 C 441.537 395.890, 434.604 390, 432.651 390 C 432.243 390, 432.267 391.688, 432.705 393.750 M 553.500 667.141 C 537.156 673.210, 534.318 694.325, 547.011 715.410 C 550.642 721.441, 563.932 735.268, 570 739.326 C 587.181 750.820, 595.784 753.937, 612.520 754.734 C 629.253 755.531, 642.802 751.610, 657.924 741.597 C 674.342 730.725, 690.004 708.495, 689.998 696.072 C 689.996 691.068, 687.120 686.008, 683 683.759 C 680.061 682.155, 678.218 681.942, 671.500 682.432 C 667.100 682.753, 661.700 683.638, 659.500 684.399 C 657.300 685.160, 648.733 686.582, 640.462 687.559 C 626.445 689.215, 624.828 689.226, 616.642 687.723 C 608.573 686.242, 606.790 685.441, 594.680 677.863 C 587.431 673.326, 579.700 668.976, 577.500 668.195 C 572.316 666.356, 557.382 665.700, 553.500 667.141 M 944 1016 L 944 1024 976 1024 L 1008 1024 1008 1016 L 1008 1008 976 1008 L 944 1008 944 1016" stroke="none" fill="#f8fafa" fill-rule="evenodd"/><path d="M 0 512 L 0 1024 472 1024 L 944 1024 944 1016 L 944 1008 976 1008 L 1008 1008 1008 1016.040 L 1008 1024.081 1016.250 1023.790 L 1024.500 1023.500 1024.751 511.750 L 1025.002 0 512.501 0 L 0 0 0 512 M 0.496 512.500 C 0.496 794.100, 0.610 909.151, 0.750 768.168 C 0.890 627.186, 0.890 396.786, 0.750 256.168 C 0.610 115.551, 0.496 230.900, 0.496 512.500 M 536 40.677 C 516.212 41.783, 497.203 43.058, 495.500 43.394 C 494.400 43.611, 489.900 44.313, 485.500 44.954 C 468.295 47.461, 438.813 53.639, 430.500 56.480 C 428.300 57.231, 420.650 59.705, 413.500 61.977 C 406.350 64.248, 398.475 66.929, 396 67.934 C 393.525 68.939, 387.675 71.246, 383 73.061 C 378.325 74.876, 367.525 79.925, 359 84.282 C 301.699 113.561, 266.116 142.590, 219.775 197.864 C 215.236 203.277, 204.579 217.448, 202.500 220.834 C 198.539 227.286, 191.614 235.473, 186.814 239.378 C 183.687 241.923, 179.862 245.785, 178.314 247.961 C 176.767 250.137, 172.852 255.649, 169.615 260.209 C 166.378 264.769, 161.264 273.225, 158.252 279 C 155.240 284.775, 152.419 289.950, 151.984 290.500 C 148.561 294.826, 134.165 327.003, 127.824 344.500 C 120.290 365.290, 106 418.637, 106 425.971 C 106 427.550, 104.899 435.342, 103.553 443.287 C 99.985 464.349, 99.020 478.227, 99.022 508.500 C 99.023 536.668, 100.586 557.253, 104.999 587.225 C 109.236 615.997, 118.486 654.014, 126.477 675.500 C 127.909 679.350, 129.679 684.300, 130.410 686.500 C 131.931 691.074, 142.268 714.321, 147.087 724 C 153.209 736.298, 163.260 753.528, 172.621 767.770 C 177.779 775.619, 182 782.319, 182 782.659 C 182 782.998, 183.688 785.169, 185.750 787.482 C 187.813 789.795, 192.423 795.470, 195.995 800.094 C 211.818 820.574, 236.363 846.076, 257 863.477 C 263.325 868.810, 269.490 874.012, 270.699 875.036 C 278.484 881.629, 292.248 891.790, 301.125 897.499 C 306.831 901.169, 312.639 904.973, 314.031 905.954 C 315.423 906.934, 318.348 908.713, 320.531 909.907 C 322.714 911.101, 327.200 913.633, 330.500 915.535 C 376.154 941.839, 438.492 961.438, 491 965.994 C 532.347 969.582, 539.035 969.581, 577 965.971 C 600.582 963.729, 615.483 961.337, 636 956.501 C 660.583 950.706, 663.044 949.959, 685.500 941.466 C 689.350 940.010, 693.625 938.465, 695 938.032 C 696.375 937.599, 699.975 936.124, 703 934.755 C 706.025 933.386, 710.750 931.430, 713.500 930.409 C 716.250 929.388, 720.300 927.564, 722.500 926.355 C 724.700 925.147, 729.689 922.605, 733.586 920.706 C 758.897 908.377, 790.502 887.033, 816 865.049 C 820.125 861.492, 824.108 858.114, 824.851 857.541 C 828.769 854.522, 854.689 828.328, 861.088 820.921 C 867.969 812.957, 871.360 808.781, 882.882 794.088 C 894.925 778.729, 912.999 748.767, 922.845 727.837 C 929.720 713.221, 930.536 711.352, 933.466 703.500 C 938.978 688.730, 940.863 683.192, 943.506 674 C 945.009 668.775, 946.828 662.475, 947.549 660 C 948.270 657.525, 949.136 653.925, 949.474 652 C 949.812 650.075, 950.749 645.575, 951.555 642 C 955.806 623.161, 958.393 593.206, 957.550 572.596 L 956.940 557.693 952.511 551.357 C 946.185 542.308, 945.831 541.463, 944.903 533.189 C 944.444 529.089, 943.454 524.810, 942.704 523.681 C 941.676 522.133, 941.562 520.411, 942.239 516.683 C 943.260 511.068, 942.161 508.791, 939.497 511.003 C 938.623 511.727, 934.580 516.411, 930.510 521.410 C 921.889 532.003, 904.711 549.016, 894.033 557.540 C 871.303 575.682, 848.517 591.424, 837.212 596.795 C 833.204 598.700, 830.085 600.419, 830.282 600.616 C 830.740 601.073, 851.681 599.184, 859.305 597.997 C 867.795 596.676, 877.897 592.312, 882.728 587.879 C 888.109 582.941, 889.344 582.914, 888.595 587.750 C 888.276 589.813, 887.550 595.423, 886.983 600.217 C 886.416 605.011, 885.552 610.861, 885.063 613.217 C 882.087 627.562, 880.577 633.466, 877.826 641.500 C 876.132 646.450, 874.390 651.850, 873.957 653.500 C 869.363 670.981, 849.324 712.093, 837.645 728 L 834.340 732.500 827.043 732.796 C 819.047 733.121, 819.062 733.112, 812.763 742 C 811.010 744.475, 808.384 747.850, 806.929 749.500 C 805.474 751.150, 801.094 756.157, 797.195 760.628 C 793.296 765.098, 787.494 770.931, 784.303 773.591 C 781.111 776.251, 775.575 781.183, 772 784.553 C 768.425 787.922, 763.625 791.858, 761.334 793.299 C 759.043 794.740, 756.873 796.396, 756.513 796.978 C 756.153 797.561, 753.528 799.218, 750.679 800.661 C 747.831 802.103, 744.150 804.299, 742.500 805.540 C 740.850 806.781, 735.220 810.012, 729.989 812.719 C 724.758 815.426, 719.358 818.375, 717.989 819.271 C 716.620 820.168, 709.265 823.403, 701.645 826.460 C 680.124 835.095, 675.328 837.754, 670.418 843.770 C 666.114 849.044, 665.396 851.279, 664.750 861.434 C 664.454 866.095, 665.584 865.656, 642.500 870.086 C 613.414 875.669, 608.249 876.103, 561.500 876.890 C 537.300 877.297, 516.600 878.025, 515.500 878.507 C 502.675 884.125, 496.371 891.620, 497.596 899.794 C 498.138 903.407, 499.281 905.237, 503.841 909.798 C 506.911 912.868, 508.902 915.057, 508.265 914.664 C 507.629 914.271, 499.321 913.052, 489.804 911.955 C 437.409 905.918, 399.879 895.013, 371.937 877.707 C 369.977 876.493, 365.658 873.867, 362.339 871.871 C 350.509 864.756, 328.558 847.535, 337 851.993 C 338.375 852.719, 342.223 855.026, 345.550 857.120 C 351.512 860.872, 374.875 872.394, 390.500 879.290 C 410.719 888.213, 423.045 893.375, 429.425 895.593 C 441.150 899.668, 450.372 898.420, 457.312 891.818 C 461.081 888.233, 461.239 887.835, 460.781 883.073 C 459.803 872.891, 453.952 868.512, 426.705 857.567 C 402.576 847.875, 399.513 846.464, 381.500 836.751 C 359.888 825.098, 337.810 810.108, 315.408 791.879 C 301.066 780.209, 275.143 753.277, 263.465 737.915 C 247.480 716.887, 242.516 709.979, 240.423 705.848 C 239.053 703.145, 236.434 698.586, 234.602 695.717 C 229.410 687.586, 218.476 666.314, 215.090 657.758 C 213.406 653.500, 211.577 649.225, 211.026 648.258 C 206.722 640.695, 190.820 584.121, 189.359 571.171 C 188.400 562.673, 185.855 558.690, 172.795 545.248 C 162.781 534.942, 160.304 531.750, 157.275 525.243 C 153.785 517.748, 153.667 517.115, 153.601 505.500 C 153.524 492.167, 155.163 485.114, 161.585 471.146 C 166.057 461.418, 181.596 438.787, 187.088 434 C 188.038 433.173, 189.977 427.917, 191.414 422.278 C 203.053 376.610, 218.130 335.935, 233.217 309.500 C 234.473 307.300, 235.752 305.275, 236.060 305 C 236.368 304.725, 238.187 301.350, 240.103 297.500 C 248.302 281.022, 283.605 236.299, 304.436 216 C 314.591 206.104, 313.534 207.066, 322.500 199.563 C 326.350 196.342, 330.263 192.985, 331.195 192.103 C 332.127 191.221, 334.827 189.043, 337.195 187.262 C 339.563 185.481, 345.167 181.206, 349.649 177.762 C 359.940 169.854, 370.747 162.294, 376.426 159.030 C 378.847 157.638, 385.704 153.536, 391.664 149.912 C 397.624 146.289, 407.675 140.929, 414 138 C 420.325 135.072, 425.950 132.350, 426.500 131.951 C 427.050 131.552, 430.425 130.086, 434 128.694 C 437.575 127.302, 443.425 125.025, 447 123.634 C 462.967 117.419, 473.486 114.535, 502.500 108.411 C 543.364 99.788, 590.384 97.925, 627.500 103.460 C 660.446 108.373, 679.542 113.066, 700.487 121.397 C 706.544 123.806, 712.850 126.247, 714.500 126.821 C 727.640 131.394, 749.824 142.773, 764.500 152.468 C 768.900 155.374, 777.778 161.208, 784.229 165.431 C 790.680 169.654, 798.330 175.228, 801.229 177.818 C 804.128 180.408, 809.922 185.106, 814.105 188.259 C 820.422 193.019, 822.963 194.272, 829.105 195.657 C 836.365 197.294, 836.655 197.483, 845.024 205.975 C 858.987 220.144, 874.484 241.447, 890.872 269 C 894.306 274.775, 897.535 280.175, 898.046 281 C 898.557 281.825, 899.725 283.850, 900.641 285.500 C 903.501 290.648, 912.698 303.351, 915.985 306.692 C 918.181 308.925, 920.789 310.257, 924.662 311.124 C 930.845 312.507, 932.572 311.936, 934.969 307.715 C 936.297 305.378, 936.217 304.375, 934.142 297.314 C 932.041 290.162, 928.797 281.932, 923.969 271.500 C 922.951 269.300, 921.240 265.250, 920.168 262.500 C 915.664 250.952, 897.269 220.331, 886.902 207.128 C 876.357 193.697, 863.912 179.898, 848.007 164 C 827.744 143.746, 827.530 143.563, 798.210 121.436 C 778.970 106.915, 745.941 87.847, 717.793 75.010 C 710.919 71.875, 687.403 63.471, 673 59.002 C 652.593 52.670, 639.619 49.731, 611.152 44.991 C 600.015 43.137, 553.681 39.782, 545 40.201 C 543.075 40.294, 539.025 40.508, 536 40.677 M 687.500 234.103 C 674.541 235.664, 636.388 246.384, 620.274 252.992 C 609.710 257.324, 605.463 260.665, 604.059 265.747 C 603.112 269.177, 604.725 273.370, 608.922 278.387 C 612.287 282.410, 632.872 289.940, 640.620 289.983 C 652.817 290.050, 681.026 297.391, 697.060 304.671 C 731.039 320.098, 749.721 332.436, 761 346.898 C 762.832 349.247, 764.969 350.487, 769 351.540 C 784.850 355.680, 794.893 351.445, 794.967 340.591 C 794.995 336.387, 794.426 334.921, 791 330.384 C 788.800 327.470, 787 324.758, 787 324.357 C 787 323.957, 786.135 322.700, 785.078 321.564 C 782.048 318.308, 775.732 306.561, 769.990 293.500 C 767.089 286.900, 764.384 281.050, 763.980 280.500 C 763.576 279.950, 762.909 278.375, 762.499 277 C 761.335 273.099, 756.215 262.391, 752.782 256.681 C 745.638 244.797, 732.977 236.338, 718.923 234.057 C 711.537 232.859, 697.659 232.879, 687.500 234.103 M 488.500 285.089 C 457.998 287.020, 422.297 293.632, 397 302.036 C 384.368 306.233, 361.425 315.555, 346 322.758 C 330.098 330.183, 297.586 349.707, 277 364.193 C 254.537 380, 241.064 390.882, 218.897 411.123 C 211.418 417.953, 192.500 442.785, 185.649 454.765 C 177.885 468.343, 172.026 485.439, 172.032 494.500 C 172.038 504.131, 177.777 520.597, 179.919 517.131 C 180.277 516.552, 182.242 515.379, 184.286 514.525 C 190.777 511.813, 205.875 513.362, 219.169 518.104 C 232.150 522.735, 233.909 523.606, 244.997 530.901 C 249.674 533.978, 253.950 536.682, 254.500 536.911 C 255.050 537.139, 258.425 539.629, 262 542.445 C 276.436 553.816, 286.592 559.785, 297.693 563.422 C 303.958 565.474, 308 568.467, 308 571.052 C 308 574.019, 300.620 577.315, 293.954 577.325 C 286.832 577.336, 280.597 574.504, 266.541 564.876 C 250.924 554.178, 247.882 551.988, 241.943 547.164 C 234.521 541.137, 218.719 533.565, 203.312 528.654 C 197.489 526.798, 185 526.391, 185 528.058 C 185 529.564, 189.004 536.514, 193.848 543.416 C 196.132 546.669, 198 549.685, 198 550.118 C 198 551.148, 206.703 563.584, 209.401 566.409 C 210.556 567.617, 213.750 571.426, 216.500 574.874 C 222.688 582.630, 250.342 607.771, 258.485 613.043 C 261.793 615.184, 266.975 618.786, 270 621.046 C 286.335 633.252, 322.189 650.617, 349.076 659.344 C 359.013 662.569, 386.127 668.879, 397.500 670.613 C 402.450 671.367, 415.275 672.744, 426 673.672 C 456.051 676.272, 482.011 674.361, 523 666.532 C 527.675 665.639, 532.400 664.472, 533.500 663.939 C 534.600 663.406, 536.850 662.567, 538.500 662.076 C 540.150 661.584, 544.650 659.959, 548.500 658.465 C 558.237 654.686, 563.564 654.296, 590.725 655.378 C 618.035 656.466, 638.651 655.345, 662 651.502 C 687.830 647.251, 696.650 645.102, 732 634.451 C 743.252 631.061, 764.543 622.770, 786 613.424 C 796.966 608.648, 826.142 593.456, 835.571 587.612 C 864.437 569.723, 883.202 555.418, 901.529 537.332 C 917.981 521.095, 923.516 514.862, 932.355 502.613 C 942.515 488.534, 946.510 481.919, 952.655 469 C 963.311 446.599, 969.337 417.055, 969.382 387 C 969.410 367.882, 968.129 361.324, 961.956 349 C 958.380 341.862, 955.177 338.968, 950.098 338.286 C 946.471 337.800, 946 337.969, 946 339.758 C 946 340.869, 947.766 345.355, 949.925 349.727 C 955.740 361.503, 957.438 368.055, 957.383 378.500 C 957.277 398.498, 947.338 415.466, 930.838 423.821 C 910.873 433.928, 878.268 431.346, 846.488 417.138 C 831.431 410.407, 818.463 402.857, 797.500 388.618 C 789.800 383.387, 777.200 375.161, 769.500 370.337 C 761.800 365.513, 752.659 359.638, 749.187 357.283 C 745.715 354.927, 742.627 353, 742.326 353 C 742.024 353, 737.916 350.667, 733.195 347.816 C 712.121 335.086, 671.089 316.501, 647.452 308.978 C 640.328 306.711, 631.350 303.796, 627.500 302.501 C 620.986 300.310, 612.414 298.110, 590.822 293.090 C 563.401 286.714, 518.416 283.196, 488.500 285.089 M 527 369.025 C 523.425 369.444, 518.475 370.315, 516 370.961 C 513.525 371.606, 509.755 372.587, 507.623 373.140 C 501.923 374.618, 504.380 375.941, 513.028 376.051 C 542.187 376.422, 571.018 389.752, 589.021 411.188 C 595.915 419.396, 604.165 435.716, 607.125 447 C 610.401 459.486, 610.413 480.681, 607.153 494.317 C 599.660 525.652, 581.982 551.859, 555 571.632 C 544.146 579.586, 531.160 588.147, 522.691 592.932 C 513.785 597.964, 516.667 597.703, 526.646 592.574 C 559.036 575.926, 582.477 556.898, 604.766 529.161 C 610.755 521.707, 617.728 505.888, 621.146 492 C 622.031 488.406, 622.480 480.607, 622.442 469.500 C 622.381 451.613, 621.067 443.833, 615.771 430 C 605.476 403.111, 583.557 378.550, 565 373.111 C 562.525 372.385, 559.429 371.371, 558.119 370.858 C 555.886 369.982, 538.286 367.926, 535 368.157 C 534.175 368.215, 530.575 368.606, 527 369.025 M 357.393 385.408 C 348.452 389.070, 342.526 392.926, 343.830 394.230 C 344.295 394.695, 345.760 394.664, 347.087 394.161 C 354.405 391.393, 367.395 392.062, 374 395.548 C 377.827 397.567, 384.930 404.942, 387.050 409.097 C 394.082 422.881, 387.870 432.921, 367.931 440.003 C 362.808 441.823, 359.227 442.309, 350.328 442.394 C 338.361 442.508, 338.377 442.860, 350.500 446.097 C 358.859 448.329, 372.296 448.563, 379.650 446.605 C 385.527 445.040, 392.948 440.287, 395.822 436.248 C 401.111 428.813, 402.440 414.429, 398.849 403.491 C 396.102 395.120, 390.841 389.076, 382.811 385.064 C 374.417 380.869, 368.270 380.952, 357.393 385.408 M 432.705 393.750 C 433.142 395.813, 433.482 402.225, 433.461 408 C 433.425 417.382, 433.112 419.192, 430.518 425 C 428.921 428.575, 426.404 433.300, 424.924 435.500 C 418.459 445.112, 404.875 455.927, 393 460.917 C 389.975 462.188, 386.779 463.589, 385.897 464.031 C 385.015 464.472, 382.203 465.147, 379.647 465.530 C 377.091 465.914, 375 466.584, 375 467.020 C 375 467.456, 374.100 467.577, 373 467.290 C 371.882 466.997, 371 467.259, 371 467.883 C 371 469.502, 374.837 469.269, 386.855 466.919 C 406.918 462.996, 415.042 459.671, 426.774 450.585 C 431.659 446.801, 439.500 437.903, 443.151 432 C 447.883 424.347, 448.243 406.490, 443.806 399.476 C 441.537 395.890, 434.604 390, 432.651 390 C 432.243 390, 432.267 391.688, 432.705 393.750 M 553.500 667.141 C 537.156 673.210, 534.318 694.325, 547.011 715.410 C 550.642 721.441, 563.932 735.268, 570 739.326 C 587.181 750.820, 595.784 753.937, 612.520 754.734 C 629.253 755.531, 642.802 751.610, 657.924 741.597 C 674.342 730.725, 690.004 708.495, 689.998 696.072 C 689.996 691.068, 687.120 686.008, 683 683.759 C 680.061 682.155, 678.218 681.942, 671.500 682.432 C 667.100 682.753, 661.700 683.638, 659.500 684.399 C 657.300 685.160, 648.733 686.582, 640.462 687.559 C 626.445 689.215, 624.828 689.226, 616.642 687.723 C 608.573 686.242, 606.790 685.441, 594.680 677.863 C 587.431 673.326, 579.700 668.976, 577.500 668.195 C 572.316 666.356, 557.382 665.700, 553.500 667.141" stroke="none" fill="#044462" fill-rule="evenodd"/></svg>