<?xml version="1.0" encoding="UTF-8" standalone="no"?>
<!DOCTYPE svg PUBLIC "-//W3C//DTD SVG 1.1//EN"
 "http://www.w3.org/Graphics/SVG/1.1/DTD/svg11.dtd">
<!-- Generated by graphviz version 2.40.1 (20161225.0304)
 -->
<!-- Title: %3 Pages: 1 -->
<svg width="1427pt" height="754pt"
 viewBox="0.00 0.00 1427.33 754.00" xmlns="http://www.w3.org/2000/svg" xmlns:xlink="http://www.w3.org/1999/xlink">
<g id="graph0" class="graph" transform="scale(1 1) rotate(0) translate(4 750)">
<title>%3</title>
<polygon fill="#ffffff" stroke="transparent" points="-4,4 -4,-750 1423.3345,-750 1423.3345,4 -4,4"/>
<!-- replace_expression_with_boolean_literal -->
<g id="node1" class="node">
<title>replace_expression_with_boolean_literal</title>
<ellipse fill="none" stroke="#000000" cx="445.5" cy="-728" rx="199.5646" ry="18"/>
<text text-anchor="middle" x="445.5" y="-724.3" font-family="Times,serif" font-size="14.00" fill="#000000">replace_expression_with_boolean_literal</text>
</g>
<!-- boolean_literal_cleanup -->
<g id="node2" class="node">
<title>boolean_literal_cleanup</title>
<ellipse fill="none" stroke="#000000" cx="259.5" cy="-641" rx="120.7786" ry="18"/>
<text text-anchor="middle" x="259.5" y="-637.3" font-family="Times,serif" font-size="14.00" fill="#000000">boolean_literal_cleanup</text>
</g>
<!-- replace_expression_with_boolean_literal&#45;&gt;boolean_literal_cleanup -->
<g id="edge1" class="edge">
<title>replace_expression_with_boolean_literal&#45;&gt;boolean_literal_cleanup</title>
<path fill="none" stroke="#000000" d="M407.4113,-710.1843C377.9378,-696.3983 337.0004,-677.2502 305.6638,-662.5927"/>
<polygon fill="#000000" stroke="#000000" points="306.8112,-659.2655 296.2702,-658.199 303.8454,-665.6062 306.8112,-659.2655"/>
<text text-anchor="middle" x="388.5" y="-680.8" font-family="Times,serif" font-size="14.00" fill="#000000">Parent</text>
</g>
<!-- statement_cleanup -->
<g id="node4" class="node">
<title>statement_cleanup</title>
<ellipse fill="none" stroke="#000000" cx="578.5" cy="-477" rx="99.3824" ry="18"/>
<text text-anchor="middle" x="578.5" y="-473.3" font-family="Times,serif" font-size="14.00" fill="#000000">statement_cleanup</text>
</g>
<!-- replace_expression_with_boolean_literal&#45;&gt;statement_cleanup -->
<g id="edge2" class="edge">
<title>replace_expression_with_boolean_literal&#45;&gt;statement_cleanup</title>
<path fill="none" stroke="#000000" d="M455.065,-709.9487C478.1106,-666.4567 536.8165,-555.6658 564.1249,-504.1289"/>
<polygon fill="#000000" stroke="#000000" points="567.2534,-505.6999 568.8429,-495.225 561.0681,-502.4224 567.2534,-505.6999"/>
<text text-anchor="middle" x="525.5" y="-637.3" font-family="Times,serif" font-size="14.00" fill="#000000">Parent</text>
</g>
<!-- boolean_expression_simplify -->
<g id="node3" class="node">
<title>boolean_expression_simplify</title>
<polygon fill="none" stroke="#000000" points="0,-382.5 0,-571.5 231,-571.5 231,-382.5 0,-382.5"/>
<text text-anchor="middle" x="115.5" y="-556.3" font-family="Times,serif" font-size="14.00" fill="#000000">boolean_expression_simplify</text>
<text text-anchor="middle" x="115.5" y="-525.3" font-family="Times,serif" font-size="14.00" fill="#000000">simplify_not_false</text>
<text text-anchor="middle" x="115.5" y="-510.3" font-family="Times,serif" font-size="14.00" fill="#000000">simplify_not_true</text>
<text text-anchor="middle" x="115.5" y="-495.3" font-family="Times,serif" font-size="14.00" fill="#000000">simplify_true_and_something</text>
<text text-anchor="middle" x="115.5" y="-480.3" font-family="Times,serif" font-size="14.00" fill="#000000">simplify_something_and_true</text>
<text text-anchor="middle" x="115.5" y="-465.3" font-family="Times,serif" font-size="14.00" fill="#000000">simplify_false_and_something</text>
<text text-anchor="middle" x="115.5" y="-450.3" font-family="Times,serif" font-size="14.00" fill="#000000">simplify_something_and_false</text>
<text text-anchor="middle" x="115.5" y="-435.3" font-family="Times,serif" font-size="14.00" fill="#000000">simplify_something_or_true</text>
<text text-anchor="middle" x="115.5" y="-420.3" font-family="Times,serif" font-size="14.00" fill="#000000">simplify_true_or_something</text>
<text text-anchor="middle" x="115.5" y="-405.3" font-family="Times,serif" font-size="14.00" fill="#000000">simplify_something_or_false</text>
<text text-anchor="middle" x="115.5" y="-390.3" font-family="Times,serif" font-size="14.00" fill="#000000">simplify_false_or_something</text>
</g>
<!-- boolean_literal_cleanup&#45;&gt;boolean_expression_simplify -->
<g id="edge3" class="edge">
<title>boolean_literal_cleanup&#45;&gt;boolean_expression_simplify</title>
<path fill="none" stroke="#000000" d="M178.4429,-627.5208C154.2879,-621.8159 132.1833,-614.3056 124.5,-605 118.7291,-598.0106 114.5652,-590.0095 111.6433,-581.495"/>
<polygon fill="#000000" stroke="#000000" points="114.9566,-580.3501 108.8527,-571.6902 108.2239,-582.2663 114.9566,-580.3501"/>
<text text-anchor="middle" x="148.5" y="-593.8" font-family="Times,serif" font-size="14.00" fill="#000000">Parent</text>
</g>
<!-- boolean_literal_cleanup&#45;&gt;statement_cleanup -->
<g id="edge4" class="edge">
<title>boolean_literal_cleanup&#45;&gt;statement_cleanup</title>
<path fill="none" stroke="#000000" d="M293.3366,-623.6044C351.8714,-593.5113 471.8986,-531.8045 535.9765,-498.8616"/>
<polygon fill="#000000" stroke="#000000" points="537.7174,-501.9021 545.0107,-494.2171 534.5168,-495.6766 537.7174,-501.9021"/>
<text text-anchor="middle" x="378.5" y="-593.8" font-family="Times,serif" font-size="14.00" fill="#000000">Parent</text>
</g>
<!-- boolean_expression_simplify&#45;&gt;boolean_literal_cleanup -->
<g id="edge5" class="edge">
<title>boolean_expression_simplify&#45;&gt;boolean_literal_cleanup</title>
<path fill="none" stroke="#000000" d="M168.6216,-571.5806C177.4271,-583.5418 187.1098,-595.0541 197.5,-605 202.5141,-609.7997 208.2857,-614.2166 214.2469,-618.1897"/>
<polygon fill="#000000" stroke="#000000" points="212.7142,-621.3588 223.0503,-623.6861 216.4214,-615.4211 212.7142,-621.3588"/>
<text text-anchor="middle" x="221.5" y="-593.8" font-family="Times,serif" font-size="14.00" fill="#000000">Parent</text>
</g>
<!-- delete_parent_assignment -->
<g id="node5" class="node">
<title>delete_parent_assignment</title>
<ellipse fill="none" stroke="#000000" cx="632.5" cy="-296" rx="133.7763" ry="18"/>
<text text-anchor="middle" x="632.5" y="-292.3" font-family="Times,serif" font-size="14.00" fill="#000000">delete_parent_assignment</text>
</g>
<!-- statement_cleanup&#45;&gt;delete_parent_assignment -->
<g id="edge7" class="edge">
<title>statement_cleanup&#45;&gt;delete_parent_assignment</title>
<path fill="none" stroke="#000000" d="M583.8751,-458.9833C593.312,-427.3525 612.9198,-361.6298 624.1397,-324.0224"/>
<polygon fill="#000000" stroke="#000000" points="627.5614,-324.7957 627.0664,-314.2125 620.8536,-322.7944 627.5614,-324.7957"/>
<text text-anchor="middle" x="679.5" y="-352.8" font-family="Times,serif" font-size="14.00" fill="#000000">Function&#45;Method</text>
</g>
<!-- delete_immediate_if_err -->
<g id="node6" class="node">
<title>delete_immediate_if_err</title>
<ellipse fill="none" stroke="#000000" cx="411.5" cy="-192" rx="124.2781" ry="18"/>
<text text-anchor="middle" x="411.5" y="-188.3" font-family="Times,serif" font-size="14.00" fill="#000000">delete_immediate_if_err</text>
</g>
<!-- statement_cleanup&#45;&gt;delete_immediate_if_err -->
<g id="edge8" class="edge">
<title>statement_cleanup&#45;&gt;delete_immediate_if_err</title>
<path fill="none" stroke="#000000" d="M533.2013,-460.9134C481.8513,-439.9379 400.7154,-397.8323 365.5,-331 350.997,-303.4761 356.4845,-290.7762 365.5,-261 370.2118,-245.4379 379.719,-230.1775 388.8734,-217.9815"/>
<polygon fill="#000000" stroke="#000000" points="391.6691,-220.0884 395.0915,-210.0615 386.1632,-215.7657 391.6691,-220.0884"/>
<text text-anchor="middle" x="427.5" y="-292.3" font-family="Times,serif" font-size="14.00" fill="#000000">Function&#45;Method</text>
</g>
<!-- delete_bool_blank_identifier_short_var_declaration -->
<g id="node8" class="node">
<title>delete_bool_blank_identifier_short_var_declaration</title>
<ellipse fill="none" stroke="#000000" cx="802.5" cy="-192" rx="248.8558" ry="18"/>
<text text-anchor="middle" x="802.5" y="-188.3" font-family="Times,serif" font-size="14.00" fill="#000000">delete_bool_blank_identifier_short_var_declaration</text>
</g>
<!-- statement_cleanup&#45;&gt;delete_bool_blank_identifier_short_var_declaration -->
<g id="edge9" class="edge">
<title>statement_cleanup&#45;&gt;delete_bool_blank_identifier_short_var_declaration</title>
<path fill="none" stroke="#000000" d="M619.276,-460.542C666.8306,-438.8469 743.0586,-395.6905 775.5,-331 793.2843,-295.5367 799.3761,-249.5462 801.4497,-220.3945"/>
<polygon fill="#000000" stroke="#000000" points="804.9618,-220.2942 802.0637,-210.1034 797.9742,-219.8772 804.9618,-220.2942"/>
<text text-anchor="middle" x="858.5" y="-292.3" font-family="Times,serif" font-size="14.00" fill="#000000">Function&#45;Method</text>
</g>
<!-- if_cleanup -->
<g id="node10" class="node">
<title>if_cleanup</title>
<polygon fill="none" stroke="#000000" points="1041.5,-261.5 1041.5,-330.5 1253.5,-330.5 1253.5,-261.5 1041.5,-261.5"/>
<text text-anchor="middle" x="1147.5" y="-315.3" font-family="Times,serif" font-size="14.00" fill="#000000">if_cleanup</text>
<text text-anchor="middle" x="1147.5" y="-284.3" font-family="Times,serif" font-size="14.00" fill="#000000">simplify_if_statement_true</text>
<text text-anchor="middle" x="1147.5" y="-269.3" font-family="Times,serif" font-size="14.00" fill="#000000">simplify_if_statement_false</text>
</g>
<!-- statement_cleanup&#45;&gt;if_cleanup -->
<g id="edge6" class="edge">
<title>statement_cleanup&#45;&gt;if_cleanup</title>
<path fill="none" stroke="#000000" d="M627.9996,-461.2541C717.3968,-432.8167 907.9774,-372.1926 1031.7773,-332.8116"/>
<polygon fill="#000000" stroke="#000000" points="1032.8456,-336.1447 1041.3141,-329.7779 1030.7237,-329.474 1032.8456,-336.1447"/>
<text text-anchor="middle" x="1002.5" y="-352.8" font-family="Times,serif" font-size="14.00" fill="#000000">Parent</text>
</g>
<!-- delete_parent_assignment&#45;&gt;delete_immediate_if_err -->
<g id="edge10" class="edge">
<title>delete_parent_assignment&#45;&gt;delete_immediate_if_err</title>
<path fill="none" stroke="#000000" d="M595.5096,-278.5927C557.5483,-260.7286 498.4039,-232.8959 457.4606,-213.6285"/>
<polygon fill="#000000" stroke="#000000" points="458.7812,-210.3818 448.2427,-209.2907 455.8006,-216.7156 458.7812,-210.3818"/>
<text text-anchor="middle" x="577.5" y="-231.8" font-family="Times,serif" font-size="14.00" fill="#000000">Function&#45;Method</text>
</g>
<!-- delete_parent_assignment&#45;&gt;delete_bool_blank_identifier_short_var_declaration -->
<g id="edge11" class="edge">
<title>delete_parent_assignment&#45;&gt;delete_bool_blank_identifier_short_var_declaration</title>
<path fill="none" stroke="#000000" d="M636.4989,-277.7239C640.8227,-262.2676 649.2434,-240.6707 664.5,-228 671.692,-222.027 686.649,-216.4453 704.1642,-211.5438"/>
<polygon fill="#000000" stroke="#000000" points="705.3616,-214.8471 714.1249,-208.8926 703.5611,-208.0826 705.3616,-214.8471"/>
<text text-anchor="middle" x="726.5" y="-231.8" font-family="Times,serif" font-size="14.00" fill="#000000">Function&#45;Method</text>
</g>
<!-- delete_bool_err_short_var_declaration -->
<g id="node7" class="node">
<title>delete_bool_err_short_var_declaration</title>
<ellipse fill="none" stroke="#000000" cx="477.5" cy="-105" rx="189.5666" ry="18"/>
<text text-anchor="middle" x="477.5" y="-101.3" font-family="Times,serif" font-size="14.00" fill="#000000">delete_bool_err_short_var_declaration</text>
</g>
<!-- delete_immediate_if_err&#45;&gt;delete_bool_err_short_var_declaration -->
<g id="edge12" class="edge">
<title>delete_immediate_if_err&#45;&gt;delete_bool_err_short_var_declaration</title>
<path fill="none" stroke="#000000" d="M425.1752,-173.9735C434.5556,-161.6085 447.1525,-145.0036 457.6357,-131.1847"/>
<polygon fill="#000000" stroke="#000000" points="460.5868,-133.0857 463.8423,-123.0034 455.0099,-128.8549 460.5868,-133.0857"/>
<text text-anchor="middle" x="510.5" y="-144.8" font-family="Times,serif" font-size="14.00" fill="#000000">Function&#45;Method</text>
</g>
<!-- replace_identifier_with_value -->
<g id="node9" class="node">
<title>replace_identifier_with_value</title>
<ellipse fill="none" stroke="#000000" cx="477.5" cy="-18" rx="148.3739" ry="18"/>
<text text-anchor="middle" x="477.5" y="-14.3" font-family="Times,serif" font-size="14.00" fill="#000000">replace_identifier_with_value</text>
</g>
<!-- delete_bool_err_short_var_declaration&#45;&gt;replace_identifier_with_value -->
<g id="edge13" class="edge">
<title>delete_bool_err_short_var_declaration&#45;&gt;replace_identifier_with_value</title>
<path fill="none" stroke="#000000" d="M477.5,-86.9735C477.5,-75.1918 477.5,-59.5607 477.5,-46.1581"/>
<polygon fill="#000000" stroke="#000000" points="481.0001,-46.0033 477.5,-36.0034 474.0001,-46.0034 481.0001,-46.0033"/>
<text text-anchor="middle" x="539.5" y="-57.8" font-family="Times,serif" font-size="14.00" fill="#000000">Function&#45;Method</text>
</g>
<!-- delete_bool_blank_identifier_short_var_declaration&#45;&gt;replace_identifier_with_value -->
<g id="edge14" class="edge">
<title>delete_bool_blank_identifier_short_var_declaration&#45;&gt;replace_identifier_with_value</title>
<path fill="none" stroke="#000000" d="M784.0665,-173.9728C760.5259,-151.6051 717.8676,-113.2193 676.5,-87 647.1088,-68.3715 638.1323,-66.0831 605.5,-54 588.6044,-47.7439 570.1136,-41.9564 552.5708,-36.9331"/>
<polygon fill="#000000" stroke="#000000" points="553.5126,-33.5623 542.9384,-34.223 551.6166,-40.3007 553.5126,-33.5623"/>
<text text-anchor="middle" x="786.5" y="-101.3" font-family="Times,serif" font-size="14.00" fill="#000000">Function&#45;Method</text>
</g>
<!-- replace_identifier_with_value&#45;&gt;boolean_literal_cleanup -->
<g id="edge15" class="edge">
<title>replace_identifier_with_value&#45;&gt;boolean_literal_cleanup</title>
<path fill="none" stroke="#000000" d="M401.2542,-33.4847C338.3893,-48.5128 259.5,-73.6226 259.5,-105 259.5,-477 259.5,-477 259.5,-477 259.5,-524.5798 259.5,-579.9242 259.5,-612.622"/>
<polygon fill="#000000" stroke="#000000" points="256.0001,-612.7986 259.5,-622.7986 263.0001,-612.7987 256.0001,-612.7986"/>
<text text-anchor="middle" x="283.5" y="-231.8" font-family="Times,serif" font-size="14.00" fill="#000000">Parent</text>
</g>
<!-- remove_unnecessary_nested_block -->
<g id="node11" class="node">
<title>remove_unnecessary_nested_block</title>
<ellipse fill="none" stroke="#000000" cx="1244.5" cy="-192" rx="174.6691" ry="18"/>
<text text-anchor="middle" x="1244.5" y="-188.3" font-family="Times,serif" font-size="14.00" fill="#000000">remove_unnecessary_nested_block</text>
</g>
<!-- if_cleanup&#45;&gt;remove_unnecessary_nested_block -->
<g id="edge16" class="edge">
<title>if_cleanup&#45;&gt;remove_unnecessary_nested_block</title>
<path fill="none" stroke="#000000" d="M1179.7996,-261.3695C1193.16,-247.045 1208.3733,-230.7337 1220.6899,-217.5284"/>
<polygon fill="#000000" stroke="#000000" points="1223.3098,-219.8509 1227.571,-210.1507 1218.1907,-215.0764 1223.3098,-219.8509"/>
<text text-anchor="middle" x="1233.5" y="-231.8" font-family="Times,serif" font-size="14.00" fill="#000000">Parent</text>
</g>
</g>
</svg>
