<?xml version="1.0" encoding="UTF-8" standalone="no"?>
<!DOCTYPE svg PUBLIC "-//W3C//DTD SVG 1.1//EN"
 "http://www.w3.org/Graphics/SVG/1.1/DTD/svg11.dtd">
<!-- Generated by graphviz version 2.40.1 (20161225.0304)
 -->
<!-- Title: %3 Pages: 1 -->
<svg width="874pt" height="825pt"
 viewBox="0.00 0.00 874.33 825.00" xmlns="http://www.w3.org/2000/svg" xmlns:xlink="http://www.w3.org/1999/xlink">
<g id="graph0" class="graph" transform="scale(1 1) rotate(0) translate(4 821)">
<title>%3</title>
<polygon fill="#ffffff" stroke="transparent" points="-4,4 -4,-821 870.3345,-821 870.3345,4 -4,4"/>
<text text-anchor="middle" x="433.1672" y="-789" font-family="Times,serif" font-size="30.00" fill="#000000">Go Built&#45;in Rules</text>
<!-- replace_expression_with_boolean_literal -->
<g id="node1" class="node">
<title>replace_expression_with_boolean_literal</title>
<ellipse fill="none" stroke="#000000" cx="342.5" cy="-758" rx="199.5646" ry="18"/>
<text text-anchor="middle" x="342.5" y="-754.3" font-family="Times,serif" font-size="14.00" fill="#000000">replace_expression_with_boolean_literal</text>
</g>
<!-- boolean_literal_cleanup -->
<g id="node2" class="node">
<title>boolean_literal_cleanup</title>
<ellipse fill="none" stroke="#000000" cx="259.5" cy="-671" rx="120.7786" ry="18"/>
<text text-anchor="middle" x="259.5" y="-667.3" font-family="Times,serif" font-size="14.00" fill="#000000">boolean_literal_cleanup</text>
</g>
<!-- replace_expression_with_boolean_literal&#45;&gt;boolean_literal_cleanup -->
<g id="edge1" class="edge">
<title>replace_expression_with_boolean_literal&#45;&gt;boolean_literal_cleanup</title>
<path fill="none" stroke="#000000" d="M325.3023,-739.9735C313.2833,-727.3752 297.0651,-710.3755 283.7375,-696.4055"/>
<polygon fill="#000000" stroke="#000000" points="286.1108,-693.8228 276.6756,-689.0034 281.046,-698.6548 286.1108,-693.8228"/>
<text text-anchor="middle" x="330.5" y="-710.8" font-family="Times,serif" font-size="14.00" fill="#000000">Parent</text>
</g>
<!-- statement_cleanup -->
<g id="node4" class="node">
<title>statement_cleanup</title>
<ellipse fill="none" stroke="#000000" cx="424.5" cy="-492" rx="99.3824" ry="18"/>
<text text-anchor="middle" x="424.5" y="-488.3" font-family="Times,serif" font-size="14.00" fill="#000000">statement_cleanup</text>
</g>
<!-- replace_expression_with_boolean_literal&#45;&gt;statement_cleanup -->
<g id="edge2" class="edge">
<title>replace_expression_with_boolean_literal&#45;&gt;statement_cleanup</title>
<path fill="none" stroke="#000000" d="M357.9888,-739.9126C368.5049,-726.6662 381.8435,-707.792 389.5,-689 412.7423,-631.9547 420.5788,-559.4147 423.2004,-520.2173"/>
<polygon fill="#000000" stroke="#000000" points="426.7029,-520.2786 423.81,-510.0864 419.7156,-519.8581 426.7029,-520.2786"/>
<text text-anchor="middle" x="425.5" y="-667.3" font-family="Times,serif" font-size="14.00" fill="#000000">Parent</text>
</g>
<!-- boolean_expression_simplify -->
<g id="node3" class="node">
<title>boolean_expression_simplify</title>
<polygon fill="none" stroke="#000000" points="0,-382.5 0,-601.5 231,-601.5 231,-382.5 0,-382.5"/>
<text text-anchor="middle" x="115.5" y="-586.3" font-family="Times,serif" font-size="14.00" fill="#000000">boolean_expression_simplify</text>
<text text-anchor="middle" x="115.5" y="-555.3" font-family="Times,serif" font-size="14.00" fill="#000000">simplify_not_false</text>
<text text-anchor="middle" x="115.5" y="-540.3" font-family="Times,serif" font-size="14.00" fill="#000000">simplify_not_true</text>
<text text-anchor="middle" x="115.5" y="-525.3" font-family="Times,serif" font-size="14.00" fill="#000000">simplify_true_and_something</text>
<text text-anchor="middle" x="115.5" y="-510.3" font-family="Times,serif" font-size="14.00" fill="#000000">simplify_something_and_true</text>
<text text-anchor="middle" x="115.5" y="-495.3" font-family="Times,serif" font-size="14.00" fill="#000000">simplify_false_and_something</text>
<text text-anchor="middle" x="115.5" y="-480.3" font-family="Times,serif" font-size="14.00" fill="#000000">simplify_something_and_false</text>
<text text-anchor="middle" x="115.5" y="-465.3" font-family="Times,serif" font-size="14.00" fill="#000000">simplify_something_or_true</text>
<text text-anchor="middle" x="115.5" y="-450.3" font-family="Times,serif" font-size="14.00" fill="#000000">simplify_true_or_something</text>
<text text-anchor="middle" x="115.5" y="-435.3" font-family="Times,serif" font-size="14.00" fill="#000000">simplify_something_or_false</text>
<text text-anchor="middle" x="115.5" y="-420.3" font-family="Times,serif" font-size="14.00" fill="#000000">simplify_false_or_something</text>
<text text-anchor="middle" x="115.5" y="-405.3" font-family="Times,serif" font-size="14.00" fill="#000000">simplify_identity_equal</text>
<text text-anchor="middle" x="115.5" y="-390.3" font-family="Times,serif" font-size="14.00" fill="#000000">simplify_identity_not_equal</text>
</g>
<!-- boolean_literal_cleanup&#45;&gt;boolean_expression_simplify -->
<g id="edge3" class="edge">
<title>boolean_literal_cleanup&#45;&gt;boolean_expression_simplify</title>
<path fill="none" stroke="#000000" d="M189.967,-656.17C159.3139,-648.9592 129.1317,-640.6518 124.5,-635 118.7147,-627.9406 114.4029,-619.9672 111.2611,-611.4868"/>
<polygon fill="#000000" stroke="#000000" points="114.5291,-610.2113 108.1947,-601.7185 107.8504,-612.3078 114.5291,-610.2113"/>
<text text-anchor="middle" x="148.5" y="-623.8" font-family="Times,serif" font-size="14.00" fill="#000000">Parent</text>
</g>
<!-- boolean_literal_cleanup&#45;&gt;statement_cleanup -->
<g id="edge4" class="edge">
<title>boolean_literal_cleanup&#45;&gt;statement_cleanup</title>
<path fill="none" stroke="#000000" d="M276.2291,-652.8515C305.7064,-620.8731 366.9725,-554.4086 400.7946,-517.7168"/>
<polygon fill="#000000" stroke="#000000" points="403.7677,-519.6554 407.9719,-509.9304 398.6208,-514.911 403.7677,-519.6554"/>
<text text-anchor="middle" x="328.5" y="-623.8" font-family="Times,serif" font-size="14.00" fill="#000000">Parent</text>
</g>
<!-- boolean_expression_simplify&#45;&gt;boolean_literal_cleanup -->
<g id="edge5" class="edge">
<title>boolean_expression_simplify&#45;&gt;boolean_literal_cleanup</title>
<path fill="none" stroke="#000000" d="M170.2407,-601.7864C178.5036,-613.6819 187.6111,-625.0574 197.5,-635 202.3358,-639.862 207.9617,-644.2987 213.8137,-648.2679"/>
<polygon fill="#000000" stroke="#000000" points="212.1598,-651.3629 222.4836,-653.7439 215.8978,-645.4446 212.1598,-651.3629"/>
<text text-anchor="middle" x="221.5" y="-623.8" font-family="Times,serif" font-size="14.00" fill="#000000">Parent</text>
</g>
<!-- delete_variable_declaration -->
<g id="node5" class="node">
<title>delete_variable_declaration</title>
<ellipse fill="none" stroke="#000000" cx="427.5" cy="-296" rx="139.9756" ry="18"/>
<text text-anchor="middle" x="427.5" y="-292.3" font-family="Times,serif" font-size="14.00" fill="#000000">delete_variable_declaration</text>
</g>
<!-- statement_cleanup&#45;&gt;delete_variable_declaration -->
<g id="edge7" class="edge">
<title>statement_cleanup&#45;&gt;delete_variable_declaration</title>
<path fill="none" stroke="#000000" d="M424.7769,-473.9121C425.3015,-439.6363 426.4438,-365.006 427.0693,-324.1384"/>
<polygon fill="#000000" stroke="#000000" points="430.5703,-324.0966 427.2238,-314.0442 423.5711,-323.9894 430.5703,-324.0966"/>
<text text-anchor="middle" x="489.5" y="-352.8" font-family="Times,serif" font-size="14.00" fill="#000000">Function&#45;Method</text>
</g>
<!-- if_cleanup -->
<g id="node7" class="node">
<title>if_cleanup</title>
<polygon fill="none" stroke="#000000" points="585.5,-261.5 585.5,-330.5 797.5,-330.5 797.5,-261.5 585.5,-261.5"/>
<text text-anchor="middle" x="691.5" y="-315.3" font-family="Times,serif" font-size="14.00" fill="#000000">if_cleanup</text>
<text text-anchor="middle" x="691.5" y="-284.3" font-family="Times,serif" font-size="14.00" fill="#000000">simplify_if_statement_true</text>
<text text-anchor="middle" x="691.5" y="-269.3" font-family="Times,serif" font-size="14.00" fill="#000000">simplify_if_statement_false</text>
</g>
<!-- statement_cleanup&#45;&gt;if_cleanup -->
<g id="edge6" class="edge">
<title>statement_cleanup&#45;&gt;if_cleanup</title>
<path fill="none" stroke="#000000" d="M448.6654,-474.2606C490.7541,-443.3641 578.5207,-378.9361 636.2026,-336.5929"/>
<polygon fill="#000000" stroke="#000000" points="638.4957,-339.2514 644.4857,-330.5124 634.3534,-333.6085 638.4957,-339.2514"/>
<text text-anchor="middle" x="637.5" y="-352.8" font-family="Times,serif" font-size="14.00" fill="#000000">Parent</text>
</g>
<!-- replace_identifier_with_value -->
<g id="node6" class="node">
<title>replace_identifier_with_value</title>
<ellipse fill="none" stroke="#000000" cx="305.5" cy="-192" rx="148.3739" ry="18"/>
<text text-anchor="middle" x="305.5" y="-188.3" font-family="Times,serif" font-size="14.00" fill="#000000">replace_identifier_with_value</text>
</g>
<!-- delete_variable_declaration&#45;&gt;replace_identifier_with_value -->
<g id="edge8" class="edge">
<title>delete_variable_declaration&#45;&gt;replace_identifier_with_value</title>
<path fill="none" stroke="#000000" d="M406.5275,-278.1218C386.6255,-261.1562 356.546,-235.5146 334.3814,-216.6202"/>
<polygon fill="#000000" stroke="#000000" points="336.4879,-213.8168 326.6072,-209.993 331.9467,-219.1439 336.4879,-213.8168"/>
<text text-anchor="middle" x="425.5" y="-231.8" font-family="Times,serif" font-size="14.00" fill="#000000">Function&#45;Method</text>
</g>
<!-- replace_identifier_with_value&#45;&gt;boolean_literal_cleanup -->
<g id="edge9" class="edge">
<title>replace_identifier_with_value&#45;&gt;boolean_literal_cleanup</title>
<path fill="none" stroke="#000000" d="M296.4676,-210.2335C290.193,-223.8579 282.3015,-243.1336 278.5,-261 248.5785,-401.6254 254.02,-575.2686 257.6683,-642.5286"/>
<polygon fill="#000000" stroke="#000000" points="254.1875,-642.9655 258.2545,-652.7486 261.176,-642.5645 254.1875,-642.9655"/>
<text text-anchor="middle" x="288.5" y="-352.8" font-family="Times,serif" font-size="14.00" fill="#000000">Parent</text>
</g>
<!-- remove_unnecessary_nested_block -->
<g id="node8" class="node">
<title>remove_unnecessary_nested_block</title>
<ellipse fill="none" stroke="#000000" cx="691.5" cy="-192" rx="174.6691" ry="18"/>
<text text-anchor="middle" x="691.5" y="-188.3" font-family="Times,serif" font-size="14.00" fill="#000000">remove_unnecessary_nested_block</text>
</g>
<!-- if_cleanup&#45;&gt;remove_unnecessary_nested_block -->
<g id="edge10" class="edge">
<title>if_cleanup&#45;&gt;remove_unnecessary_nested_block</title>
<path fill="none" stroke="#000000" d="M691.5,-261.3695C691.5,-247.9821 691.5,-232.8594 691.5,-220.1586"/>
<polygon fill="#000000" stroke="#000000" points="695.0001,-220.1507 691.5,-210.1507 688.0001,-220.1508 695.0001,-220.1507"/>
<text text-anchor="middle" x="715.5" y="-231.8" font-family="Times,serif" font-size="14.00" fill="#000000">Parent</text>
</g>
<!-- return_statement_cleanup -->
<g id="node9" class="node">
<title>return_statement_cleanup</title>
<ellipse fill="none" stroke="#000000" cx="691.5" cy="-105" rx="133.7763" ry="18"/>
<text text-anchor="middle" x="691.5" y="-101.3" font-family="Times,serif" font-size="14.00" fill="#000000">return_statement_cleanup</text>
</g>
<!-- remove_unnecessary_nested_block&#45;&gt;return_statement_cleanup -->
<g id="edge11" class="edge">
<title>remove_unnecessary_nested_block&#45;&gt;return_statement_cleanup</title>
<path fill="none" stroke="#000000" d="M691.5,-173.9735C691.5,-162.1918 691.5,-146.5607 691.5,-133.1581"/>
<polygon fill="#000000" stroke="#000000" points="695.0001,-133.0033 691.5,-123.0034 688.0001,-133.0034 695.0001,-133.0033"/>
<text text-anchor="middle" x="715.5" y="-144.8" font-family="Times,serif" font-size="14.00" fill="#000000">Parent</text>
</g>
<!-- delete_statement_after_return -->
<g id="node10" class="node">
<title>delete_statement_after_return</title>
<ellipse fill="none" stroke="#000000" cx="691.5" cy="-18" rx="153.2729" ry="18"/>
<text text-anchor="middle" x="691.5" y="-14.3" font-family="Times,serif" font-size="14.00" fill="#000000">delete_statement_after_return</text>
</g>
<!-- return_statement_cleanup&#45;&gt;delete_statement_after_return -->
<g id="edge12" class="edge">
<title>return_statement_cleanup&#45;&gt;delete_statement_after_return</title>
<path fill="none" stroke="#000000" d="M669.6927,-87.1719C664.7457,-81.8931 660.1679,-75.7104 657.5,-69 654.0354,-60.2857 656.9851,-51.5276 662.3435,-43.7883"/>
<polygon fill="#000000" stroke="#000000" points="665.2398,-45.778 668.9139,-35.8406 659.8447,-41.3179 665.2398,-45.778"/>
<text text-anchor="middle" x="681.5" y="-57.8" font-family="Times,serif" font-size="14.00" fill="#000000">Parent</text>
</g>
<!-- delete_statement_after_return&#45;&gt;return_statement_cleanup -->
<g id="edge13" class="edge">
<title>delete_statement_after_return&#45;&gt;return_statement_cleanup</title>
<path fill="none" stroke="#000000" d="M700.6895,-36.2422C704.4827,-45.8916 707.5654,-57.9904 705.5,-69 704.9957,-71.6879 704.2969,-74.433 703.4782,-77.1488"/>
<polygon fill="#000000" stroke="#000000" points="700.1343,-76.1076 700.1219,-86.7024 706.7386,-78.4278 700.1343,-76.1076"/>
<text text-anchor="middle" x="729.5" y="-57.8" font-family="Times,serif" font-size="14.00" fill="#000000">Parent</text>
</g>
</g>
</svg>
