<?xml version="1.0" encoding="UTF-8" standalone="no"?>
<!DOCTYPE svg PUBLIC "-//W3C//DTD SVG 1.1//EN"
 "http://www.w3.org/Graphics/SVG/1.1/DTD/svg11.dtd">
<!-- Generated by graphviz version 2.40.1 (20161225.0304)
 -->
<!-- Title: %3 Pages: 1 -->
<svg width="1060pt" height="784pt"
 viewBox="0.00 0.00 1060.33 784.00" xmlns="http://www.w3.org/2000/svg" xmlns:xlink="http://www.w3.org/1999/xlink">
<g id="graph0" class="graph" transform="scale(1 1) rotate(0) translate(4 780)">
<title>%3</title>
<polygon fill="#ffffff" stroke="transparent" points="-4,4 -4,-780 1056.3345,-780 1056.3345,4 -4,4"/>
<!-- replace_expression_with_boolean_literal -->
<g id="node1" class="node">
<title>replace_expression_with_boolean_literal</title>
<ellipse fill="none" stroke="#000000" cx="358.5" cy="-758" rx="199.5646" ry="18"/>
<text text-anchor="middle" x="358.5" y="-754.3" font-family="Times,serif" font-size="14.00" fill="#000000">replace_expression_with_boolean_literal</text>
</g>
<!-- boolean_literal_cleanup -->
<g id="node2" class="node">
<title>boolean_literal_cleanup</title>
<ellipse fill="none" stroke="#000000" cx="259.5" cy="-671" rx="120.7786" ry="18"/>
<text text-anchor="middle" x="259.5" y="-667.3" font-family="Times,serif" font-size="14.00" fill="#000000">boolean_literal_cleanup</text>
</g>
<!-- replace_expression_with_boolean_literal&#45;&gt;boolean_literal_cleanup -->
<g id="edge1" class="edge">
<title>replace_expression_with_boolean_literal&#45;&gt;boolean_literal_cleanup</title>
<path fill="none" stroke="#000000" d="M337.9871,-739.9735C323.3856,-727.1419 303.5884,-709.7443 287.5302,-695.6326"/>
<polygon fill="#000000" stroke="#000000" points="289.8087,-692.9755 279.9866,-689.0034 285.1878,-698.2336 289.8087,-692.9755"/>
<text text-anchor="middle" x="339.5" y="-710.8" font-family="Times,serif" font-size="14.00" fill="#000000">Parent</text>
</g>
<!-- statement_cleanup -->
<g id="node4" class="node">
<title>statement_cleanup</title>
<ellipse fill="none" stroke="#000000" cx="459.5" cy="-492" rx="99.3824" ry="18"/>
<text text-anchor="middle" x="459.5" y="-488.3" font-family="Times,serif" font-size="14.00" fill="#000000">statement_cleanup</text>
</g>
<!-- replace_expression_with_boolean_literal&#45;&gt;statement_cleanup -->
<g id="edge2" class="edge">
<title>replace_expression_with_boolean_literal&#45;&gt;statement_cleanup</title>
<path fill="none" stroke="#000000" d="M367.0626,-740.0121C373.5256,-726.1875 382.4533,-706.5491 389.5,-689 413.3597,-629.5795 437.5769,-558.5025 450.3284,-520.0522"/>
<polygon fill="#000000" stroke="#000000" points="453.7995,-520.7023 453.6111,-510.1092 447.1524,-518.5077 453.7995,-520.7023"/>
<text text-anchor="middle" x="427.5" y="-667.3" font-family="Times,serif" font-size="14.00" fill="#000000">Parent</text>
</g>
<!-- boolean_expression_simplify -->
<g id="node3" class="node">
<title>boolean_expression_simplify</title>
<polygon fill="none" stroke="#000000" points="0,-382.5 0,-601.5 231,-601.5 231,-382.5 0,-382.5"/>
<text text-anchor="middle" x="115.5" y="-586.3" font-family="Times,serif" font-size="14.00" fill="#000000">boolean_expression_simplify</text>
<text text-anchor="middle" x="115.5" y="-555.3" font-family="Times,serif" font-size="14.00" fill="#000000">simplify_not_false</text>
<text text-anchor="middle" x="115.5" y="-540.3" font-family="Times,serif" font-size="14.00" fill="#000000">simplify_not_true</text>
<text text-anchor="middle" x="115.5" y="-525.3" font-family="Times,serif" font-size="14.00" fill="#000000">simplify_true_and_something</text>
<text text-anchor="middle" x="115.5" y="-510.3" font-family="Times,serif" font-size="14.00" fill="#000000">simplify_something_and_true</text>
<text text-anchor="middle" x="115.5" y="-495.3" font-family="Times,serif" font-size="14.00" fill="#000000">simplify_false_and_something</text>
<text text-anchor="middle" x="115.5" y="-480.3" font-family="Times,serif" font-size="14.00" fill="#000000">simplify_something_and_false</text>
<text text-anchor="middle" x="115.5" y="-465.3" font-family="Times,serif" font-size="14.00" fill="#000000">simplify_something_or_true</text>
<text text-anchor="middle" x="115.5" y="-450.3" font-family="Times,serif" font-size="14.00" fill="#000000">simplify_true_or_something</text>
<text text-anchor="middle" x="115.5" y="-435.3" font-family="Times,serif" font-size="14.00" fill="#000000">simplify_something_or_false</text>
<text text-anchor="middle" x="115.5" y="-420.3" font-family="Times,serif" font-size="14.00" fill="#000000">simplify_false_or_something</text>
<text text-anchor="middle" x="115.5" y="-405.3" font-family="Times,serif" font-size="14.00" fill="#000000">simplify_identity_equal</text>
<text text-anchor="middle" x="115.5" y="-390.3" font-family="Times,serif" font-size="14.00" fill="#000000">simplify_identity_not_equal</text>
</g>
<!-- boolean_literal_cleanup&#45;&gt;boolean_expression_simplify -->
<g id="edge3" class="edge">
<title>boolean_literal_cleanup&#45;&gt;boolean_expression_simplify</title>
<path fill="none" stroke="#000000" d="M189.967,-656.17C159.3139,-648.9592 129.1317,-640.6518 124.5,-635 118.7147,-627.9406 114.4029,-619.9672 111.2611,-611.4868"/>
<polygon fill="#000000" stroke="#000000" points="114.5291,-610.2113 108.1947,-601.7185 107.8504,-612.3078 114.5291,-610.2113"/>
<text text-anchor="middle" x="148.5" y="-623.8" font-family="Times,serif" font-size="14.00" fill="#000000">Parent</text>
</g>
<!-- boolean_literal_cleanup&#45;&gt;statement_cleanup -->
<g id="edge4" class="edge">
<title>boolean_literal_cleanup&#45;&gt;statement_cleanup</title>
<path fill="none" stroke="#000000" d="M279.408,-653.1824C315.3479,-621.0161 391.1202,-553.2 431.9868,-516.6243"/>
<polygon fill="#000000" stroke="#000000" points="434.5553,-519.0226 439.6726,-509.7456 429.8869,-513.8066 434.5553,-519.0226"/>
<text text-anchor="middle" x="337.5" y="-623.8" font-family="Times,serif" font-size="14.00" fill="#000000">Parent</text>
</g>
<!-- boolean_expression_simplify&#45;&gt;boolean_literal_cleanup -->
<g id="edge5" class="edge">
<title>boolean_expression_simplify&#45;&gt;boolean_literal_cleanup</title>
<path fill="none" stroke="#000000" d="M170.2407,-601.7864C178.5036,-613.6819 187.6111,-625.0574 197.5,-635 202.3358,-639.862 207.9617,-644.2987 213.8137,-648.2679"/>
<polygon fill="#000000" stroke="#000000" points="212.1598,-651.3629 222.4836,-653.7439 215.8978,-645.4446 212.1598,-651.3629"/>
<text text-anchor="middle" x="221.5" y="-623.8" font-family="Times,serif" font-size="14.00" fill="#000000">Parent</text>
</g>
<!-- delete_parent_assignment -->
<g id="node5" class="node">
<title>delete_parent_assignment</title>
<ellipse fill="none" stroke="#000000" cx="459.5" cy="-296" rx="133.7763" ry="18"/>
<text text-anchor="middle" x="459.5" y="-292.3" font-family="Times,serif" font-size="14.00" fill="#000000">delete_parent_assignment</text>
</g>
<!-- statement_cleanup&#45;&gt;delete_parent_assignment -->
<g id="edge7" class="edge">
<title>statement_cleanup&#45;&gt;delete_parent_assignment</title>
<path fill="none" stroke="#000000" d="M459.5,-473.9121C459.5,-439.6363 459.5,-365.006 459.5,-324.1384"/>
<polygon fill="#000000" stroke="#000000" points="463.0001,-324.0441 459.5,-314.0442 456.0001,-324.0442 463.0001,-324.0441"/>
<text text-anchor="middle" x="521.5" y="-352.8" font-family="Times,serif" font-size="14.00" fill="#000000">Function&#45;Method</text>
</g>
<!-- delete_variable_declaration -->
<g id="node6" class="node">
<title>delete_variable_declaration</title>
<ellipse fill="none" stroke="#000000" cx="459.5" cy="-192" rx="139.9756" ry="18"/>
<text text-anchor="middle" x="459.5" y="-188.3" font-family="Times,serif" font-size="14.00" fill="#000000">delete_variable_declaration</text>
</g>
<!-- statement_cleanup&#45;&gt;delete_variable_declaration -->
<g id="edge8" class="edge">
<title>statement_cleanup&#45;&gt;delete_variable_declaration</title>
<path fill="none" stroke="#000000" d="M481.855,-474.0506C509.5134,-450.9376 556.7109,-408.4287 587.5,-364 613.8498,-325.9772 612.2934,-306.2122 602.5,-261 599.0894,-245.2544 599.7265,-238.4913 587.5,-228 579.9317,-221.5057 562.8913,-215.2944 543.6348,-209.9147"/>
<polygon fill="#000000" stroke="#000000" points="544.2848,-206.4656 533.7199,-207.2619 542.4755,-213.2277 544.2848,-206.4656"/>
<text text-anchor="middle" x="671.5" y="-292.3" font-family="Times,serif" font-size="14.00" fill="#000000">Function&#45;Method</text>
</g>
<!-- if_cleanup -->
<g id="node8" class="node">
<title>if_cleanup</title>
<polygon fill="none" stroke="#000000" points="771.5,-261.5 771.5,-330.5 983.5,-330.5 983.5,-261.5 771.5,-261.5"/>
<text text-anchor="middle" x="877.5" y="-315.3" font-family="Times,serif" font-size="14.00" fill="#000000">if_cleanup</text>
<text text-anchor="middle" x="877.5" y="-284.3" font-family="Times,serif" font-size="14.00" fill="#000000">simplify_if_statement_true</text>
<text text-anchor="middle" x="877.5" y="-269.3" font-family="Times,serif" font-size="14.00" fill="#000000">simplify_if_statement_false</text>
</g>
<!-- statement_cleanup&#45;&gt;if_cleanup -->
<g id="edge6" class="edge">
<title>statement_cleanup&#45;&gt;if_cleanup</title>
<path fill="none" stroke="#000000" d="M495.5002,-475.1195C561.5523,-444.1477 703.6627,-377.5122 794.7022,-334.8238"/>
<polygon fill="#000000" stroke="#000000" points="796.328,-337.9272 803.8962,-330.5128 793.3562,-331.5894 796.328,-337.9272"/>
<text text-anchor="middle" x="778.5" y="-352.8" font-family="Times,serif" font-size="14.00" fill="#000000">Parent</text>
</g>
<!-- delete_parent_assignment&#45;&gt;delete_variable_declaration -->
<g id="edge9" class="edge">
<title>delete_parent_assignment&#45;&gt;delete_variable_declaration</title>
<path fill="none" stroke="#000000" d="M459.5,-277.8846C459.5,-262.0251 459.5,-238.7173 459.5,-220.3831"/>
<polygon fill="#000000" stroke="#000000" points="463.0001,-220.2567 459.5,-210.2568 456.0001,-220.2568 463.0001,-220.2567"/>
<text text-anchor="middle" x="521.5" y="-231.8" font-family="Times,serif" font-size="14.00" fill="#000000">Function&#45;Method</text>
</g>
<!-- replace_identifier_with_value -->
<g id="node7" class="node">
<title>replace_identifier_with_value</title>
<ellipse fill="none" stroke="#000000" cx="318.5" cy="-105" rx="148.3739" ry="18"/>
<text text-anchor="middle" x="318.5" y="-101.3" font-family="Times,serif" font-size="14.00" fill="#000000">replace_identifier_with_value</text>
</g>
<!-- delete_variable_declaration&#45;&gt;replace_identifier_with_value -->
<g id="edge10" class="edge">
<title>delete_variable_declaration&#45;&gt;replace_identifier_with_value</title>
<path fill="none" stroke="#000000" d="M430.6263,-174.1843C409.0508,-160.8717 379.3716,-142.559 355.9676,-128.1183"/>
<polygon fill="#000000" stroke="#000000" points="357.6834,-125.0644 347.3351,-122.7919 354.0076,-131.0216 357.6834,-125.0644"/>
<text text-anchor="middle" x="459.5" y="-144.8" font-family="Times,serif" font-size="14.00" fill="#000000">Function&#45;Method</text>
</g>
<!-- replace_identifier_with_value&#45;&gt;boolean_literal_cleanup -->
<g id="edge11" class="edge">
<title>replace_identifier_with_value&#45;&gt;boolean_literal_cleanup</title>
<path fill="none" stroke="#000000" d="M296.8656,-122.9939C280.027,-139.1258 259.5,-164.4428 259.5,-192 259.5,-492 259.5,-492 259.5,-492 259.5,-545.3688 259.5,-607.6881 259.5,-642.9321"/>
<polygon fill="#000000" stroke="#000000" points="256.0001,-642.9607 259.5,-652.9607 263.0001,-642.9608 256.0001,-642.9607"/>
<text text-anchor="middle" x="283.5" y="-292.3" font-family="Times,serif" font-size="14.00" fill="#000000">Parent</text>
</g>
<!-- remove_unnecessary_nested_block -->
<g id="node9" class="node">
<title>remove_unnecessary_nested_block</title>
<ellipse fill="none" stroke="#000000" cx="877.5" cy="-192" rx="174.6691" ry="18"/>
<text text-anchor="middle" x="877.5" y="-188.3" font-family="Times,serif" font-size="14.00" fill="#000000">remove_unnecessary_nested_block</text>
</g>
<!-- if_cleanup&#45;&gt;remove_unnecessary_nested_block -->
<g id="edge12" class="edge">
<title>if_cleanup&#45;&gt;remove_unnecessary_nested_block</title>
<path fill="none" stroke="#000000" d="M877.5,-261.3695C877.5,-247.9821 877.5,-232.8594 877.5,-220.1586"/>
<polygon fill="#000000" stroke="#000000" points="881.0001,-220.1507 877.5,-210.1507 874.0001,-220.1508 881.0001,-220.1507"/>
<text text-anchor="middle" x="901.5" y="-231.8" font-family="Times,serif" font-size="14.00" fill="#000000">Parent</text>
</g>
<!-- return_cleanup -->
<g id="node10" class="node">
<title>return_cleanup</title>
<ellipse fill="none" stroke="#000000" cx="877.5" cy="-105" rx="81.7856" ry="18"/>
<text text-anchor="middle" x="877.5" y="-101.3" font-family="Times,serif" font-size="14.00" fill="#000000">return_cleanup</text>
</g>
<!-- remove_unnecessary_nested_block&#45;&gt;return_cleanup -->
<g id="edge13" class="edge">
<title>remove_unnecessary_nested_block&#45;&gt;return_cleanup</title>
<path fill="none" stroke="#000000" d="M877.5,-173.9735C877.5,-162.1918 877.5,-146.5607 877.5,-133.1581"/>
<polygon fill="#000000" stroke="#000000" points="881.0001,-133.0033 877.5,-123.0034 874.0001,-133.0034 881.0001,-133.0033"/>
<text text-anchor="middle" x="901.5" y="-144.8" font-family="Times,serif" font-size="14.00" fill="#000000">Parent</text>
</g>
<!-- delete_statement_after_return -->
<g id="node11" class="node">
<title>delete_statement_after_return</title>
<ellipse fill="none" stroke="#000000" cx="876.5" cy="-18" rx="153.2729" ry="18"/>
<text text-anchor="middle" x="876.5" y="-14.3" font-family="Times,serif" font-size="14.00" fill="#000000">delete_statement_after_return</text>
</g>
<!-- return_cleanup&#45;&gt;delete_statement_after_return -->
<g id="edge14" class="edge">
<title>return_cleanup&#45;&gt;delete_statement_after_return</title>
<path fill="none" stroke="#000000" d="M855.4265,-87.6476C850.1952,-82.2878 845.32,-75.946 842.5,-69 838.9724,-60.3111 841.9025,-51.5608 847.2623,-43.821"/>
<polygon fill="#000000" stroke="#000000" points="850.1629,-45.8056 853.8413,-35.8698 844.7697,-41.3431 850.1629,-45.8056"/>
<text text-anchor="middle" x="866.5" y="-57.8" font-family="Times,serif" font-size="14.00" fill="#000000">Parent</text>
</g>
<!-- delete_statement_after_return&#45;&gt;return_cleanup -->
<g id="edge15" class="edge">
<title>delete_statement_after_return&#45;&gt;return_cleanup</title>
<path fill="none" stroke="#000000" d="M885.1219,-36.2976C887.3265,-41.8576 889.3872,-48.0681 890.5,-54 891.9131,-61.5325 891.0047,-69.6038 889.1444,-77.0522"/>
<polygon fill="#000000" stroke="#000000" points="885.7673,-76.126 886.1462,-86.714 892.4528,-78.2007 885.7673,-76.126"/>
<text text-anchor="middle" x="914.5" y="-57.8" font-family="Times,serif" font-size="14.00" fill="#000000">Parent</text>
</g>
</g>
</svg>
