<?xml version="1.0" encoding="UTF-8" standalone="no"?>
<!DOCTYPE svg PUBLIC "-//W3C//DTD SVG 1.1//EN"
 "http://www.w3.org/Graphics/SVG/1.1/DTD/svg11.dtd">
<!-- Generated by graphviz version 2.40.1 (20161225.0304)
 -->
<!-- Title: %3 Pages: 1 -->
<svg width="1060pt" height="738pt"
 viewBox="0.00 0.00 1060.33 738.00" xmlns="http://www.w3.org/2000/svg" xmlns:xlink="http://www.w3.org/1999/xlink">
<g id="graph0" class="graph" transform="scale(1 1) rotate(0) translate(4 734)">
<title>%3</title>
<polygon fill="#ffffff" stroke="transparent" points="-4,4 -4,-734 1056.3345,-734 1056.3345,4 -4,4"/>
<text text-anchor="middle" x="526.1672" y="-702" font-family="Times,serif" font-size="30.00" fill="#000000">Go Built&#45;in Rules</text>
<!-- replace_expression_with_boolean_literal -->
<g id="node1" class="node">
<title>replace_expression_with_boolean_literal</title>
<ellipse fill="none" stroke="#000000" cx="358.5" cy="-671" rx="199.5646" ry="18"/>
<text text-anchor="middle" x="358.5" y="-667.3" font-family="Times,serif" font-size="14.00" fill="#000000">replace_expression_with_boolean_literal</text>
</g>
<!-- boolean_literal_cleanup -->
<g id="node2" class="node">
<title>boolean_literal_cleanup</title>
<ellipse fill="none" stroke="#000000" cx="259.5" cy="-584" rx="120.7786" ry="18"/>
<text text-anchor="middle" x="259.5" y="-580.3" font-family="Times,serif" font-size="14.00" fill="#000000">boolean_literal_cleanup</text>
</g>
<!-- replace_expression_with_boolean_literal&#45;&gt;boolean_literal_cleanup -->
<g id="edge1" class="edge">
<title>replace_expression_with_boolean_literal&#45;&gt;boolean_literal_cleanup</title>
<path fill="none" stroke="#000000" d="M337.9871,-652.9735C323.3856,-640.1419 303.5884,-622.7443 287.5302,-608.6326"/>
<polygon fill="#000000" stroke="#000000" points="289.8087,-605.9755 279.9866,-602.0034 285.1878,-611.2336 289.8087,-605.9755"/>
<text text-anchor="middle" x="339.5" y="-623.8" font-family="Times,serif" font-size="14.00" fill="#000000">Parent</text>
</g>
<!-- statement_cleanup -->
<g id="node4" class="node">
<title>statement_cleanup</title>
<ellipse fill="none" stroke="#000000" cx="459.5" cy="-405" rx="99.3824" ry="18"/>
<text text-anchor="middle" x="459.5" y="-401.3" font-family="Times,serif" font-size="14.00" fill="#000000">statement_cleanup</text>
</g>
<!-- replace_expression_with_boolean_literal&#45;&gt;statement_cleanup -->
<g id="edge2" class="edge">
<title>replace_expression_with_boolean_literal&#45;&gt;statement_cleanup</title>
<path fill="none" stroke="#000000" d="M367.0626,-653.0121C373.5256,-639.1875 382.4533,-619.5491 389.5,-602 413.3597,-542.5795 437.5769,-471.5025 450.3284,-433.0522"/>
<polygon fill="#000000" stroke="#000000" points="453.7995,-433.7023 453.6111,-423.1092 447.1524,-431.5077 453.7995,-433.7023"/>
<text text-anchor="middle" x="427.5" y="-580.3" font-family="Times,serif" font-size="14.00" fill="#000000">Parent</text>
</g>
<!-- boolean_expression_simplify -->
<g id="node3" class="node">
<title>boolean_expression_simplify</title>
<polygon fill="none" stroke="#000000" points="0,-295.5 0,-514.5 231,-514.5 231,-295.5 0,-295.5"/>
<text text-anchor="middle" x="115.5" y="-499.3" font-family="Times,serif" font-size="14.00" fill="#000000">boolean_expression_simplify</text>
<text text-anchor="middle" x="115.5" y="-468.3" font-family="Times,serif" font-size="14.00" fill="#000000">simplify_not_false</text>
<text text-anchor="middle" x="115.5" y="-453.3" font-family="Times,serif" font-size="14.00" fill="#000000">simplify_not_true</text>
<text text-anchor="middle" x="115.5" y="-438.3" font-family="Times,serif" font-size="14.00" fill="#000000">simplify_true_and_something</text>
<text text-anchor="middle" x="115.5" y="-423.3" font-family="Times,serif" font-size="14.00" fill="#000000">simplify_something_and_true</text>
<text text-anchor="middle" x="115.5" y="-408.3" font-family="Times,serif" font-size="14.00" fill="#000000">simplify_false_and_something</text>
<text text-anchor="middle" x="115.5" y="-393.3" font-family="Times,serif" font-size="14.00" fill="#000000">simplify_something_and_false</text>
<text text-anchor="middle" x="115.5" y="-378.3" font-family="Times,serif" font-size="14.00" fill="#000000">simplify_something_or_true</text>
<text text-anchor="middle" x="115.5" y="-363.3" font-family="Times,serif" font-size="14.00" fill="#000000">simplify_true_or_something</text>
<text text-anchor="middle" x="115.5" y="-348.3" font-family="Times,serif" font-size="14.00" fill="#000000">simplify_something_or_false</text>
<text text-anchor="middle" x="115.5" y="-333.3" font-family="Times,serif" font-size="14.00" fill="#000000">simplify_false_or_something</text>
<text text-anchor="middle" x="115.5" y="-318.3" font-family="Times,serif" font-size="14.00" fill="#000000">simplify_identity_equal</text>
<text text-anchor="middle" x="115.5" y="-303.3" font-family="Times,serif" font-size="14.00" fill="#000000">simplify_identity_not_equal</text>
</g>
<!-- boolean_literal_cleanup&#45;&gt;boolean_expression_simplify -->
<g id="edge3" class="edge">
<title>boolean_literal_cleanup&#45;&gt;boolean_expression_simplify</title>
<path fill="none" stroke="#000000" d="M189.967,-569.17C159.3139,-561.9592 129.1317,-553.6518 124.5,-548 118.7147,-540.9406 114.4029,-532.9672 111.2611,-524.4868"/>
<polygon fill="#000000" stroke="#000000" points="114.5291,-523.2113 108.1947,-514.7185 107.8504,-525.3078 114.5291,-523.2113"/>
<text text-anchor="middle" x="148.5" y="-536.8" font-family="Times,serif" font-size="14.00" fill="#000000">Parent</text>
</g>
<!-- boolean_literal_cleanup&#45;&gt;statement_cleanup -->
<g id="edge4" class="edge">
<title>boolean_literal_cleanup&#45;&gt;statement_cleanup</title>
<path fill="none" stroke="#000000" d="M279.408,-566.1824C315.3479,-534.0161 391.1202,-466.2 431.9868,-429.6243"/>
<polygon fill="#000000" stroke="#000000" points="434.5553,-432.0226 439.6726,-422.7456 429.8869,-426.8066 434.5553,-432.0226"/>
<text text-anchor="middle" x="337.5" y="-536.8" font-family="Times,serif" font-size="14.00" fill="#000000">Parent</text>
</g>
<!-- boolean_expression_simplify&#45;&gt;boolean_literal_cleanup -->
<g id="edge5" class="edge">
<title>boolean_expression_simplify&#45;&gt;boolean_literal_cleanup</title>
<path fill="none" stroke="#000000" d="M170.2407,-514.7864C178.5036,-526.6819 187.6111,-538.0574 197.5,-548 202.3358,-552.862 207.9617,-557.2987 213.8137,-561.2679"/>
<polygon fill="#000000" stroke="#000000" points="212.1598,-564.3629 222.4836,-566.7439 215.8978,-558.4446 212.1598,-564.3629"/>
<text text-anchor="middle" x="221.5" y="-536.8" font-family="Times,serif" font-size="14.00" fill="#000000">Parent</text>
</g>
<!-- delete_parent_assignment -->
<g id="node5" class="node">
<title>delete_parent_assignment</title>
<ellipse fill="none" stroke="#000000" cx="459.5" cy="-209" rx="133.7763" ry="18"/>
<text text-anchor="middle" x="459.5" y="-205.3" font-family="Times,serif" font-size="14.00" fill="#000000">delete_parent_assignment</text>
</g>
<!-- statement_cleanup&#45;&gt;delete_parent_assignment -->
<g id="edge7" class="edge">
<title>statement_cleanup&#45;&gt;delete_parent_assignment</title>
<path fill="none" stroke="#000000" d="M459.5,-386.9121C459.5,-352.6363 459.5,-278.006 459.5,-237.1384"/>
<polygon fill="#000000" stroke="#000000" points="463.0001,-237.0441 459.5,-227.0442 456.0001,-237.0442 463.0001,-237.0441"/>
<text text-anchor="middle" x="521.5" y="-265.8" font-family="Times,serif" font-size="14.00" fill="#000000">Function&#45;Method</text>
</g>
<!-- delete_variable_declaration -->
<g id="node6" class="node">
<title>delete_variable_declaration</title>
<ellipse fill="none" stroke="#000000" cx="459.5" cy="-105" rx="139.9756" ry="18"/>
<text text-anchor="middle" x="459.5" y="-101.3" font-family="Times,serif" font-size="14.00" fill="#000000">delete_variable_declaration</text>
</g>
<!-- statement_cleanup&#45;&gt;delete_variable_declaration -->
<g id="edge8" class="edge">
<title>statement_cleanup&#45;&gt;delete_variable_declaration</title>
<path fill="none" stroke="#000000" d="M481.855,-387.0506C509.5134,-363.9376 556.7109,-321.4287 587.5,-277 613.8498,-238.9772 612.2934,-219.2122 602.5,-174 599.0894,-158.2544 599.7265,-151.4913 587.5,-141 579.9317,-134.5057 562.8913,-128.2944 543.6348,-122.9147"/>
<polygon fill="#000000" stroke="#000000" points="544.2848,-119.4656 533.7199,-120.2619 542.4755,-126.2277 544.2848,-119.4656"/>
<text text-anchor="middle" x="670.5" y="-205.3" font-family="Times,serif" font-size="14.00" fill="#000000">Function&#45;Method</text>
</g>
<!-- if_cleanup -->
<g id="node8" class="node">
<title>if_cleanup</title>
<polygon fill="none" stroke="#000000" points="771.5,-174.5 771.5,-243.5 983.5,-243.5 983.5,-174.5 771.5,-174.5"/>
<text text-anchor="middle" x="877.5" y="-228.3" font-family="Times,serif" font-size="14.00" fill="#000000">if_cleanup</text>
<text text-anchor="middle" x="877.5" y="-197.3" font-family="Times,serif" font-size="14.00" fill="#000000">simplify_if_statement_true</text>
<text text-anchor="middle" x="877.5" y="-182.3" font-family="Times,serif" font-size="14.00" fill="#000000">simplify_if_statement_false</text>
</g>
<!-- statement_cleanup&#45;&gt;if_cleanup -->
<g id="edge6" class="edge">
<title>statement_cleanup&#45;&gt;if_cleanup</title>
<path fill="none" stroke="#000000" d="M495.5002,-388.1195C561.5523,-357.1477 703.6627,-290.5122 794.7022,-247.8238"/>
<polygon fill="#000000" stroke="#000000" points="796.328,-250.9272 803.8962,-243.5128 793.3562,-244.5894 796.328,-250.9272"/>
<text text-anchor="middle" x="777.5" y="-265.8" font-family="Times,serif" font-size="14.00" fill="#000000">Parent</text>
</g>
<!-- delete_parent_assignment&#45;&gt;delete_variable_declaration -->
<g id="edge9" class="edge">
<title>delete_parent_assignment&#45;&gt;delete_variable_declaration</title>
<path fill="none" stroke="#000000" d="M459.5,-190.8846C459.5,-175.0251 459.5,-151.7173 459.5,-133.3831"/>
<polygon fill="#000000" stroke="#000000" points="463.0001,-133.2567 459.5,-123.2568 456.0001,-133.2568 463.0001,-133.2567"/>
<text text-anchor="middle" x="521.5" y="-144.8" font-family="Times,serif" font-size="14.00" fill="#000000">Function&#45;Method</text>
</g>
<!-- replace_identifier_with_value -->
<g id="node7" class="node">
<title>replace_identifier_with_value</title>
<ellipse fill="none" stroke="#000000" cx="318.5" cy="-18" rx="148.3739" ry="18"/>
<text text-anchor="middle" x="318.5" y="-14.3" font-family="Times,serif" font-size="14.00" fill="#000000">replace_identifier_with_value</text>
</g>
<!-- delete_variable_declaration&#45;&gt;replace_identifier_with_value -->
<g id="edge10" class="edge">
<title>delete_variable_declaration&#45;&gt;replace_identifier_with_value</title>
<path fill="none" stroke="#000000" d="M430.6263,-87.1843C409.0508,-73.8717 379.3716,-55.559 355.9676,-41.1183"/>
<polygon fill="#000000" stroke="#000000" points="357.6834,-38.0644 347.3351,-35.7919 354.0076,-44.0216 357.6834,-38.0644"/>
<text text-anchor="middle" x="459.5" y="-57.8" font-family="Times,serif" font-size="14.00" fill="#000000">Function&#45;Method</text>
</g>
<!-- replace_identifier_with_value&#45;&gt;boolean_literal_cleanup -->
<g id="edge11" class="edge">
<title>replace_identifier_with_value&#45;&gt;boolean_literal_cleanup</title>
<path fill="none" stroke="#000000" d="M296.8656,-35.9939C280.027,-52.1258 259.5,-77.4428 259.5,-105 259.5,-405 259.5,-405 259.5,-405 259.5,-458.3688 259.5,-520.6881 259.5,-555.9321"/>
<polygon fill="#000000" stroke="#000000" points="256.0001,-555.9607 259.5,-565.9607 263.0001,-555.9608 256.0001,-555.9607"/>
<text text-anchor="middle" x="283.5" y="-205.3" font-family="Times,serif" font-size="14.00" fill="#000000">Parent</text>
</g>
<!-- remove_unnecessary_nested_block -->
<g id="node9" class="node">
<title>remove_unnecessary_nested_block</title>
<ellipse fill="none" stroke="#000000" cx="877.5" cy="-105" rx="174.6691" ry="18"/>
<text text-anchor="middle" x="877.5" y="-101.3" font-family="Times,serif" font-size="14.00" fill="#000000">remove_unnecessary_nested_block</text>
</g>
<!-- if_cleanup&#45;&gt;remove_unnecessary_nested_block -->
<g id="edge12" class="edge">
<title>if_cleanup&#45;&gt;remove_unnecessary_nested_block</title>
<path fill="none" stroke="#000000" d="M877.5,-174.3695C877.5,-160.9821 877.5,-145.8594 877.5,-133.1586"/>
<polygon fill="#000000" stroke="#000000" points="881.0001,-133.1507 877.5,-123.1507 874.0001,-133.1508 881.0001,-133.1507"/>
<text text-anchor="middle" x="901.5" y="-144.8" font-family="Times,serif" font-size="14.00" fill="#000000">Parent</text>
</g>
<!-- delete_all_statements_after_return -->
<g id="node10" class="node">
<title>delete_all_statements_after_return</title>
<ellipse fill="none" stroke="#000000" cx="877.5" cy="-18" rx="174.6691" ry="18"/>
<text text-anchor="middle" x="877.5" y="-14.3" font-family="Times,serif" font-size="14.00" fill="#000000">delete_all_statements_after_return</text>
</g>
<!-- remove_unnecessary_nested_block&#45;&gt;delete_all_statements_after_return -->
<g id="edge13" class="edge">
<title>remove_unnecessary_nested_block&#45;&gt;delete_all_statements_after_return</title>
<path fill="none" stroke="#000000" d="M877.5,-86.9735C877.5,-75.1918 877.5,-59.5607 877.5,-46.1581"/>
<polygon fill="#000000" stroke="#000000" points="881.0001,-46.0033 877.5,-36.0034 874.0001,-46.0034 881.0001,-46.0033"/>
<text text-anchor="middle" x="901.5" y="-57.8" font-family="Times,serif" font-size="14.00" fill="#000000">Parent</text>
</g>
</g>
</svg>
