<?xml version="1.0" encoding="UTF-8" standalone="no"?>
<!DOCTYPE svg PUBLIC "-//W3C//DTD SVG 1.1//EN"
 "http://www.w3.org/Graphics/SVG/1.1/DTD/svg11.dtd">
<!-- Generated by graphviz version 2.40.1 (20161225.0304)
 -->
<!-- Title: %3 Pages: 1 -->
<svg width="1376pt" height="922pt"
 viewBox="0.00 0.00 1376.28 922.00" xmlns="http://www.w3.org/2000/svg" xmlns:xlink="http://www.w3.org/1999/xlink">
<g id="graph0" class="graph" transform="scale(1 1) rotate(0) translate(4 918)">
<title>%3</title>
<polygon fill="#ffffff" stroke="transparent" points="-4,4 -4,-918 1372.2832,-918 1372.2832,4 -4,4"/>
<text text-anchor="middle" x="684.1416" y="-886" font-family="Times,serif" font-size="30.00" fill="#000000">Go Const Same File</text>
<!-- replace_expression_with_boolean_literal -->
<g id="node1" class="node">
<title>replace_expression_with_boolean_literal</title>
<polygon fill="none" stroke="#000000" points="211,-644.5 211,-698.5 518,-698.5 518,-644.5 211,-644.5"/>
<text text-anchor="middle" x="364.5" y="-683.3" font-family="Times,serif" font-size="14.00" fill="#000000">replace_expression_with_boolean_literal</text>
<text text-anchor="middle" x="364.5" y="-652.3" font-family="Times,serif" font-size="14.00" fill="#000000">false_flag</text>
</g>
<!-- boolean_literal_cleanup -->
<g id="node2" class="node">
<title>boolean_literal_cleanup</title>
<ellipse fill="none" stroke="#000000" cx="259.5" cy="-575" rx="120.7786" ry="18"/>
<text text-anchor="middle" x="259.5" y="-571.3" font-family="Times,serif" font-size="14.00" fill="#000000">boolean_literal_cleanup</text>
</g>
<!-- replace_expression_with_boolean_literal&#45;&gt;boolean_literal_cleanup -->
<g id="edge1" class="edge">
<title>replace_expression_with_boolean_literal&#45;&gt;boolean_literal_cleanup</title>
<path fill="none" stroke="#000000" d="M334.9722,-644.3626C319.6829,-630.3109 301.1556,-613.2835 286.2842,-599.6159"/>
<polygon fill="#000000" stroke="#000000" points="288.6084,-596.9983 278.8772,-592.8085 283.8716,-602.1523 288.6084,-596.9983"/>
<text text-anchor="middle" x="336.5" y="-614.8" font-family="Times,serif" font-size="14.00" fill="#000000">Parent</text>
</g>
<!-- statement_cleanup -->
<g id="node4" class="node">
<title>statement_cleanup</title>
<ellipse fill="none" stroke="#000000" cx="523.5" cy="-411" rx="99.3824" ry="18"/>
<text text-anchor="middle" x="523.5" y="-407.3" font-family="Times,serif" font-size="14.00" fill="#000000">statement_cleanup</text>
</g>
<!-- replace_expression_with_boolean_literal&#45;&gt;statement_cleanup -->
<g id="edge2" class="edge">
<title>replace_expression_with_boolean_literal&#45;&gt;statement_cleanup</title>
<path fill="none" stroke="#000000" d="M381.2153,-644.1143C411.9148,-593.8173 476.9081,-487.3345 507.2542,-437.6166"/>
<polygon fill="#000000" stroke="#000000" points="510.2788,-439.3792 512.5012,-429.0201 504.3038,-435.7323 510.2788,-439.3792"/>
<text text-anchor="middle" x="494.5" y="-571.3" font-family="Times,serif" font-size="14.00" fill="#000000">Function&#45;Method</text>
</g>
<!-- boolean_expression_simplify -->
<g id="node3" class="node">
<title>boolean_expression_simplify</title>
<polygon fill="none" stroke="#000000" points="0,-316.5 0,-505.5 231,-505.5 231,-316.5 0,-316.5"/>
<text text-anchor="middle" x="115.5" y="-490.3" font-family="Times,serif" font-size="14.00" fill="#000000">boolean_expression_simplify</text>
<text text-anchor="middle" x="115.5" y="-459.3" font-family="Times,serif" font-size="14.00" fill="#000000">simplify_not_false</text>
<text text-anchor="middle" x="115.5" y="-444.3" font-family="Times,serif" font-size="14.00" fill="#000000">simplify_not_true</text>
<text text-anchor="middle" x="115.5" y="-429.3" font-family="Times,serif" font-size="14.00" fill="#000000">simplify_true_and_something</text>
<text text-anchor="middle" x="115.5" y="-414.3" font-family="Times,serif" font-size="14.00" fill="#000000">simplify_something_and_true</text>
<text text-anchor="middle" x="115.5" y="-399.3" font-family="Times,serif" font-size="14.00" fill="#000000">simplify_false_and_something</text>
<text text-anchor="middle" x="115.5" y="-384.3" font-family="Times,serif" font-size="14.00" fill="#000000">simplify_something_and_false</text>
<text text-anchor="middle" x="115.5" y="-369.3" font-family="Times,serif" font-size="14.00" fill="#000000">simplify_something_or_true</text>
<text text-anchor="middle" x="115.5" y="-354.3" font-family="Times,serif" font-size="14.00" fill="#000000">simplify_true_or_something</text>
<text text-anchor="middle" x="115.5" y="-339.3" font-family="Times,serif" font-size="14.00" fill="#000000">simplify_something_or_false</text>
<text text-anchor="middle" x="115.5" y="-324.3" font-family="Times,serif" font-size="14.00" fill="#000000">simplify_false_or_something</text>
</g>
<!-- boolean_literal_cleanup&#45;&gt;boolean_expression_simplify -->
<g id="edge3" class="edge">
<title>boolean_literal_cleanup&#45;&gt;boolean_expression_simplify</title>
<path fill="none" stroke="#000000" d="M223.0503,-557.6861C214.1038,-552.4394 204.9629,-546.1437 197.5,-539 189.4638,-531.3075 181.8509,-522.6779 174.7397,-513.6284"/>
<polygon fill="#000000" stroke="#000000" points="177.4599,-511.4232 168.6216,-505.5806 171.8874,-515.6596 177.4599,-511.4232"/>
<text text-anchor="middle" x="221.5" y="-527.8" font-family="Times,serif" font-size="14.00" fill="#000000">Parent</text>
</g>
<!-- boolean_literal_cleanup&#45;&gt;statement_cleanup -->
<g id="edge4" class="edge">
<title>boolean_literal_cleanup&#45;&gt;statement_cleanup</title>
<path fill="none" stroke="#000000" d="M287.7526,-557.4491C335.7864,-527.61 433.3338,-467.0123 486.6581,-433.8867"/>
<polygon fill="#000000" stroke="#000000" points="488.803,-436.6746 495.4505,-428.4247 485.1092,-430.7285 488.803,-436.6746"/>
<text text-anchor="middle" x="362.5" y="-527.8" font-family="Times,serif" font-size="14.00" fill="#000000">Parent</text>
</g>
<!-- boolean_expression_simplify&#45;&gt;boolean_literal_cleanup -->
<g id="edge5" class="edge">
<title>boolean_expression_simplify&#45;&gt;boolean_literal_cleanup</title>
<path fill="none" stroke="#000000" d="M114.4705,-505.5723C117.8583,-517.8156 123.2475,-529.4083 131.5,-539 137.9399,-546.4849 154.3693,-552.9874 173.3927,-558.3283"/>
<polygon fill="#000000" stroke="#000000" points="172.658,-561.7544 183.2211,-560.935 174.4526,-554.9883 172.658,-561.7544"/>
<text text-anchor="middle" x="155.5" y="-527.8" font-family="Times,serif" font-size="14.00" fill="#000000">Parent</text>
</g>
<!-- delete_immediate_if_err -->
<g id="node5" class="node">
<title>delete_immediate_if_err</title>
<ellipse fill="none" stroke="#000000" cx="1031.5" cy="-230" rx="124.2781" ry="18"/>
<text text-anchor="middle" x="1031.5" y="-226.3" font-family="Times,serif" font-size="14.00" fill="#000000">delete_immediate_if_err</text>
</g>
<!-- statement_cleanup&#45;&gt;delete_immediate_if_err -->
<g id="edge7" class="edge">
<title>statement_cleanup&#45;&gt;delete_immediate_if_err</title>
<path fill="none" stroke="#000000" d="M568.5816,-394.9375C661.3827,-361.8725 873.563,-286.2728 975.2015,-250.0591"/>
<polygon fill="#000000" stroke="#000000" points="976.4395,-253.3336 984.6847,-246.6803 974.09,-246.7397 976.4395,-253.3336"/>
<text text-anchor="middle" x="942.5" y="-286.8" font-family="Times,serif" font-size="14.00" fill="#000000">Function&#45;Method</text>
</g>
<!-- delete_bool_blank_identifier_short_var_declaration -->
<g id="node7" class="node">
<title>delete_bool_blank_identifier_short_var_declaration</title>
<ellipse fill="none" stroke="#000000" cx="523.5" cy="-159" rx="248.8558" ry="18"/>
<text text-anchor="middle" x="523.5" y="-155.3" font-family="Times,serif" font-size="14.00" fill="#000000">delete_bool_blank_identifier_short_var_declaration</text>
</g>
<!-- statement_cleanup&#45;&gt;delete_bool_blank_identifier_short_var_declaration -->
<g id="edge8" class="edge">
<title>statement_cleanup&#45;&gt;delete_bool_blank_identifier_short_var_declaration</title>
<path fill="none" stroke="#000000" d="M523.5,-392.8768C523.5,-349.5739 523.5,-239.8207 523.5,-187.5374"/>
<polygon fill="#000000" stroke="#000000" points="527.0001,-187.2976 523.5,-177.2976 520.0001,-187.2976 527.0001,-187.2976"/>
<text text-anchor="middle" x="585.5" y="-286.8" font-family="Times,serif" font-size="14.00" fill="#000000">Function&#45;Method</text>
</g>
<!-- if_cleanup -->
<g id="node9" class="node">
<title>if_cleanup</title>
<polygon fill="none" stroke="#000000" points="612.5,-195.5 612.5,-264.5 824.5,-264.5 824.5,-195.5 612.5,-195.5"/>
<text text-anchor="middle" x="718.5" y="-249.3" font-family="Times,serif" font-size="14.00" fill="#000000">if_cleanup</text>
<text text-anchor="middle" x="718.5" y="-218.3" font-family="Times,serif" font-size="14.00" fill="#000000">simplify_if_statement_true</text>
<text text-anchor="middle" x="718.5" y="-203.3" font-family="Times,serif" font-size="14.00" fill="#000000">simplify_if_statement_false</text>
</g>
<!-- statement_cleanup&#45;&gt;if_cleanup -->
<g id="edge6" class="edge">
<title>statement_cleanup&#45;&gt;if_cleanup</title>
<path fill="none" stroke="#000000" d="M544.7408,-393.0398C570.4674,-371.1073 614.9049,-332.6443 651.5,-298 660.2445,-289.7216 669.4223,-280.6649 678.083,-271.9384"/>
<polygon fill="#000000" stroke="#000000" points="680.683,-274.2866 685.2155,-264.7102 675.7003,-269.3699 680.683,-274.2866"/>
<text text-anchor="middle" x="690.5" y="-286.8" font-family="Times,serif" font-size="14.00" fill="#000000">Parent</text>
</g>
<!-- delete_bool_err_short_var_declaration -->
<g id="node6" class="node">
<title>delete_bool_err_short_var_declaration</title>
<ellipse fill="none" stroke="#000000" cx="1178.5" cy="-105" rx="189.5666" ry="18"/>
<text text-anchor="middle" x="1178.5" y="-101.3" font-family="Times,serif" font-size="14.00" fill="#000000">delete_bool_err_short_var_declaration</text>
</g>
<!-- delete_immediate_if_err&#45;&gt;delete_bool_err_short_var_declaration -->
<g id="edge9" class="edge">
<title>delete_immediate_if_err&#45;&gt;delete_bool_err_short_var_declaration</title>
<path fill="none" stroke="#000000" d="M1052.5615,-212.0905C1077.9596,-190.4936 1120.7885,-154.0744 1149.3488,-129.7885"/>
<polygon fill="#000000" stroke="#000000" points="1151.6487,-132.4271 1156.9995,-123.2827 1147.1141,-127.0944 1151.6487,-132.4271"/>
<text text-anchor="middle" x="1196.5" y="-155.3" font-family="Times,serif" font-size="14.00" fill="#000000">Function&#45;Method</text>
</g>
<!-- replace_identifier_with_value -->
<g id="node8" class="node">
<title>replace_identifier_with_value</title>
<ellipse fill="none" stroke="#000000" cx="478.5" cy="-18" rx="148.3739" ry="18"/>
<text text-anchor="middle" x="478.5" y="-14.3" font-family="Times,serif" font-size="14.00" fill="#000000">replace_identifier_with_value</text>
</g>
<!-- delete_bool_err_short_var_declaration&#45;&gt;replace_identifier_with_value -->
<g id="edge10" class="edge">
<title>delete_bool_err_short_var_declaration&#45;&gt;replace_identifier_with_value</title>
<path fill="none" stroke="#000000" d="M1063.3014,-90.6825C932.903,-74.4758 721.803,-48.2391 592.0778,-32.1161"/>
<polygon fill="#000000" stroke="#000000" points="592.4629,-28.6371 582.1076,-30.8769 591.5995,-35.5837 592.4629,-28.6371"/>
<text text-anchor="middle" x="931.5" y="-57.8" font-family="Times,serif" font-size="14.00" fill="#000000">Function&#45;Method</text>
</g>
<!-- delete_bool_blank_identifier_short_var_declaration&#45;&gt;replace_identifier_with_value -->
<g id="edge11" class="edge">
<title>delete_bool_blank_identifier_short_var_declaration&#45;&gt;replace_identifier_with_value</title>
<path fill="none" stroke="#000000" d="M500.4518,-140.8222C495.3496,-135.6267 490.5573,-129.5715 487.5,-123 476.225,-98.7651 474.8878,-67.9951 475.8177,-46.0415"/>
<polygon fill="#000000" stroke="#000000" points="479.3124,-46.233 476.4227,-36.0398 472.3252,-45.8102 479.3124,-46.233"/>
<text text-anchor="middle" x="549.5" y="-101.3" font-family="Times,serif" font-size="14.00" fill="#000000">Function&#45;Method</text>
</g>
<!-- replace_identifier_with_value&#45;&gt;boolean_literal_cleanup -->
<g id="edge12" class="edge">
<title>replace_identifier_with_value&#45;&gt;boolean_literal_cleanup</title>
<path fill="none" stroke="#000000" d="M401.9044,-33.4255C338.7512,-48.4139 259.5,-73.4984 259.5,-105 259.5,-411 259.5,-411 259.5,-411 259.5,-458.5798 259.5,-513.9242 259.5,-546.622"/>
<polygon fill="#000000" stroke="#000000" points="256.0001,-546.7986 259.5,-556.7986 263.0001,-546.7987 256.0001,-546.7986"/>
<text text-anchor="middle" x="283.5" y="-226.3" font-family="Times,serif" font-size="14.00" fill="#000000">Parent</text>
</g>
<!-- remove_unnecessary_nested_block -->
<g id="node12" class="node">
<title>remove_unnecessary_nested_block</title>
<ellipse fill="none" stroke="#000000" cx="795.5" cy="-105" rx="174.6691" ry="18"/>
<text text-anchor="middle" x="795.5" y="-101.3" font-family="Times,serif" font-size="14.00" fill="#000000">remove_unnecessary_nested_block</text>
</g>
<!-- if_cleanup&#45;&gt;remove_unnecessary_nested_block -->
<g id="edge13" class="edge">
<title>if_cleanup&#45;&gt;remove_unnecessary_nested_block</title>
<path fill="none" stroke="#000000" d="M759.3697,-195.3921C764.6289,-189.6442 769.5478,-183.4429 773.5,-177 781.6692,-163.6826 787.006,-147.1045 790.3744,-133.2141"/>
<polygon fill="#000000" stroke="#000000" points="793.8438,-133.7337 792.5808,-123.2144 787.0083,-132.2254 793.8438,-133.7337"/>
<text text-anchor="middle" x="811.5" y="-155.3" font-family="Times,serif" font-size="14.00" fill="#000000">Parent</text>
</g>
<!-- delete_const_str_literal -->
<g id="node10" class="node">
<title>delete_const_str_literal</title>
<ellipse fill="none" stroke="#000000" cx="364.5" cy="-855" rx="120.4791" ry="18"/>
<text text-anchor="middle" x="364.5" y="-851.3" font-family="Times,serif" font-size="14.00" fill="#000000">delete_const_str_literal</text>
</g>
<!-- replace_identifier_with_str_literal -->
<g id="node11" class="node">
<title>replace_identifier_with_str_literal</title>
<ellipse fill="none" stroke="#000000" cx="364.5" cy="-768" rx="168.97" ry="18"/>
<text text-anchor="middle" x="364.5" y="-764.3" font-family="Times,serif" font-size="14.00" fill="#000000">replace_identifier_with_str_literal</text>
</g>
<!-- delete_const_str_literal&#45;&gt;replace_identifier_with_str_literal -->
<g id="edge14" class="edge">
<title>delete_const_str_literal&#45;&gt;replace_identifier_with_str_literal</title>
<path fill="none" stroke="#000000" d="M364.5,-836.9735C364.5,-825.1918 364.5,-809.5607 364.5,-796.1581"/>
<polygon fill="#000000" stroke="#000000" points="368.0001,-796.0033 364.5,-786.0034 361.0001,-796.0034 368.0001,-796.0033"/>
<text text-anchor="middle" x="378.5" y="-807.8" font-family="Times,serif" font-size="14.00" fill="#000000">File</text>
</g>
<!-- replace_identifier_with_str_literal&#45;&gt;replace_expression_with_boolean_literal -->
<g id="edge15" class="edge">
<title>replace_identifier_with_str_literal&#45;&gt;replace_expression_with_boolean_literal</title>
<path fill="none" stroke="#000000" d="M364.5,-749.8491C364.5,-738.3632 364.5,-723.0886 364.5,-709.0778"/>
<polygon fill="#000000" stroke="#000000" points="368.0001,-708.6937 364.5,-698.6937 361.0001,-708.6937 368.0001,-708.6937"/>
<text text-anchor="middle" x="378.5" y="-720.8" font-family="Times,serif" font-size="14.00" fill="#000000">File</text>
</g>
</g>
</svg>
