<?xml version="1.0" encoding="UTF-8" standalone="no"?>
<!DOCTYPE svg PUBLIC "-//W3C//DTD SVG 1.1//EN"
 "http://www.w3.org/Graphics/SVG/1.1/DTD/svg11.dtd">
<!-- Generated by graphviz version 2.40.1 (20161225.0304)
 -->
<!-- Title: %3 Pages: 1 -->
<svg width="1043pt" height="901pt"
 viewBox="0.00 0.00 1043.28 901.00" xmlns="http://www.w3.org/2000/svg" xmlns:xlink="http://www.w3.org/1999/xlink">
<g id="graph0" class="graph" transform="scale(1 1) rotate(0) translate(4 897)">
<title>%3</title>
<polygon fill="#ffffff" stroke="transparent" points="-4,4 -4,-897 1039.2832,-897 1039.2832,4 -4,4"/>
<text text-anchor="middle" x="517.6416" y="-865" font-family="Times,serif" font-size="30.00" fill="#000000">Go Const Same File</text>
<!-- replace_expression_with_boolean_literal -->
<g id="node1" class="node">
<title>replace_expression_with_boolean_literal</title>
<polygon fill="none" stroke="#000000" points="186,-623.5 186,-677.5 493,-677.5 493,-623.5 186,-623.5"/>
<text text-anchor="middle" x="339.5" y="-662.3" font-family="Times,serif" font-size="14.00" fill="#000000">replace_expression_with_boolean_literal</text>
<text text-anchor="middle" x="339.5" y="-631.3" font-family="Times,serif" font-size="14.00" fill="#000000">false_flag</text>
</g>
<!-- boolean_literal_cleanup -->
<g id="node2" class="node">
<title>boolean_literal_cleanup</title>
<ellipse fill="none" stroke="#000000" cx="259.5" cy="-554" rx="120.7786" ry="18"/>
<text text-anchor="middle" x="259.5" y="-550.3" font-family="Times,serif" font-size="14.00" fill="#000000">boolean_literal_cleanup</text>
</g>
<!-- replace_expression_with_boolean_literal&#45;&gt;boolean_literal_cleanup -->
<g id="edge1" class="edge">
<title>replace_expression_with_boolean_literal&#45;&gt;boolean_literal_cleanup</title>
<path fill="none" stroke="#000000" d="M317.0026,-623.3626C305.7508,-609.79 292.1973,-593.4411 281.0754,-580.0253"/>
<polygon fill="#000000" stroke="#000000" points="283.5838,-577.567 274.507,-572.1022 278.1948,-582.0346 283.5838,-577.567"/>
<text text-anchor="middle" x="323.5" y="-593.8" font-family="Times,serif" font-size="14.00" fill="#000000">Parent</text>
</g>
<!-- statement_cleanup -->
<g id="node4" class="node">
<title>statement_cleanup</title>
<ellipse fill="none" stroke="#000000" cx="427.5" cy="-390" rx="99.3824" ry="18"/>
<text text-anchor="middle" x="427.5" y="-386.3" font-family="Times,serif" font-size="14.00" fill="#000000">statement_cleanup</text>
</g>
<!-- replace_expression_with_boolean_literal&#45;&gt;statement_cleanup -->
<g id="edge2" class="edge">
<title>replace_expression_with_boolean_literal&#45;&gt;statement_cleanup</title>
<path fill="none" stroke="#000000" d="M360.4004,-623.1416C370.5571,-608.6368 382.1303,-590.1093 389.5,-572 410.6511,-520.0259 420.5992,-454.7143 424.806,-418.1457"/>
<polygon fill="#000000" stroke="#000000" points="428.2861,-418.5173 425.8892,-408.1971 421.3272,-417.7595 428.2861,-418.5173"/>
<text text-anchor="middle" x="463.5" y="-550.3" font-family="Times,serif" font-size="14.00" fill="#000000">Function&#45;Method</text>
</g>
<!-- boolean_expression_simplify -->
<g id="node3" class="node">
<title>boolean_expression_simplify</title>
<polygon fill="none" stroke="#000000" points="0,-295.5 0,-484.5 231,-484.5 231,-295.5 0,-295.5"/>
<text text-anchor="middle" x="115.5" y="-469.3" font-family="Times,serif" font-size="14.00" fill="#000000">boolean_expression_simplify</text>
<text text-anchor="middle" x="115.5" y="-438.3" font-family="Times,serif" font-size="14.00" fill="#000000">simplify_not_false</text>
<text text-anchor="middle" x="115.5" y="-423.3" font-family="Times,serif" font-size="14.00" fill="#000000">simplify_not_true</text>
<text text-anchor="middle" x="115.5" y="-408.3" font-family="Times,serif" font-size="14.00" fill="#000000">simplify_true_and_something</text>
<text text-anchor="middle" x="115.5" y="-393.3" font-family="Times,serif" font-size="14.00" fill="#000000">simplify_something_and_true</text>
<text text-anchor="middle" x="115.5" y="-378.3" font-family="Times,serif" font-size="14.00" fill="#000000">simplify_false_and_something</text>
<text text-anchor="middle" x="115.5" y="-363.3" font-family="Times,serif" font-size="14.00" fill="#000000">simplify_something_and_false</text>
<text text-anchor="middle" x="115.5" y="-348.3" font-family="Times,serif" font-size="14.00" fill="#000000">simplify_something_or_true</text>
<text text-anchor="middle" x="115.5" y="-333.3" font-family="Times,serif" font-size="14.00" fill="#000000">simplify_true_or_something</text>
<text text-anchor="middle" x="115.5" y="-318.3" font-family="Times,serif" font-size="14.00" fill="#000000">simplify_something_or_false</text>
<text text-anchor="middle" x="115.5" y="-303.3" font-family="Times,serif" font-size="14.00" fill="#000000">simplify_false_or_something</text>
</g>
<!-- boolean_literal_cleanup&#45;&gt;boolean_expression_simplify -->
<g id="edge3" class="edge">
<title>boolean_literal_cleanup&#45;&gt;boolean_expression_simplify</title>
<path fill="none" stroke="#000000" d="M223.0503,-536.6861C214.1038,-531.4394 204.9629,-525.1437 197.5,-518 189.4638,-510.3075 181.8509,-501.6779 174.7397,-492.6284"/>
<polygon fill="#000000" stroke="#000000" points="177.4599,-490.4232 168.6216,-484.5806 171.8874,-494.6596 177.4599,-490.4232"/>
<text text-anchor="middle" x="221.5" y="-506.8" font-family="Times,serif" font-size="14.00" fill="#000000">Parent</text>
</g>
<!-- boolean_literal_cleanup&#45;&gt;statement_cleanup -->
<g id="edge4" class="edge">
<title>boolean_literal_cleanup&#45;&gt;statement_cleanup</title>
<path fill="none" stroke="#000000" d="M277.7988,-536.1369C307.8428,-506.8082 367.6992,-448.377 401.9227,-414.9684"/>
<polygon fill="#000000" stroke="#000000" points="404.5129,-417.331 409.2238,-407.841 399.6231,-412.3219 404.5129,-417.331"/>
<text text-anchor="middle" x="333.5" y="-506.8" font-family="Times,serif" font-size="14.00" fill="#000000">Parent</text>
</g>
<!-- boolean_expression_simplify&#45;&gt;boolean_literal_cleanup -->
<g id="edge5" class="edge">
<title>boolean_expression_simplify&#45;&gt;boolean_literal_cleanup</title>
<path fill="none" stroke="#000000" d="M114.4705,-484.5723C117.8583,-496.8156 123.2475,-508.4083 131.5,-518 137.9399,-525.4849 154.3693,-531.9874 173.3927,-537.3283"/>
<polygon fill="#000000" stroke="#000000" points="172.658,-540.7544 183.2211,-539.935 174.4526,-533.9883 172.658,-540.7544"/>
<text text-anchor="middle" x="155.5" y="-506.8" font-family="Times,serif" font-size="14.00" fill="#000000">Parent</text>
</g>
<!-- delete_immediate_if_err -->
<g id="node5" class="node">
<title>delete_immediate_if_err</title>
<ellipse fill="none" stroke="#000000" cx="769.5" cy="-209" rx="124.2781" ry="18"/>
<text text-anchor="middle" x="769.5" y="-205.3" font-family="Times,serif" font-size="14.00" fill="#000000">delete_immediate_if_err</text>
</g>
<!-- statement_cleanup&#45;&gt;delete_immediate_if_err -->
<g id="edge7" class="edge">
<title>statement_cleanup&#45;&gt;delete_immediate_if_err</title>
<path fill="none" stroke="#000000" d="M459.9829,-372.8088C522.2956,-339.8304 658.5483,-267.72 727.6005,-231.1749"/>
<polygon fill="#000000" stroke="#000000" points="729.2809,-234.2455 736.4822,-226.4743 726.0065,-228.0586 729.2809,-234.2455"/>
<text text-anchor="middle" x="729.5" y="-265.8" font-family="Times,serif" font-size="14.00" fill="#000000">Function&#45;Method</text>
</g>
<!-- if_cleanup -->
<g id="node8" class="node">
<title>if_cleanup</title>
<polygon fill="none" stroke="#000000" points="340.5,-174.5 340.5,-243.5 552.5,-243.5 552.5,-174.5 340.5,-174.5"/>
<text text-anchor="middle" x="446.5" y="-228.3" font-family="Times,serif" font-size="14.00" fill="#000000">if_cleanup</text>
<text text-anchor="middle" x="446.5" y="-197.3" font-family="Times,serif" font-size="14.00" fill="#000000">simplify_if_statement_true</text>
<text text-anchor="middle" x="446.5" y="-182.3" font-family="Times,serif" font-size="14.00" fill="#000000">simplify_if_statement_false</text>
</g>
<!-- statement_cleanup&#45;&gt;if_cleanup -->
<g id="edge6" class="edge">
<title>statement_cleanup&#45;&gt;if_cleanup</title>
<path fill="none" stroke="#000000" d="M429.3913,-371.9833C432.2569,-344.6844 437.7881,-291.992 441.7872,-253.8957"/>
<polygon fill="#000000" stroke="#000000" points="445.3078,-253.8817 442.871,-243.5709 438.3461,-253.1508 445.3078,-253.8817"/>
<text text-anchor="middle" x="464.5" y="-265.8" font-family="Times,serif" font-size="14.00" fill="#000000">Parent</text>
</g>
<!-- delete_bool_err_short_var_declaration -->
<g id="node6" class="node">
<title>delete_bool_err_short_var_declaration</title>
<ellipse fill="none" stroke="#000000" cx="845.5" cy="-105" rx="189.5666" ry="18"/>
<text text-anchor="middle" x="845.5" y="-101.3" font-family="Times,serif" font-size="14.00" fill="#000000">delete_bool_err_short_var_declaration</text>
</g>
<!-- delete_immediate_if_err&#45;&gt;delete_bool_err_short_var_declaration -->
<g id="edge8" class="edge">
<title>delete_immediate_if_err&#45;&gt;delete_bool_err_short_var_declaration</title>
<path fill="none" stroke="#000000" d="M782.7382,-190.8846C794.7611,-174.4322 812.6415,-149.9643 826.2454,-131.3484"/>
<polygon fill="#000000" stroke="#000000" points="829.0842,-133.3958 832.1585,-123.2568 823.4324,-129.2656 829.0842,-133.3958"/>
<text text-anchor="middle" x="880.5" y="-144.8" font-family="Times,serif" font-size="14.00" fill="#000000">Function&#45;Method</text>
</g>
<!-- replace_identifier_with_value -->
<g id="node7" class="node">
<title>replace_identifier_with_value</title>
<ellipse fill="none" stroke="#000000" cx="275.5" cy="-18" rx="148.3739" ry="18"/>
<text text-anchor="middle" x="275.5" y="-14.3" font-family="Times,serif" font-size="14.00" fill="#000000">replace_identifier_with_value</text>
</g>
<!-- delete_bool_err_short_var_declaration&#45;&gt;replace_identifier_with_value -->
<g id="edge9" class="edge">
<title>delete_bool_err_short_var_declaration&#45;&gt;replace_identifier_with_value</title>
<path fill="none" stroke="#000000" d="M745.2346,-89.6963C642.0295,-73.944 482.0346,-49.5237 378.0138,-33.6468"/>
<polygon fill="#000000" stroke="#000000" points="378.5394,-30.1866 368.1258,-32.1376 377.4832,-37.1065 378.5394,-30.1866"/>
<text text-anchor="middle" x="656.5" y="-57.8" font-family="Times,serif" font-size="14.00" fill="#000000">Function&#45;Method</text>
</g>
<!-- replace_identifier_with_value&#45;&gt;boolean_literal_cleanup -->
<g id="edge10" class="edge">
<title>replace_identifier_with_value&#45;&gt;boolean_literal_cleanup</title>
<path fill="none" stroke="#000000" d="M270.1722,-36.1521C265.5178,-53.6296 259.5,-80.8888 259.5,-105 259.5,-390 259.5,-390 259.5,-390 259.5,-437.5798 259.5,-492.9242 259.5,-525.622"/>
<polygon fill="#000000" stroke="#000000" points="256.0001,-525.7986 259.5,-535.7986 263.0001,-525.7987 256.0001,-525.7986"/>
<text text-anchor="middle" x="283.5" y="-205.3" font-family="Times,serif" font-size="14.00" fill="#000000">Parent</text>
</g>
<!-- remove_unnecessary_nested_block -->
<g id="node11" class="node">
<title>remove_unnecessary_nested_block</title>
<ellipse fill="none" stroke="#000000" cx="462.5" cy="-105" rx="174.6691" ry="18"/>
<text text-anchor="middle" x="462.5" y="-101.3" font-family="Times,serif" font-size="14.00" fill="#000000">remove_unnecessary_nested_block</text>
</g>
<!-- if_cleanup&#45;&gt;remove_unnecessary_nested_block -->
<g id="edge11" class="edge">
<title>if_cleanup&#45;&gt;remove_unnecessary_nested_block</title>
<path fill="none" stroke="#000000" d="M451.8278,-174.3695C453.8874,-160.9821 456.2139,-145.8594 458.1679,-133.1586"/>
<polygon fill="#000000" stroke="#000000" points="461.6462,-133.5667 459.7076,-123.1507 454.7276,-132.5022 461.6462,-133.5667"/>
<text text-anchor="middle" x="480.5" y="-144.8" font-family="Times,serif" font-size="14.00" fill="#000000">Parent</text>
</g>
<!-- delete_const_str_literal -->
<g id="node9" class="node">
<title>delete_const_str_literal</title>
<ellipse fill="none" stroke="#000000" cx="339.5" cy="-834" rx="120.4791" ry="18"/>
<text text-anchor="middle" x="339.5" y="-830.3" font-family="Times,serif" font-size="14.00" fill="#000000">delete_const_str_literal</text>
</g>
<!-- replace_identifier_with_str_literal -->
<g id="node10" class="node">
<title>replace_identifier_with_str_literal</title>
<ellipse fill="none" stroke="#000000" cx="339.5" cy="-747" rx="168.97" ry="18"/>
<text text-anchor="middle" x="339.5" y="-743.3" font-family="Times,serif" font-size="14.00" fill="#000000">replace_identifier_with_str_literal</text>
</g>
<!-- delete_const_str_literal&#45;&gt;replace_identifier_with_str_literal -->
<g id="edge12" class="edge">
<title>delete_const_str_literal&#45;&gt;replace_identifier_with_str_literal</title>
<path fill="none" stroke="#000000" d="M339.5,-815.9735C339.5,-804.1918 339.5,-788.5607 339.5,-775.1581"/>
<polygon fill="#000000" stroke="#000000" points="343.0001,-775.0033 339.5,-765.0034 336.0001,-775.0034 343.0001,-775.0033"/>
<text text-anchor="middle" x="353.5" y="-786.8" font-family="Times,serif" font-size="14.00" fill="#000000">File</text>
</g>
<!-- replace_identifier_with_str_literal&#45;&gt;replace_expression_with_boolean_literal -->
<g id="edge13" class="edge">
<title>replace_identifier_with_str_literal&#45;&gt;replace_expression_with_boolean_literal</title>
<path fill="none" stroke="#000000" d="M339.5,-728.8491C339.5,-717.3632 339.5,-702.0886 339.5,-688.0778"/>
<polygon fill="#000000" stroke="#000000" points="343.0001,-687.6937 339.5,-677.6937 336.0001,-687.6937 343.0001,-687.6937"/>
<text text-anchor="middle" x="353.5" y="-699.8" font-family="Times,serif" font-size="14.00" fill="#000000">File</text>
</g>
</g>
</svg>
