<?xml version="1.0" encoding="UTF-8" standalone="no"?>
<!DOCTYPE svg PUBLIC "-//W3C//DTD SVG 1.1//EN"
 "http://www.w3.org/Graphics/SVG/1.1/DTD/svg11.dtd">
<!-- Generated by graphviz version 2.40.1 (20161225.0304)
 -->
<!-- Title: %3 Pages: 1 -->
<svg width="874pt" height="841pt"
 viewBox="0.00 0.00 874.33 841.00" xmlns="http://www.w3.org/2000/svg" xmlns:xlink="http://www.w3.org/1999/xlink">
<g id="graph0" class="graph" transform="scale(1 1) rotate(0) translate(4 837)">
<title>%3</title>
<polygon fill="#ffffff" stroke="transparent" points="-4,4 -4,-837 870.3345,-837 870.3345,4 -4,4"/>
<text text-anchor="middle" x="433.1672" y="-805" font-family="Times,serif" font-size="30.00" fill="#000000">Go pre&#45;built cleanup rules</text>
<!-- replace_expression_with_boolean_literal -->
<g id="node1" class="node">
<title>replace_expression_with_boolean_literal</title>
<ellipse fill="none" stroke="#000000" cx="341.5" cy="-774" rx="199.5646" ry="18"/>
<text text-anchor="middle" x="341.5" y="-770.3" font-family="Times,serif" font-size="14.00" fill="#000000">replace_expression_with_boolean_literal</text>
</g>
<!-- boolean_literal_cleanup -->
<g id="node2" class="node">
<title>boolean_literal_cleanup</title>
<polygon fill="none" stroke="#000000" points="387.2038,-675.5442 387.2038,-690.4558 310.6393,-701 202.3607,-701 125.7962,-690.4558 125.7962,-675.5442 202.3607,-665 310.6393,-665 387.2038,-675.5442"/>
<polygon fill="none" stroke="#000000" points="391.1994,-672.0567 391.1994,-693.9433 310.9128,-705 202.0872,-705 121.8006,-693.9433 121.8006,-672.0567 202.0872,-661 310.9128,-661 391.1994,-672.0567"/>
<text text-anchor="middle" x="256.5" y="-679.3" font-family="Times,serif" font-size="14.00" fill="#000000">boolean_literal_cleanup</text>
</g>
<!-- replace_expression_with_boolean_literal&#45;&gt;boolean_literal_cleanup -->
<g id="edge1" class="edge">
<title>replace_expression_with_boolean_literal&#45;&gt;boolean_literal_cleanup</title>
<path fill="none" stroke="#000000" d="M324.7067,-756.0213C313.1948,-743.6968 297.6522,-727.0571 284.3114,-712.7746"/>
<polygon fill="#000000" stroke="#000000" points="286.5498,-710.0435 277.166,-705.1248 281.4343,-714.8218 286.5498,-710.0435"/>
<text text-anchor="middle" x="331.5" y="-726.8" font-family="Times,serif" font-size="14.00" fill="#000000">Parent</text>
</g>
<!-- statement_cleanup -->
<g id="node4" class="node">
<title>statement_cleanup</title>
<polygon fill="none" stroke="#000000" points="535.264,-492.5442 535.264,-507.4558 472.1373,-518 382.8627,-518 319.736,-507.4558 319.736,-492.5442 382.8627,-482 472.1373,-482 535.264,-492.5442"/>
<polygon fill="none" stroke="#000000" points="539.2689,-489.1575 539.2689,-510.8425 472.4699,-522 382.5301,-522 315.7311,-510.8425 315.7311,-489.1575 382.5301,-478 472.4699,-478 539.2689,-489.1575"/>
<text text-anchor="middle" x="427.5" y="-496.3" font-family="Times,serif" font-size="14.00" fill="#000000">statement_cleanup</text>
</g>
<!-- replace_expression_with_boolean_literal&#45;&gt;statement_cleanup -->
<g id="edge2" class="edge">
<title>replace_expression_with_boolean_literal&#45;&gt;statement_cleanup</title>
<path fill="none" stroke="#000000" d="M362.1965,-755.9182C375.432,-743.0978 391.7111,-724.7235 400.5,-705 425.9037,-647.9904 429.255,-573.8599 428.7905,-532.1605"/>
<polygon fill="#000000" stroke="#000000" points="432.2876,-531.9711 428.5944,-522.0408 425.2889,-532.1067 432.2876,-531.9711"/>
<text text-anchor="middle" x="439.5" y="-679.3" font-family="Times,serif" font-size="14.00" fill="#000000">Parent</text>
</g>
<!-- boolean_expression_simplify -->
<g id="node3" class="node">
<title>boolean_expression_simplify</title>
<polygon fill="none" stroke="#000000" points="0,-390.5 0,-609.5 231,-609.5 231,-390.5 0,-390.5"/>
<text text-anchor="middle" x="115.5" y="-594.3" font-family="Times,serif" font-size="14.00" fill="#000000">boolean_expression_simplify</text>
<text text-anchor="middle" x="115.5" y="-563.3" font-family="Times,serif" font-size="14.00" fill="#000000">simplify_not_false</text>
<text text-anchor="middle" x="115.5" y="-548.3" font-family="Times,serif" font-size="14.00" fill="#000000">simplify_not_true</text>
<text text-anchor="middle" x="115.5" y="-533.3" font-family="Times,serif" font-size="14.00" fill="#000000">simplify_true_and_something</text>
<text text-anchor="middle" x="115.5" y="-518.3" font-family="Times,serif" font-size="14.00" fill="#000000">simplify_something_and_true</text>
<text text-anchor="middle" x="115.5" y="-503.3" font-family="Times,serif" font-size="14.00" fill="#000000">simplify_false_and_something</text>
<text text-anchor="middle" x="115.5" y="-488.3" font-family="Times,serif" font-size="14.00" fill="#000000">simplify_something_and_false</text>
<text text-anchor="middle" x="115.5" y="-473.3" font-family="Times,serif" font-size="14.00" fill="#000000">simplify_something_or_true</text>
<text text-anchor="middle" x="115.5" y="-458.3" font-family="Times,serif" font-size="14.00" fill="#000000">simplify_true_or_something</text>
<text text-anchor="middle" x="115.5" y="-443.3" font-family="Times,serif" font-size="14.00" fill="#000000">simplify_something_or_false</text>
<text text-anchor="middle" x="115.5" y="-428.3" font-family="Times,serif" font-size="14.00" fill="#000000">simplify_false_or_something</text>
<text text-anchor="middle" x="115.5" y="-413.3" font-family="Times,serif" font-size="14.00" fill="#000000">simplify_identity_equal</text>
<text text-anchor="middle" x="115.5" y="-398.3" font-family="Times,serif" font-size="14.00" fill="#000000">simplify_identity_not_equal</text>
</g>
<!-- boolean_literal_cleanup&#45;&gt;boolean_expression_simplify -->
<g id="edge3" class="edge">
<title>boolean_literal_cleanup&#45;&gt;boolean_expression_simplify</title>
<path fill="none" stroke="#000000" d="M169.0718,-665.5001C147.3753,-659.3602 128.3398,-651.7706 121.5,-643 115.9488,-635.8818 111.8523,-627.9041 108.9094,-619.4543"/>
<polygon fill="#000000" stroke="#000000" points="112.232,-618.3464 106.0609,-609.7343 105.5145,-620.315 112.232,-618.3464"/>
<text text-anchor="middle" x="145.5" y="-631.8" font-family="Times,serif" font-size="14.00" fill="#000000">Parent</text>
</g>
<!-- boolean_literal_cleanup&#45;&gt;statement_cleanup -->
<g id="edge4" class="edge">
<title>boolean_literal_cleanup&#45;&gt;statement_cleanup</title>
<path fill="none" stroke="#000000" d="M277.1266,-660.9259C307.811,-628.0882 365.5382,-566.31 399.8517,-529.5886"/>
<polygon fill="#000000" stroke="#000000" points="402.5301,-531.8486 406.8003,-522.1524 397.4155,-527.0693 402.5301,-531.8486"/>
<text text-anchor="middle" x="331.5" y="-631.8" font-family="Times,serif" font-size="14.00" fill="#000000">Parent</text>
</g>
<!-- boolean_expression_simplify&#45;&gt;boolean_literal_cleanup -->
<g id="edge5" class="edge">
<title>boolean_expression_simplify&#45;&gt;boolean_literal_cleanup</title>
<path fill="none" stroke="#000000" d="M171.4316,-609.8571C179.4368,-621.6066 188.1582,-632.9286 197.5,-643 201.2871,-647.0829 205.5658,-650.9663 210.0463,-654.5943"/>
<polygon fill="#000000" stroke="#000000" points="208.1859,-657.5763 218.2666,-660.8367 212.4193,-652.0015 208.1859,-657.5763"/>
<text text-anchor="middle" x="221.5" y="-631.8" font-family="Times,serif" font-size="14.00" fill="#000000">Parent</text>
</g>
<!-- delete_variable_declaration -->
<g id="node5" class="node">
<title>delete_variable_declaration</title>
<ellipse fill="none" stroke="#000000" cx="427.5" cy="-304" rx="139.9756" ry="18"/>
<text text-anchor="middle" x="427.5" y="-300.3" font-family="Times,serif" font-size="14.00" fill="#000000">delete_variable_declaration</text>
</g>
<!-- statement_cleanup&#45;&gt;delete_variable_declaration -->
<g id="edge7" class="edge">
<title>statement_cleanup&#45;&gt;delete_variable_declaration</title>
<path fill="none" stroke="#000000" d="M427.5,-477.8973C427.5,-442.2078 427.5,-371.9153 427.5,-332.5065"/>
<polygon fill="#000000" stroke="#000000" points="431.0001,-332.2645 427.5,-322.2646 424.0001,-332.2646 431.0001,-332.2645"/>
<text text-anchor="middle" x="489.5" y="-360.8" font-family="Times,serif" font-size="14.00" fill="#000000">Function&#45;Method</text>
</g>
<!-- if_cleanup -->
<g id="node7" class="node">
<title>if_cleanup</title>
<polygon fill="none" stroke="#000000" points="585.5,-269.5 585.5,-338.5 797.5,-338.5 797.5,-269.5 585.5,-269.5"/>
<text text-anchor="middle" x="691.5" y="-323.3" font-family="Times,serif" font-size="14.00" fill="#000000">if_cleanup</text>
<text text-anchor="middle" x="691.5" y="-292.3" font-family="Times,serif" font-size="14.00" fill="#000000">simplify_if_statement_true</text>
<text text-anchor="middle" x="691.5" y="-277.3" font-family="Times,serif" font-size="14.00" fill="#000000">simplify_if_statement_false</text>
</g>
<!-- statement_cleanup&#45;&gt;if_cleanup -->
<g id="edge6" class="edge">
<title>statement_cleanup&#45;&gt;if_cleanup</title>
<path fill="none" stroke="#000000" d="M457.271,-477.8973C500.7527,-445.6154 582.3671,-385.0229 636.838,-344.5824"/>
<polygon fill="#000000" stroke="#000000" points="639.0606,-347.2915 645.0033,-338.5203 634.8878,-341.6711 639.0606,-347.2915"/>
<text text-anchor="middle" x="637.5" y="-360.8" font-family="Times,serif" font-size="14.00" fill="#000000">Parent</text>
</g>
<!-- replace_identifier_with_value -->
<g id="node6" class="node">
<title>replace_identifier_with_value</title>
<ellipse fill="none" stroke="#000000" cx="305.5" cy="-200" rx="148.3739" ry="18"/>
<text text-anchor="middle" x="305.5" y="-196.3" font-family="Times,serif" font-size="14.00" fill="#000000">replace_identifier_with_value</text>
</g>
<!-- delete_variable_declaration&#45;&gt;replace_identifier_with_value -->
<g id="edge8" class="edge">
<title>delete_variable_declaration&#45;&gt;replace_identifier_with_value</title>
<path fill="none" stroke="#000000" d="M406.5275,-286.1218C386.6255,-269.1562 356.546,-243.5146 334.3814,-224.6202"/>
<polygon fill="#000000" stroke="#000000" points="336.4879,-221.8168 326.6072,-217.993 331.9467,-227.1439 336.4879,-221.8168"/>
<text text-anchor="middle" x="425.5" y="-239.8" font-family="Times,serif" font-size="14.00" fill="#000000">Function&#45;Method</text>
</g>
<!-- replace_identifier_with_value&#45;&gt;boolean_literal_cleanup -->
<g id="edge9" class="edge">
<title>replace_identifier_with_value&#45;&gt;boolean_literal_cleanup</title>
<path fill="none" stroke="#000000" d="M296.5036,-218.2412C290.247,-231.8695 282.3621,-251.1466 278.5,-269 248.3197,-408.5161 251.6968,-580.3268 254.7508,-650.667"/>
<polygon fill="#000000" stroke="#000000" points="251.2555,-650.8519 255.214,-660.6794 258.2481,-650.5283 251.2555,-650.8519"/>
<text text-anchor="middle" x="288.5" y="-360.8" font-family="Times,serif" font-size="14.00" fill="#000000">Parent</text>
</g>
<!-- remove_unnecessary_nested_block -->
<g id="node8" class="node">
<title>remove_unnecessary_nested_block</title>
<ellipse fill="none" stroke="#000000" cx="691.5" cy="-200" rx="174.6691" ry="18"/>
<text text-anchor="middle" x="691.5" y="-196.3" font-family="Times,serif" font-size="14.00" fill="#000000">remove_unnecessary_nested_block</text>
</g>
<!-- if_cleanup&#45;&gt;remove_unnecessary_nested_block -->
<g id="edge10" class="edge">
<title>if_cleanup&#45;&gt;remove_unnecessary_nested_block</title>
<path fill="none" stroke="#000000" d="M691.5,-269.3695C691.5,-255.9821 691.5,-240.8594 691.5,-228.1586"/>
<polygon fill="#000000" stroke="#000000" points="695.0001,-228.1507 691.5,-218.1507 688.0001,-228.1508 695.0001,-228.1507"/>
<text text-anchor="middle" x="715.5" y="-239.8" font-family="Times,serif" font-size="14.00" fill="#000000">Parent</text>
</g>
<!-- return_statement_cleanup -->
<g id="node9" class="node">
<title>return_statement_cleanup</title>
<polygon fill="none" stroke="#000000" points="836.3411,-101.5442 836.3411,-116.4558 751.4952,-127 631.5048,-127 546.6589,-116.4558 546.6589,-101.5442 631.5048,-91 751.4952,-91 836.3411,-101.5442"/>
<polygon fill="none" stroke="#000000" points="840.339,-98.0102 840.339,-119.9898 751.7425,-131 631.2575,-131 542.661,-119.9898 542.661,-98.0102 631.2575,-87 751.7425,-87 840.339,-98.0102"/>
<text text-anchor="middle" x="691.5" y="-105.3" font-family="Times,serif" font-size="14.00" fill="#000000">return_statement_cleanup</text>
</g>
<!-- remove_unnecessary_nested_block&#45;&gt;return_statement_cleanup -->
<g id="edge11" class="edge">
<title>remove_unnecessary_nested_block&#45;&gt;return_statement_cleanup</title>
<path fill="none" stroke="#000000" d="M691.5,-181.5848C691.5,-170.1105 691.5,-155.0231 691.5,-141.5774"/>
<polygon fill="#000000" stroke="#000000" points="695.0001,-141.2465 691.5,-131.2465 688.0001,-141.2466 695.0001,-141.2465"/>
<text text-anchor="middle" x="715.5" y="-152.8" font-family="Times,serif" font-size="14.00" fill="#000000">Parent</text>
</g>
<!-- delete_statement_after_return -->
<g id="node10" class="node">
<title>delete_statement_after_return</title>
<ellipse fill="none" stroke="#000000" cx="691.5" cy="-18" rx="153.2729" ry="18"/>
<text text-anchor="middle" x="691.5" y="-14.3" font-family="Times,serif" font-size="14.00" fill="#000000">delete_statement_after_return</text>
</g>
<!-- return_statement_cleanup&#45;&gt;delete_statement_after_return -->
<g id="edge12" class="edge">
<title>return_statement_cleanup&#45;&gt;delete_statement_after_return</title>
<path fill="none" stroke="#000000" d="M667.9087,-86.6933C663.6495,-81.3433 659.8269,-75.3304 657.5,-69 654.3185,-60.3448 657.1867,-51.7054 662.3735,-44.0629"/>
<polygon fill="#000000" stroke="#000000" points="665.1615,-46.1817 668.7352,-36.2077 659.7217,-41.7761 665.1615,-46.1817"/>
<text text-anchor="middle" x="681.5" y="-57.8" font-family="Times,serif" font-size="14.00" fill="#000000">Parent</text>
</g>
<!-- delete_statement_after_return&#45;&gt;return_statement_cleanup -->
<g id="edge13" class="edge">
<title>delete_statement_after_return&#45;&gt;return_statement_cleanup</title>
<path fill="none" stroke="#000000" d="M700.1219,-36.2976C702.3265,-41.8576 704.3872,-48.0681 705.5,-54 706.9114,-61.5234 706.1769,-69.5456 704.4689,-77.0711"/>
<polygon fill="#000000" stroke="#000000" points="701.0335,-76.3547 701.6466,-86.9318 707.7632,-78.281 701.0335,-76.3547"/>
<text text-anchor="middle" x="729.5" y="-57.8" font-family="Times,serif" font-size="14.00" fill="#000000">Parent</text>
</g>
</g>
</svg>
