<?xml version="1.0" encoding="UTF-8" standalone="no"?>
<!DOCTYPE svg PUBLIC "-//W3C//DTD SVG 1.1//EN"
 "http://www.w3.org/Graphics/SVG/1.1/DTD/svg11.dtd">
<!-- Generated by graphviz version 2.40.1 (20161225.0304)
 -->
<!-- Title: %3 Pages: 1 -->
<svg width="1248pt" height="738pt"
 viewBox="0.00 0.00 1248.33 738.00" xmlns="http://www.w3.org/2000/svg" xmlns:xlink="http://www.w3.org/1999/xlink">
<g id="graph0" class="graph" transform="scale(1 1) rotate(0) translate(4 734)">
<title>%3</title>
<polygon fill="#ffffff" stroke="transparent" points="-4,4 -4,-734 1244.3345,-734 1244.3345,4 -4,4"/>
<text text-anchor="middle" x="620.1672" y="-702" font-family="Times,serif" font-size="30.00" fill="#000000">Java pre&#45;built cleanup rules</text>
<!-- replace_expression_with_boolean_literal -->
<g id="node1" class="node">
<title>replace_expression_with_boolean_literal</title>
<ellipse fill="none" stroke="#000000" cx="225.5" cy="-671" rx="199.5646" ry="18"/>
<text text-anchor="middle" x="225.5" y="-667.3" font-family="Times,serif" font-size="14.00" fill="#000000">replace_expression_with_boolean_literal</text>
</g>
<!-- boolean_literal_cleanup -->
<g id="node2" class="node">
<title>boolean_literal_cleanup</title>
<ellipse fill="none" stroke="#000000" cx="225.5" cy="-584" rx="120.7786" ry="18"/>
<text text-anchor="middle" x="225.5" y="-580.3" font-family="Times,serif" font-size="14.00" fill="#000000">boolean_literal_cleanup</text>
</g>
<!-- replace_expression_with_boolean_literal&#45;&gt;boolean_literal_cleanup -->
<g id="edge1" class="edge">
<title>replace_expression_with_boolean_literal&#45;&gt;boolean_literal_cleanup</title>
<path fill="none" stroke="#000000" d="M225.5,-652.9735C225.5,-641.1918 225.5,-625.5607 225.5,-612.1581"/>
<polygon fill="#000000" stroke="#000000" points="229.0001,-612.0033 225.5,-602.0034 222.0001,-612.0034 229.0001,-612.0033"/>
<text text-anchor="middle" x="249.5" y="-623.8" font-family="Times,serif" font-size="14.00" fill="#000000">Parent</text>
</g>
<!-- boolean_expression_simplify -->
<g id="node3" class="node">
<title>boolean_expression_simplify</title>
<polygon fill="none" stroke="#000000" points="0,-325.5 0,-514.5 231,-514.5 231,-325.5 0,-325.5"/>
<text text-anchor="middle" x="115.5" y="-499.3" font-family="Times,serif" font-size="14.00" fill="#000000">boolean_expression_simplify</text>
<text text-anchor="middle" x="115.5" y="-468.3" font-family="Times,serif" font-size="14.00" fill="#000000">simplify_not_false</text>
<text text-anchor="middle" x="115.5" y="-453.3" font-family="Times,serif" font-size="14.00" fill="#000000">simplify_not_true</text>
<text text-anchor="middle" x="115.5" y="-438.3" font-family="Times,serif" font-size="14.00" fill="#000000">simplify_true_and_something</text>
<text text-anchor="middle" x="115.5" y="-423.3" font-family="Times,serif" font-size="14.00" fill="#000000">simplify_something_and_true</text>
<text text-anchor="middle" x="115.5" y="-408.3" font-family="Times,serif" font-size="14.00" fill="#000000">simplify_false_and_something</text>
<text text-anchor="middle" x="115.5" y="-393.3" font-family="Times,serif" font-size="14.00" fill="#000000">simplify_something_and_false</text>
<text text-anchor="middle" x="115.5" y="-378.3" font-family="Times,serif" font-size="14.00" fill="#000000">simplify_something_or_true</text>
<text text-anchor="middle" x="115.5" y="-363.3" font-family="Times,serif" font-size="14.00" fill="#000000">simplify_true_or_something</text>
<text text-anchor="middle" x="115.5" y="-348.3" font-family="Times,serif" font-size="14.00" fill="#000000">simplify_something_or_false</text>
<text text-anchor="middle" x="115.5" y="-333.3" font-family="Times,serif" font-size="14.00" fill="#000000">simplify_false_or_something</text>
</g>
<!-- boolean_literal_cleanup&#45;&gt;boolean_expression_simplify -->
<g id="edge2" class="edge">
<title>boolean_literal_cleanup&#45;&gt;boolean_expression_simplify</title>
<path fill="none" stroke="#000000" d="M162.5223,-568.5331C144.0016,-562.6734 127.1648,-555.5736 121.5,-548 116.1753,-540.8811 112.3668,-532.8657 109.7308,-524.4073"/>
<polygon fill="#000000" stroke="#000000" points="113.1134,-523.5076 107.2346,-514.6934 106.3336,-525.2498 113.1134,-523.5076"/>
<text text-anchor="middle" x="145.5" y="-536.8" font-family="Times,serif" font-size="14.00" fill="#000000">Parent</text>
</g>
<!-- statement_cleanup -->
<g id="node6" class="node">
<title>statement_cleanup</title>
<ellipse fill="none" stroke="#000000" cx="568.5" cy="-420" rx="99.3824" ry="18"/>
<text text-anchor="middle" x="568.5" y="-416.3" font-family="Times,serif" font-size="14.00" fill="#000000">statement_cleanup</text>
</g>
<!-- boolean_literal_cleanup&#45;&gt;statement_cleanup -->
<g id="edge3" class="edge">
<title>boolean_literal_cleanup&#45;&gt;statement_cleanup</title>
<path fill="none" stroke="#000000" d="M261.5587,-566.7591C324.7218,-536.5587 455.1799,-474.1822 523.9062,-441.3218"/>
<polygon fill="#000000" stroke="#000000" points="525.6686,-444.3587 533.1806,-436.8874 522.649,-438.0434 525.6686,-444.3587"/>
<text text-anchor="middle" x="351.5" y="-536.8" font-family="Times,serif" font-size="14.00" fill="#000000">Parent</text>
</g>
<!-- boolean_expression_simplify&#45;&gt;boolean_literal_cleanup -->
<g id="edge4" class="edge">
<title>boolean_expression_simplify&#45;&gt;boolean_literal_cleanup</title>
<path fill="none" stroke="#000000" d="M174.7673,-514.6717C182.2677,-526.0055 189.9586,-537.333 197.5,-548 199.7997,-551.2528 202.277,-554.6176 204.7732,-557.9247"/>
<polygon fill="#000000" stroke="#000000" points="202.0574,-560.1347 210.9269,-565.9297 207.6072,-555.8684 202.0574,-560.1347"/>
<text text-anchor="middle" x="221.5" y="-536.8" font-family="Times,serif" font-size="14.00" fill="#000000">Parent</text>
</g>
<!-- delete_enum_entry -->
<g id="node4" class="node">
<title>delete_enum_entry</title>
<ellipse fill="none" stroke="#000000" cx="874.5" cy="-671" rx="100.1823" ry="18"/>
<text text-anchor="middle" x="874.5" y="-667.3" font-family="Times,serif" font-size="14.00" fill="#000000">delete_enum_entry</text>
</g>
<!-- delete_empty_enum_declaration -->
<g id="node5" class="node">
<title>delete_empty_enum_declaration</title>
<ellipse fill="none" stroke="#000000" cx="874.5" cy="-584" rx="161.6714" ry="18"/>
<text text-anchor="middle" x="874.5" y="-580.3" font-family="Times,serif" font-size="14.00" fill="#000000">delete_empty_enum_declaration</text>
</g>
<!-- delete_enum_entry&#45;&gt;delete_empty_enum_declaration -->
<g id="edge5" class="edge">
<title>delete_enum_entry&#45;&gt;delete_empty_enum_declaration</title>
<path fill="none" stroke="#000000" d="M874.5,-652.9735C874.5,-641.1918 874.5,-625.5607 874.5,-612.1581"/>
<polygon fill="#000000" stroke="#000000" points="878.0001,-612.0033 874.5,-602.0034 871.0001,-612.0034 878.0001,-612.0033"/>
<text text-anchor="middle" x="898.5" y="-623.8" font-family="Times,serif" font-size="14.00" fill="#000000">Parent</text>
</g>
<!-- delete_file_with_no_type_declarations -->
<g id="node14" class="node">
<title>delete_file_with_no_type_declarations</title>
<ellipse fill="none" stroke="#000000" cx="874.5" cy="-420" rx="188.4666" ry="18"/>
<text text-anchor="middle" x="874.5" y="-416.3" font-family="Times,serif" font-size="14.00" fill="#000000">delete_file_with_no_type_declarations</text>
</g>
<!-- delete_empty_enum_declaration&#45;&gt;delete_file_with_no_type_declarations -->
<g id="edge6" class="edge">
<title>delete_empty_enum_declaration&#45;&gt;delete_file_with_no_type_declarations</title>
<path fill="none" stroke="#000000" d="M874.5,-565.8225C874.5,-537.3769 874.5,-482.1152 874.5,-448.3904"/>
<polygon fill="#000000" stroke="#000000" points="878.0001,-448.2589 874.5,-438.2589 871.0001,-448.2589 878.0001,-448.2589"/>
<text text-anchor="middle" x="898.5" y="-536.8" font-family="Times,serif" font-size="14.00" fill="#000000">Parent</text>
</g>
<!-- if_cleanup -->
<g id="node7" class="node">
<title>if_cleanup</title>
<polygon fill="none" stroke="#000000" points="874,-174.5 874,-273.5 1119,-273.5 1119,-174.5 874,-174.5"/>
<text text-anchor="middle" x="996.5" y="-258.3" font-family="Times,serif" font-size="14.00" fill="#000000">if_cleanup</text>
<text text-anchor="middle" x="996.5" y="-227.3" font-family="Times,serif" font-size="14.00" fill="#000000">simplify_if_statement_true</text>
<text text-anchor="middle" x="996.5" y="-212.3" font-family="Times,serif" font-size="14.00" fill="#000000">simplify_if_statement_false</text>
<text text-anchor="middle" x="996.5" y="-197.3" font-family="Times,serif" font-size="14.00" fill="#000000">simplify_ternary_operator_true</text>
<text text-anchor="middle" x="996.5" y="-182.3" font-family="Times,serif" font-size="14.00" fill="#000000">simplify_ternary_operator_false</text>
</g>
<!-- statement_cleanup&#45;&gt;if_cleanup -->
<g id="edge7" class="edge">
<title>statement_cleanup&#45;&gt;if_cleanup</title>
<path fill="none" stroke="#000000" d="M583.953,-402.0431C603.5328,-380.4544 639.351,-344.6774 677.5,-325 707.9658,-309.2856 719.5714,-316.5299 752.5,-307 788.9961,-296.4376 828.1257,-283.7506 864.1266,-271.5105"/>
<polygon fill="#000000" stroke="#000000" points="865.3665,-274.7856 873.6988,-268.2417 863.1043,-268.1612 865.3665,-274.7856"/>
<text text-anchor="middle" x="824.5" y="-295.8" font-family="Times,serif" font-size="14.00" fill="#000000">Parent</text>
</g>
<!-- delete_variable_declaration -->
<g id="node10" class="node">
<title>delete_variable_declaration</title>
<ellipse fill="none" stroke="#000000" cx="427.5" cy="-105" rx="139.9756" ry="18"/>
<text text-anchor="middle" x="427.5" y="-101.3" font-family="Times,serif" font-size="14.00" fill="#000000">delete_variable_declaration</text>
</g>
<!-- statement_cleanup&#45;&gt;delete_variable_declaration -->
<g id="edge8" class="edge">
<title>statement_cleanup&#45;&gt;delete_variable_declaration</title>
<path fill="none" stroke="#000000" d="M529.3679,-403.3695C483.2866,-381.3754 409.0335,-337.7951 377.5,-274 357.8059,-234.1572 363.7923,-216.2777 377.5,-174 382.6159,-158.2213 392.8421,-143.0278 402.7207,-130.9338"/>
<polygon fill="#000000" stroke="#000000" points="405.5933,-132.9602 409.4371,-123.0871 400.2754,-128.4082 405.5933,-132.9602"/>
<text text-anchor="middle" x="401.5" y="-220.3" font-family="Times,serif" font-size="14.00" fill="#000000">Parent</text>
</g>
<!-- delete_parent_assignment -->
<g id="node11" class="node">
<title>delete_parent_assignment</title>
<ellipse fill="none" stroke="#000000" cx="568.5" cy="-224" rx="133.7763" ry="18"/>
<text text-anchor="middle" x="568.5" y="-220.3" font-family="Times,serif" font-size="14.00" fill="#000000">delete_parent_assignment</text>
</g>
<!-- statement_cleanup&#45;&gt;delete_parent_assignment -->
<g id="edge10" class="edge">
<title>statement_cleanup&#45;&gt;delete_parent_assignment</title>
<path fill="none" stroke="#000000" d="M568.5,-401.9121C568.5,-367.6363 568.5,-293.006 568.5,-252.1384"/>
<polygon fill="#000000" stroke="#000000" points="572.0001,-252.0441 568.5,-242.0442 565.0001,-252.0442 572.0001,-252.0441"/>
<text text-anchor="middle" x="592.5" y="-295.8" font-family="Times,serif" font-size="14.00" fill="#000000">Parent</text>
</g>
<!-- delete_field_declaration -->
<g id="node12" class="node">
<title>delete_field_declaration</title>
<ellipse fill="none" stroke="#000000" cx="707.5" cy="-105" rx="122.3786" ry="18"/>
<text text-anchor="middle" x="707.5" y="-101.3" font-family="Times,serif" font-size="14.00" fill="#000000">delete_field_declaration</text>
</g>
<!-- statement_cleanup&#45;&gt;delete_field_declaration -->
<g id="edge9" class="edge">
<title>statement_cleanup&#45;&gt;delete_field_declaration</title>
<path fill="none" stroke="#000000" d="M589.2857,-402.3625C625.7795,-370.8579 698.7295,-305.2889 711.5,-274 730.4956,-227.4588 722.2819,-167.5429 714.7652,-132.9838"/>
<polygon fill="#000000" stroke="#000000" points="718.1467,-132.0711 712.4858,-123.1154 711.3263,-133.6466 718.1467,-132.0711"/>
<text text-anchor="middle" x="747.5" y="-220.3" font-family="Times,serif" font-size="14.00" fill="#000000">Parent</text>
</g>
<!-- remove_unnecessary_nested_block -->
<g id="node8" class="node">
<title>remove_unnecessary_nested_block</title>
<ellipse fill="none" stroke="#000000" cx="1048.5" cy="-105" rx="174.6691" ry="18"/>
<text text-anchor="middle" x="1048.5" y="-101.3" font-family="Times,serif" font-size="14.00" fill="#000000">remove_unnecessary_nested_block</text>
</g>
<!-- if_cleanup&#45;&gt;remove_unnecessary_nested_block -->
<g id="edge11" class="edge">
<title>if_cleanup&#45;&gt;remove_unnecessary_nested_block</title>
<path fill="none" stroke="#000000" d="M1018.2514,-174.2228C1024.4881,-159.9503 1031.06,-144.9108 1036.479,-132.5097"/>
<polygon fill="#000000" stroke="#000000" points="1039.7522,-133.7598 1040.5493,-123.195 1033.3379,-130.9568 1039.7522,-133.7598"/>
<text text-anchor="middle" x="1055.5" y="-144.8" font-family="Times,serif" font-size="14.00" fill="#000000">Parent</text>
</g>
<!-- delete_all_statements_after_return -->
<g id="node15" class="node">
<title>delete_all_statements_after_return</title>
<ellipse fill="none" stroke="#000000" cx="1065.5" cy="-18" rx="174.6691" ry="18"/>
<text text-anchor="middle" x="1065.5" y="-14.3" font-family="Times,serif" font-size="14.00" fill="#000000">delete_all_statements_after_return</text>
</g>
<!-- remove_unnecessary_nested_block&#45;&gt;delete_all_statements_after_return -->
<g id="edge12" class="edge">
<title>remove_unnecessary_nested_block&#45;&gt;delete_all_statements_after_return</title>
<path fill="none" stroke="#000000" d="M1052.0224,-86.9735C1054.3246,-75.1918 1057.379,-59.5607 1059.9978,-46.1581"/>
<polygon fill="#000000" stroke="#000000" points="1063.4993,-46.489 1061.9821,-36.0034 1056.6292,-45.1465 1063.4993,-46.489"/>
<text text-anchor="middle" x="1081.5" y="-57.8" font-family="Times,serif" font-size="14.00" fill="#000000">Parent</text>
</g>
<!-- replace_identifier_with_value -->
<g id="node9" class="node">
<title>replace_identifier_with_value</title>
<ellipse fill="none" stroke="#000000" cx="298.5" cy="-18" rx="148.3739" ry="18"/>
<text text-anchor="middle" x="298.5" y="-14.3" font-family="Times,serif" font-size="14.00" fill="#000000">replace_identifier_with_value</text>
</g>
<!-- replace_identifier_with_value&#45;&gt;boolean_literal_cleanup -->
<g id="edge13" class="edge">
<title>replace_identifier_with_value&#45;&gt;boolean_literal_cleanup</title>
<path fill="none" stroke="#000000" d="M285.0784,-35.96C273.7971,-52.8622 259.5,-79.3439 259.5,-105 259.5,-420 259.5,-420 259.5,-420 259.5,-477.2282 262.85,-493.4653 245.5,-548 244.5551,-550.9701 243.352,-553.9727 242.0061,-556.9104"/>
<polygon fill="#000000" stroke="#000000" points="238.8163,-555.4603 237.3615,-565.9547 245.0432,-558.658 238.8163,-555.4603"/>
<text text-anchor="middle" x="283.5" y="-220.3" font-family="Times,serif" font-size="14.00" fill="#000000">Parent</text>
</g>
<!-- delete_variable_declaration&#45;&gt;replace_identifier_with_value -->
<g id="edge14" class="edge">
<title>delete_variable_declaration&#45;&gt;replace_identifier_with_value</title>
<path fill="none" stroke="#000000" d="M401.0836,-87.1843C381.5182,-73.989 354.6689,-55.8813 333.3462,-41.5009"/>
<polygon fill="#000000" stroke="#000000" points="335.1288,-38.4816 324.881,-35.7919 331.2148,-44.2851 335.1288,-38.4816"/>
<text text-anchor="middle" x="399" y="-57.8" font-family="Times,serif" font-size="14.00" fill="#000000">Method</text>
</g>
<!-- delete_boolean_assignments_for_variable -->
<g id="node13" class="node">
<title>delete_boolean_assignments_for_variable</title>
<ellipse fill="none" stroke="#000000" cx="668.5" cy="-18" rx="204.1638" ry="18"/>
<text text-anchor="middle" x="668.5" y="-14.3" font-family="Times,serif" font-size="14.00" fill="#000000">delete_boolean_assignments_for_variable</text>
</g>
<!-- delete_variable_declaration&#45;&gt;delete_boolean_assignments_for_variable -->
<g id="edge15" class="edge">
<title>delete_variable_declaration&#45;&gt;delete_boolean_assignments_for_variable</title>
<path fill="none" stroke="#000000" d="M447.2017,-87.1193C460.5014,-75.982 478.9536,-62.2506 497.5,-54 514.2999,-46.5264 532.7296,-40.5738 551.0757,-35.8408"/>
<polygon fill="#000000" stroke="#000000" points="552.0786,-39.1984 560.9494,-33.4053 550.4021,-32.4021 552.0786,-39.1984"/>
<text text-anchor="middle" x="525" y="-57.8" font-family="Times,serif" font-size="14.00" fill="#000000">Method</text>
</g>
<!-- delete_parent_assignment&#45;&gt;delete_variable_declaration -->
<g id="edge16" class="edge">
<title>delete_parent_assignment&#45;&gt;delete_variable_declaration</title>
<path fill="none" stroke="#000000" d="M547.3909,-206.1845C523.3015,-185.8538 483.751,-152.4743 456.7122,-129.6542"/>
<polygon fill="#000000" stroke="#000000" points="458.6529,-126.7123 448.7534,-122.9373 454.1381,-132.0618 458.6529,-126.7123"/>
<text text-anchor="middle" x="513" y="-144.8" font-family="Times,serif" font-size="14.00" fill="#000000">Method</text>
</g>
<!-- delete_parent_assignment&#45;&gt;delete_field_declaration -->
<g id="edge17" class="edge">
<title>delete_parent_assignment&#45;&gt;delete_field_declaration</title>
<path fill="none" stroke="#000000" d="M589.3097,-206.1845C613.0574,-185.8538 652.0469,-152.4743 678.7022,-129.6542"/>
<polygon fill="#000000" stroke="#000000" points="681.2278,-132.0995 686.548,-122.9373 676.6754,-126.782 681.2278,-132.0995"/>
<text text-anchor="middle" x="683.5" y="-144.8" font-family="Times,serif" font-size="14.00" fill="#000000">Class</text>
</g>
<!-- delete_field_declaration&#45;&gt;replace_identifier_with_value -->
<g id="edge18" class="edge">
<title>delete_field_declaration&#45;&gt;replace_identifier_with_value</title>
<path fill="none" stroke="#000000" d="M663.3292,-88.1468C632.6373,-77.0129 590.5704,-62.8872 552.5,-54 526.0622,-47.8283 467.2015,-39.3705 412.7944,-32.2037"/>
<polygon fill="#000000" stroke="#000000" points="413.0658,-28.7094 402.696,-30.8813 412.1569,-35.6502 413.0658,-28.7094"/>
<text text-anchor="middle" x="624.5" y="-57.8" font-family="Times,serif" font-size="14.00" fill="#000000">Class</text>
</g>
<!-- delete_field_declaration&#45;&gt;delete_boolean_assignments_for_variable -->
<g id="edge19" class="edge">
<title>delete_field_declaration&#45;&gt;delete_boolean_assignments_for_variable</title>
<path fill="none" stroke="#000000" d="M699.4192,-86.9735C694.0331,-74.9585 686.8525,-58.9401 680.7669,-45.3646"/>
<polygon fill="#000000" stroke="#000000" points="683.8549,-43.6967 676.5705,-36.0034 677.4673,-46.5602 683.8549,-43.6967"/>
<text text-anchor="middle" x="710.5" y="-57.8" font-family="Times,serif" font-size="14.00" fill="#000000">Class</text>
</g>
</g>
</svg>
