<?xml version="1.0" encoding="UTF-8" standalone="no"?>
<!DOCTYPE svg PUBLIC "-//W3C//DTD SVG 1.1//EN"
 "http://www.w3.org/Graphics/SVG/1.1/DTD/svg11.dtd">
<!-- Generated by graphviz version 2.40.1 (20161225.0304)
 -->
<!-- Title: %3 Pages: 1 -->
<svg width="1486pt" height="1005pt"
 viewBox="0.00 0.00 1485.83 1005.00" xmlns="http://www.w3.org/2000/svg" xmlns:xlink="http://www.w3.org/1999/xlink">
<g id="graph0" class="graph" transform="scale(1 1) rotate(0) translate(4 1001)">
<title>%3</title>
<polygon fill="#ffffff" stroke="transparent" points="-4,4 -4,-1001 1481.8345,-1001 1481.8345,4 -4,4"/>
<text text-anchor="middle" x="738.9172" y="-969" font-family="Times,serif" font-size="30.00" fill="#000000">Kotlin pre&#45;built cleanup rules</text>
<!-- replace_expression_with_boolean_literal -->
<g id="node1" class="node">
<title>replace_expression_with_boolean_literal</title>
<ellipse fill="none" stroke="#000000" cx="392" cy="-876" rx="199.5646" ry="18"/>
<text text-anchor="middle" x="392" y="-872.3" font-family="Times,serif" font-size="14.00" fill="#000000">replace_expression_with_boolean_literal</text>
</g>
<!-- boolean_literal_cleanup -->
<g id="node2" class="node">
<title>boolean_literal_cleanup</title>
<ellipse fill="none" stroke="#000000" cx="392" cy="-727" rx="120.7786" ry="18"/>
<text text-anchor="middle" x="392" y="-723.3" font-family="Times,serif" font-size="14.00" fill="#000000">boolean_literal_cleanup</text>
</g>
<!-- replace_expression_with_boolean_literal&#45;&gt;boolean_literal_cleanup -->
<g id="edge1" class="edge">
<title>replace_expression_with_boolean_literal&#45;&gt;boolean_literal_cleanup</title>
<path fill="none" stroke="#000000" d="M392,-857.7297C392,-832.2604 392,-785.829 392,-755.7094"/>
<polygon fill="#000000" stroke="#000000" points="395.5001,-755.4197 392,-745.4198 388.5001,-755.4198 395.5001,-755.4197"/>
<text text-anchor="middle" x="416" y="-766.8" font-family="Times,serif" font-size="14.00" fill="#000000">Parent</text>
</g>
<!-- statement_cleanup -->
<g id="node3" class="node">
<title>statement_cleanup</title>
<ellipse fill="none" stroke="#000000" cx="340" cy="-503" rx="99.3824" ry="18"/>
<text text-anchor="middle" x="340" y="-499.3" font-family="Times,serif" font-size="14.00" fill="#000000">statement_cleanup</text>
</g>
<!-- boolean_literal_cleanup&#45;&gt;statement_cleanup -->
<g id="edge2" class="edge">
<title>boolean_literal_cleanup&#45;&gt;statement_cleanup</title>
<path fill="none" stroke="#000000" d="M387.7446,-708.6691C378.6758,-669.6036 357.3926,-577.9219 346.5693,-531.2987"/>
<polygon fill="#000000" stroke="#000000" points="349.912,-530.2195 344.2412,-521.27 343.0933,-531.8024 349.912,-530.2195"/>
<text text-anchor="middle" x="408" y="-679.8" font-family="Times,serif" font-size="14.00" fill="#000000">Parent</text>
</g>
<!-- boolean_expression_simplify -->
<g id="node6" class="node">
<title>boolean_expression_simplify</title>
<polygon fill="none" stroke="#000000" points="457,-348.5 457,-657.5 767,-657.5 767,-348.5 457,-348.5"/>
<text text-anchor="middle" x="612" y="-642.3" font-family="Times,serif" font-size="14.00" fill="#000000">boolean_expression_simplify</text>
<text text-anchor="middle" x="612" y="-611.3" font-family="Times,serif" font-size="14.00" fill="#000000">simplify_ladder_if_true</text>
<text text-anchor="middle" x="612" y="-596.3" font-family="Times,serif" font-size="14.00" fill="#000000">simplify_ladder_if_true_with_alternative</text>
<text text-anchor="middle" x="612" y="-581.3" font-family="Times,serif" font-size="14.00" fill="#000000">simplify_ladder_if_false_with_alternative</text>
<text text-anchor="middle" x="612" y="-566.3" font-family="Times,serif" font-size="14.00" fill="#000000">simplify_ladder_if_false</text>
<text text-anchor="middle" x="612" y="-551.3" font-family="Times,serif" font-size="14.00" fill="#000000">simplify_if_true</text>
<text text-anchor="middle" x="612" y="-536.3" font-family="Times,serif" font-size="14.00" fill="#000000">simplify_if_true_with_alternative</text>
<text text-anchor="middle" x="612" y="-521.3" font-family="Times,serif" font-size="14.00" fill="#000000">simplify_if_false_with_alternative</text>
<text text-anchor="middle" x="612" y="-506.3" font-family="Times,serif" font-size="14.00" fill="#000000">simplify_if_false</text>
<text text-anchor="middle" x="612" y="-491.3" font-family="Times,serif" font-size="14.00" fill="#000000">simplify_not_false</text>
<text text-anchor="middle" x="612" y="-476.3" font-family="Times,serif" font-size="14.00" fill="#000000">simplify_not_true</text>
<text text-anchor="middle" x="612" y="-461.3" font-family="Times,serif" font-size="14.00" fill="#000000">simplify_true_and_something</text>
<text text-anchor="middle" x="612" y="-446.3" font-family="Times,serif" font-size="14.00" fill="#000000">simplify_something_and_true</text>
<text text-anchor="middle" x="612" y="-431.3" font-family="Times,serif" font-size="14.00" fill="#000000">simplify_false_and_something</text>
<text text-anchor="middle" x="612" y="-416.3" font-family="Times,serif" font-size="14.00" fill="#000000">simplify_something_and_false</text>
<text text-anchor="middle" x="612" y="-401.3" font-family="Times,serif" font-size="14.00" fill="#000000">simplify_something_or_true</text>
<text text-anchor="middle" x="612" y="-386.3" font-family="Times,serif" font-size="14.00" fill="#000000">simplify_true_or_something</text>
<text text-anchor="middle" x="612" y="-371.3" font-family="Times,serif" font-size="14.00" fill="#000000">simplify_something_or_false</text>
<text text-anchor="middle" x="612" y="-356.3" font-family="Times,serif" font-size="14.00" fill="#000000">simplify_false_or_something</text>
</g>
<!-- boolean_literal_cleanup&#45;&gt;boolean_expression_simplify -->
<g id="edge3" class="edge">
<title>boolean_literal_cleanup&#45;&gt;boolean_expression_simplify</title>
<path fill="none" stroke="#000000" d="M414.872,-709.2437C421.821,-703.5971 429.3687,-697.203 436,-691 445.0173,-682.565 454.1374,-673.762 463.233,-664.7686"/>
<polygon fill="#000000" stroke="#000000" points="465.8995,-667.0529 470.5199,-657.5186 460.9623,-662.0906 465.8995,-667.0529"/>
<text text-anchor="middle" x="476" y="-679.8" font-family="Times,serif" font-size="14.00" fill="#000000">Parent</text>
</g>
<!-- delete_local_var_property_declaration -->
<g id="node9" class="node">
<title>delete_local_var_property_declaration</title>
<ellipse fill="none" stroke="#000000" cx="672" cy="-279" rx="189.2665" ry="18"/>
<text text-anchor="middle" x="672" y="-275.3" font-family="Times,serif" font-size="14.00" fill="#000000">delete_local_var_property_declaration</text>
</g>
<!-- statement_cleanup&#45;&gt;delete_local_var_property_declaration -->
<g id="edge4" class="edge">
<title>statement_cleanup&#45;&gt;delete_local_var_property_declaration</title>
<path fill="none" stroke="#000000" d="M347.6813,-484.9859C362.3711,-452.6803 397.534,-384.8362 448,-348 481.9359,-323.2295 524.9352,-307.2158 564.1667,-296.9248"/>
<polygon fill="#000000" stroke="#000000" points="565.2125,-300.2707 574.0519,-294.4298 563.4994,-293.4835 565.2125,-300.2707"/>
<text text-anchor="middle" x="528" y="-318.8" font-family="Times,serif" font-size="14.00" fill="#000000">Parent</text>
</g>
<!-- delete_parent_assignment -->
<g id="node11" class="node">
<title>delete_parent_assignment</title>
<ellipse fill="none" stroke="#000000" cx="576" cy="-192" rx="133.7763" ry="18"/>
<text text-anchor="middle" x="576" y="-188.3" font-family="Times,serif" font-size="14.00" fill="#000000">delete_parent_assignment</text>
</g>
<!-- statement_cleanup&#45;&gt;delete_parent_assignment -->
<g id="edge6" class="edge">
<title>statement_cleanup&#45;&gt;delete_parent_assignment</title>
<path fill="none" stroke="#000000" d="M341.6794,-484.7676C346.6367,-440.832 364.9307,-327.8076 426,-261 446.8468,-238.1943 476.7318,-222.3607 504.3477,-211.671"/>
<polygon fill="#000000" stroke="#000000" points="505.8368,-214.8521 514.0026,-208.1015 503.4094,-208.2864 505.8368,-214.8521"/>
<text text-anchor="middle" x="450" y="-275.3" font-family="Times,serif" font-size="14.00" fill="#000000">Parent</text>
</g>
<!-- delete_field_property_declaration -->
<g id="node12" class="node">
<title>delete_field_property_declaration</title>
<ellipse fill="none" stroke="#000000" cx="196" cy="-105" rx="167.8704" ry="18"/>
<text text-anchor="middle" x="196" y="-101.3" font-family="Times,serif" font-size="14.00" fill="#000000">delete_field_property_declaration</text>
</g>
<!-- statement_cleanup&#45;&gt;delete_field_property_declaration -->
<g id="edge5" class="edge">
<title>statement_cleanup&#45;&gt;delete_field_property_declaration</title>
<path fill="none" stroke="#000000" d="M333.4384,-484.8646C310.4802,-421.4105 233.6588,-209.0848 206.0166,-132.6848"/>
<polygon fill="#000000" stroke="#000000" points="209.2936,-131.4546 202.6001,-123.242 202.7112,-133.8362 209.2936,-131.4546"/>
<text text-anchor="middle" x="270" y="-231.8" font-family="Times,serif" font-size="14.00" fill="#000000">Parent</text>
</g>
<!-- delete_enum_entry -->
<g id="node4" class="node">
<title>delete_enum_entry</title>
<ellipse fill="none" stroke="#000000" cx="948" cy="-876" rx="100.1823" ry="18"/>
<text text-anchor="middle" x="948" y="-872.3" font-family="Times,serif" font-size="14.00" fill="#000000">delete_enum_entry</text>
</g>
<!-- delete_empty_enum_declaration -->
<g id="node5" class="node">
<title>delete_empty_enum_declaration</title>
<ellipse fill="none" stroke="#000000" cx="948" cy="-727" rx="161.6714" ry="18"/>
<text text-anchor="middle" x="948" y="-723.3" font-family="Times,serif" font-size="14.00" fill="#000000">delete_empty_enum_declaration</text>
</g>
<!-- delete_enum_entry&#45;&gt;delete_empty_enum_declaration -->
<g id="edge7" class="edge">
<title>delete_enum_entry&#45;&gt;delete_empty_enum_declaration</title>
<path fill="none" stroke="#000000" d="M948,-857.7297C948,-832.2604 948,-785.829 948,-755.7094"/>
<polygon fill="#000000" stroke="#000000" points="951.5001,-755.4197 948,-745.4198 944.5001,-755.4198 951.5001,-755.4197"/>
<text text-anchor="middle" x="972" y="-766.8" font-family="Times,serif" font-size="14.00" fill="#000000">Parent</text>
</g>
<!-- delete_file_with_no_declarations -->
<g id="node15" class="node">
<title>delete_file_with_no_declarations</title>
<ellipse fill="none" stroke="#000000" cx="948" cy="-503" rx="163.2712" ry="18"/>
<text text-anchor="middle" x="948" y="-499.3" font-family="Times,serif" font-size="14.00" fill="#000000">delete_file_with_no_declarations</text>
</g>
<!-- delete_empty_enum_declaration&#45;&gt;delete_file_with_no_declarations -->
<g id="edge8" class="edge">
<title>delete_empty_enum_declaration&#45;&gt;delete_file_with_no_declarations</title>
<path fill="none" stroke="#000000" d="M948,-708.6691C948,-669.6036 948,-577.9219 948,-531.2987"/>
<polygon fill="#000000" stroke="#000000" points="951.5001,-531.27 948,-521.27 944.5001,-531.27 951.5001,-531.27"/>
<text text-anchor="middle" x="972" y="-679.8" font-family="Times,serif" font-size="14.00" fill="#000000">Parent</text>
</g>
<!-- boolean_expression_simplify&#45;&gt;boolean_literal_cleanup -->
<g id="edge9" class="edge">
<title>boolean_expression_simplify&#45;&gt;boolean_literal_cleanup</title>
<path fill="none" stroke="#000000" d="M536.8121,-657.5394C526.9238,-669.8743 515.9984,-681.2937 504,-691 495.0346,-698.2527 484.5758,-704.0573 473.7186,-708.6999"/>
<polygon fill="#000000" stroke="#000000" points="472.1238,-705.5663 464.1023,-712.4877 474.6893,-712.0792 472.1238,-705.5663"/>
<text text-anchor="middle" x="542" y="-679.8" font-family="Times,serif" font-size="14.00" fill="#000000">Parent</text>
</g>
<!-- if_cleanup -->
<g id="node7" class="node">
<title>if_cleanup</title>
<polygon fill="none" stroke="#000000" points="1148,-796.5 1148,-955.5 1458,-955.5 1458,-796.5 1148,-796.5"/>
<text text-anchor="middle" x="1303" y="-940.3" font-family="Times,serif" font-size="14.00" fill="#000000">if_cleanup</text>
<text text-anchor="middle" x="1303" y="-909.3" font-family="Times,serif" font-size="14.00" fill="#000000">simplify_ladder_if_true</text>
<text text-anchor="middle" x="1303" y="-894.3" font-family="Times,serif" font-size="14.00" fill="#000000">simplify_ladder_if_true_with_alternative</text>
<text text-anchor="middle" x="1303" y="-879.3" font-family="Times,serif" font-size="14.00" fill="#000000">simplify_ladder_if_false_with_alternative</text>
<text text-anchor="middle" x="1303" y="-864.3" font-family="Times,serif" font-size="14.00" fill="#000000">simplify_ladder_if_false</text>
<text text-anchor="middle" x="1303" y="-849.3" font-family="Times,serif" font-size="14.00" fill="#000000">simplify_if_true</text>
<text text-anchor="middle" x="1303" y="-834.3" font-family="Times,serif" font-size="14.00" fill="#000000">simplify_if_true_with_alternative</text>
<text text-anchor="middle" x="1303" y="-819.3" font-family="Times,serif" font-size="14.00" fill="#000000">simplify_if_false_with_alternative</text>
<text text-anchor="middle" x="1303" y="-804.3" font-family="Times,serif" font-size="14.00" fill="#000000">simplify_if_false</text>
</g>
<!-- delete_all_statements_after_return -->
<g id="node14" class="node">
<title>delete_all_statements_after_return</title>
<ellipse fill="none" stroke="#000000" cx="1303" cy="-727" rx="174.6691" ry="18"/>
<text text-anchor="middle" x="1303" y="-723.3" font-family="Times,serif" font-size="14.00" fill="#000000">delete_all_statements_after_return</text>
</g>
<!-- if_cleanup&#45;&gt;delete_all_statements_after_return -->
<g id="edge10" class="edge">
<title>if_cleanup&#45;&gt;delete_all_statements_after_return</title>
<path fill="none" stroke="#000000" d="M1303,-796.2656C1303,-781.5386 1303,-767.0859 1303,-755.2243"/>
<polygon fill="#000000" stroke="#000000" points="1306.5001,-755.126 1303,-745.126 1299.5001,-755.126 1306.5001,-755.126"/>
<text text-anchor="middle" x="1327" y="-766.8" font-family="Times,serif" font-size="14.00" fill="#000000">Parent</text>
</g>
<!-- replace_identifier_with_value -->
<g id="node8" class="node">
<title>replace_identifier_with_value</title>
<ellipse fill="none" stroke="#000000" cx="151" cy="-18" rx="148.3739" ry="18"/>
<text text-anchor="middle" x="151" y="-14.3" font-family="Times,serif" font-size="14.00" fill="#000000">replace_identifier_with_value</text>
</g>
<!-- replace_identifier_with_value&#45;&gt;boolean_literal_cleanup -->
<g id="edge11" class="edge">
<title>replace_identifier_with_value&#45;&gt;boolean_literal_cleanup</title>
<path fill="none" stroke="#000000" d="M72.8462,-33.3196C36.0012,-45.5522 0,-67.181 0,-105 0,-503 0,-503 0,-503 0,-636.6665 173.9429,-691.6498 290.0908,-713.4647"/>
<polygon fill="#000000" stroke="#000000" points="289.6277,-716.9379 300.0934,-715.2887 290.8836,-710.0515 289.6277,-716.9379"/>
<text text-anchor="middle" x="24" y="-231.8" font-family="Times,serif" font-size="14.00" fill="#000000">Parent</text>
</g>
<!-- delete_local_var_property_declaration&#45;&gt;replace_identifier_with_value -->
<g id="edge12" class="edge">
<title>delete_local_var_property_declaration&#45;&gt;replace_identifier_with_value</title>
<path fill="none" stroke="#000000" d="M586.5367,-262.9248C527.4004,-250.24 455.4577,-231.1937 433,-210 379.5333,-159.5426 434.4852,-101.0539 378,-54 368.9642,-46.4729 320.1107,-38.2439 270.0287,-31.5557"/>
<polygon fill="#000000" stroke="#000000" points="270.378,-28.0716 260.0073,-30.2393 269.4663,-35.012 270.378,-28.0716"/>
<text text-anchor="middle" x="440" y="-144.8" font-family="Times,serif" font-size="14.00" fill="#000000">Function</text>
</g>
<!-- delete_local_var_property_declaration&#45;&gt;delete_parent_assignment -->
<g id="edge14" class="edge">
<title>delete_local_var_property_declaration&#45;&gt;delete_parent_assignment</title>
<path fill="none" stroke="#000000" d="M652.1087,-260.9735C638.0784,-248.2586 619.101,-231.0603 603.6064,-217.0183"/>
<polygon fill="#000000" stroke="#000000" points="605.626,-214.1251 595.8658,-210.0034 600.9253,-219.3121 605.626,-214.1251"/>
<text text-anchor="middle" x="662" y="-231.8" font-family="Times,serif" font-size="14.00" fill="#000000">Function</text>
</g>
<!-- delete_boolean_assignments_for_local_variable -->
<g id="node16" class="node">
<title>delete_boolean_assignments_for_local_variable</title>
<ellipse fill="none" stroke="#000000" cx="941" cy="-18" rx="231.259" ry="18"/>
<text text-anchor="middle" x="941" y="-14.3" font-family="Times,serif" font-size="14.00" fill="#000000">delete_boolean_assignments_for_local_variable</text>
</g>
<!-- delete_local_var_property_declaration&#45;&gt;delete_boolean_assignments_for_local_variable -->
<g id="edge13" class="edge">
<title>delete_local_var_property_declaration&#45;&gt;delete_boolean_assignments_for_local_variable</title>
<path fill="none" stroke="#000000" d="M690.4895,-261.0604C737.328,-215.6148 860.7648,-95.849 914.9123,-43.3118"/>
<polygon fill="#000000" stroke="#000000" points="917.6414,-45.5406 922.3812,-36.0651 912.7669,-40.5167 917.6414,-45.5406"/>
<text text-anchor="middle" x="845" y="-144.8" font-family="Times,serif" font-size="14.00" fill="#000000">Function</text>
</g>
<!-- delete_property_declaration_named -->
<g id="node10" class="node">
<title>delete_property_declaration_named</title>
<ellipse fill="none" stroke="#000000" cx="599" cy="-105" rx="178.9686" ry="18"/>
<text text-anchor="middle" x="599" y="-101.3" font-family="Times,serif" font-size="14.00" fill="#000000">delete_property_declaration_named</text>
</g>
<!-- delete_property_declaration_named&#45;&gt;replace_identifier_with_value -->
<g id="edge15" class="edge">
<title>delete_property_declaration_named&#45;&gt;replace_identifier_with_value</title>
<path fill="none" stroke="#000000" d="M541.5677,-87.9183C503.4036,-77.0404 452.0308,-63.2972 406,-54 361.4797,-45.0079 312.1382,-37.4834 268.8124,-31.6779"/>
<polygon fill="#000000" stroke="#000000" points="269.1753,-28.1955 258.8024,-30.3526 268.2565,-35.1349 269.1753,-28.1955"/>
<text text-anchor="middle" x="503" y="-57.8" font-family="Times,serif" font-size="14.00" fill="#000000">Function</text>
</g>
<!-- delete_property_declaration_named&#45;&gt;delete_parent_assignment -->
<g id="edge18" class="edge">
<title>delete_property_declaration_named&#45;&gt;delete_parent_assignment</title>
<path fill="none" stroke="#000000" d="M561.6184,-122.7703C554.9397,-127.7047 548.8811,-133.7481 545,-141 540.573,-149.2719 543.1558,-158.0725 548.3436,-165.993"/>
<polygon fill="#000000" stroke="#000000" points="545.5885,-168.1517 554.5081,-173.8694 551.1009,-163.8373 545.5885,-168.1517"/>
<text text-anchor="middle" x="577" y="-144.8" font-family="Times,serif" font-size="14.00" fill="#000000">Function</text>
</g>
<!-- delete_boolean_assignments_for_field -->
<g id="node13" class="node">
<title>delete_boolean_assignments_for_field</title>
<ellipse fill="none" stroke="#000000" cx="504" cy="-18" rx="187.367" ry="18"/>
<text text-anchor="middle" x="504" y="-14.3" font-family="Times,serif" font-size="14.00" fill="#000000">delete_boolean_assignments_for_field</text>
</g>
<!-- delete_property_declaration_named&#45;&gt;delete_boolean_assignments_for_field -->
<g id="edge17" class="edge">
<title>delete_property_declaration_named&#45;&gt;delete_boolean_assignments_for_field</title>
<path fill="none" stroke="#000000" d="M579.3159,-86.9735C565.4318,-74.2586 546.652,-57.0603 531.3188,-43.0183"/>
<polygon fill="#000000" stroke="#000000" points="533.3974,-40.1759 523.6588,-36.0034 528.6698,-45.3383 533.3974,-40.1759"/>
<text text-anchor="middle" x="590" y="-57.8" font-family="Times,serif" font-size="14.00" fill="#000000">Function</text>
</g>
<!-- delete_property_declaration_named&#45;&gt;delete_boolean_assignments_for_local_variable -->
<g id="edge16" class="edge">
<title>delete_property_declaration_named&#45;&gt;delete_boolean_assignments_for_local_variable</title>
<path fill="none" stroke="#000000" d="M664.941,-88.2255C721.6643,-73.7959 803.5687,-52.9606 863.4303,-37.7327"/>
<polygon fill="#000000" stroke="#000000" points="864.3862,-41.101 873.2147,-35.2436 862.6604,-34.3171 864.3862,-41.101"/>
<text text-anchor="middle" x="823" y="-57.8" font-family="Times,serif" font-size="14.00" fill="#000000">Function</text>
</g>
<!-- delete_parent_assignment&#45;&gt;delete_property_declaration_named -->
<g id="edge19" class="edge">
<title>delete_parent_assignment&#45;&gt;delete_property_declaration_named</title>
<path fill="none" stroke="#000000" d="M597.1762,-174.0732C601.9776,-168.7951 606.4181,-162.6375 609,-156 611.7885,-148.8313 611.6109,-140.7815 610.1334,-133.2323"/>
<polygon fill="#000000" stroke="#000000" points="613.4579,-132.1182 607.4694,-123.3782 606.7005,-133.945 613.4579,-132.1182"/>
<text text-anchor="middle" x="644" y="-144.8" font-family="Times,serif" font-size="14.00" fill="#000000">Function</text>
</g>
<!-- delete_field_property_declaration&#45;&gt;replace_identifier_with_value -->
<g id="edge20" class="edge">
<title>delete_field_property_declaration&#45;&gt;replace_identifier_with_value</title>
<path fill="none" stroke="#000000" d="M186.676,-86.9735C180.4009,-74.8418 172.0148,-58.6287 164.9499,-44.9698"/>
<polygon fill="#000000" stroke="#000000" points="168.0151,-43.2776 160.3121,-36.0034 161.7976,-46.4935 168.0151,-43.2776"/>
<text text-anchor="middle" x="197" y="-57.8" font-family="Times,serif" font-size="14.00" fill="#000000">Class</text>
</g>
<!-- delete_field_property_declaration&#45;&gt;delete_boolean_assignments_for_field -->
<g id="edge21" class="edge">
<title>delete_field_property_declaration&#45;&gt;delete_boolean_assignments_for_field</title>
<path fill="none" stroke="#000000" d="M255.7507,-88.1224C306.7215,-73.7248 380.0741,-53.0051 433.8282,-37.8213"/>
<polygon fill="#000000" stroke="#000000" points="434.9553,-41.1399 443.6273,-35.0533 433.0525,-34.4035 434.9553,-41.1399"/>
<text text-anchor="middle" x="389" y="-57.8" font-family="Times,serif" font-size="14.00" fill="#000000">Class</text>
</g>
</g>
</svg>
