<?xml version="1.0" encoding="UTF-8" standalone="no"?>
<!DOCTYPE svg PUBLIC "-//W3C//DTD SVG 1.1//EN"
 "http://www.w3.org/Graphics/SVG/1.1/DTD/svg11.dtd">
<!-- Generated by graphviz version 2.40.1 (20161225.0304)
 -->
<!-- Title: %3 Pages: 1 -->
<svg width="1499pt" height="1013pt"
 viewBox="0.00 0.00 1498.83 1013.00" xmlns="http://www.w3.org/2000/svg" xmlns:xlink="http://www.w3.org/1999/xlink">
<g id="graph0" class="graph" transform="scale(1 1) rotate(0) translate(4 1009)">
<title>%3</title>
<polygon fill="#ffffff" stroke="transparent" points="-4,4 -4,-1009 1494.8345,-1009 1494.8345,4 -4,4"/>
<text text-anchor="middle" x="745.4172" y="-977" font-family="Times,serif" font-size="30.00" fill="#000000">Kotlin pre&#45;built cleanup rules</text>
<!-- replace_expression_with_boolean_literal -->
<g id="node1" class="node">
<title>replace_expression_with_boolean_literal</title>
<ellipse fill="none" stroke="#000000" cx="393" cy="-884" rx="199.5646" ry="18"/>
<text text-anchor="middle" x="393" y="-880.3" font-family="Times,serif" font-size="14.00" fill="#000000">replace_expression_with_boolean_literal</text>
</g>
<!-- boolean_literal_cleanup -->
<g id="node2" class="node">
<title>boolean_literal_cleanup</title>
<polygon fill="none" stroke="#000000" points="523.7038,-723.5442 523.7038,-738.4558 447.1393,-749 338.8607,-749 262.2962,-738.4558 262.2962,-723.5442 338.8607,-713 447.1393,-713 523.7038,-723.5442"/>
<polygon fill="none" stroke="#000000" points="527.6994,-720.0567 527.6994,-741.9433 447.4128,-753 338.5872,-753 258.3006,-741.9433 258.3006,-720.0567 338.5872,-709 447.4128,-709 527.6994,-720.0567"/>
<text text-anchor="middle" x="393" y="-727.3" font-family="Times,serif" font-size="14.00" fill="#000000">boolean_literal_cleanup</text>
</g>
<!-- replace_expression_with_boolean_literal&#45;&gt;boolean_literal_cleanup -->
<g id="edge1" class="edge">
<title>replace_expression_with_boolean_literal&#45;&gt;boolean_literal_cleanup</title>
<path fill="none" stroke="#000000" d="M393,-865.8481C393,-840.6404 393,-794.623 393,-763.4341"/>
<polygon fill="#000000" stroke="#000000" points="396.5001,-763.079 393,-753.079 389.5001,-763.079 396.5001,-763.079"/>
<text text-anchor="middle" x="417" y="-774.8" font-family="Times,serif" font-size="14.00" fill="#000000">Parent</text>
</g>
<!-- statement_cleanup -->
<g id="node3" class="node">
<title>statement_cleanup</title>
<polygon fill="none" stroke="#000000" points="447.764,-495.5442 447.764,-510.4558 384.6373,-521 295.3627,-521 232.236,-510.4558 232.236,-495.5442 295.3627,-485 384.6373,-485 447.764,-495.5442"/>
<polygon fill="none" stroke="#000000" points="451.7689,-492.1575 451.7689,-513.8425 384.9699,-525 295.0301,-525 228.2311,-513.8425 228.2311,-492.1575 295.0301,-481 384.9699,-481 451.7689,-492.1575"/>
<text text-anchor="middle" x="340" y="-499.3" font-family="Times,serif" font-size="14.00" fill="#000000">statement_cleanup</text>
</g>
<!-- boolean_literal_cleanup&#45;&gt;statement_cleanup -->
<g id="edge2" class="edge">
<title>boolean_literal_cleanup&#45;&gt;statement_cleanup</title>
<path fill="none" stroke="#000000" d="M387.8216,-708.7233C378.3775,-668.0956 358.3272,-581.8413 347.4286,-534.9568"/>
<polygon fill="#000000" stroke="#000000" points="350.7947,-533.9793 345.1214,-525.0315 343.9765,-535.5643 350.7947,-533.9793"/>
<text text-anchor="middle" x="407" y="-679.8" font-family="Times,serif" font-size="14.00" fill="#000000">Parent</text>
</g>
<!-- boolean_expression_simplify -->
<g id="node6" class="node">
<title>boolean_expression_simplify</title>
<polygon fill="none" stroke="#000000" points="470,-348.5 470,-657.5 780,-657.5 780,-348.5 470,-348.5"/>
<text text-anchor="middle" x="625" y="-642.3" font-family="Times,serif" font-size="14.00" fill="#000000">boolean_expression_simplify</text>
<text text-anchor="middle" x="625" y="-611.3" font-family="Times,serif" font-size="14.00" fill="#000000">simplify_ladder_if_true</text>
<text text-anchor="middle" x="625" y="-596.3" font-family="Times,serif" font-size="14.00" fill="#000000">simplify_ladder_if_true_with_alternative</text>
<text text-anchor="middle" x="625" y="-581.3" font-family="Times,serif" font-size="14.00" fill="#000000">simplify_ladder_if_false_with_alternative</text>
<text text-anchor="middle" x="625" y="-566.3" font-family="Times,serif" font-size="14.00" fill="#000000">simplify_ladder_if_false</text>
<text text-anchor="middle" x="625" y="-551.3" font-family="Times,serif" font-size="14.00" fill="#000000">simplify_if_true</text>
<text text-anchor="middle" x="625" y="-536.3" font-family="Times,serif" font-size="14.00" fill="#000000">simplify_if_true_with_alternative</text>
<text text-anchor="middle" x="625" y="-521.3" font-family="Times,serif" font-size="14.00" fill="#000000">simplify_if_false_with_alternative</text>
<text text-anchor="middle" x="625" y="-506.3" font-family="Times,serif" font-size="14.00" fill="#000000">simplify_if_false</text>
<text text-anchor="middle" x="625" y="-491.3" font-family="Times,serif" font-size="14.00" fill="#000000">simplify_not_false</text>
<text text-anchor="middle" x="625" y="-476.3" font-family="Times,serif" font-size="14.00" fill="#000000">simplify_not_true</text>
<text text-anchor="middle" x="625" y="-461.3" font-family="Times,serif" font-size="14.00" fill="#000000">simplify_true_and_something</text>
<text text-anchor="middle" x="625" y="-446.3" font-family="Times,serif" font-size="14.00" fill="#000000">simplify_something_and_true</text>
<text text-anchor="middle" x="625" y="-431.3" font-family="Times,serif" font-size="14.00" fill="#000000">simplify_false_and_something</text>
<text text-anchor="middle" x="625" y="-416.3" font-family="Times,serif" font-size="14.00" fill="#000000">simplify_something_and_false</text>
<text text-anchor="middle" x="625" y="-401.3" font-family="Times,serif" font-size="14.00" fill="#000000">simplify_something_or_true</text>
<text text-anchor="middle" x="625" y="-386.3" font-family="Times,serif" font-size="14.00" fill="#000000">simplify_true_or_something</text>
<text text-anchor="middle" x="625" y="-371.3" font-family="Times,serif" font-size="14.00" fill="#000000">simplify_something_or_false</text>
<text text-anchor="middle" x="625" y="-356.3" font-family="Times,serif" font-size="14.00" fill="#000000">simplify_false_or_something</text>
</g>
<!-- boolean_literal_cleanup&#45;&gt;boolean_expression_simplify -->
<g id="edge3" class="edge">
<title>boolean_literal_cleanup&#45;&gt;boolean_expression_simplify</title>
<path fill="none" stroke="#000000" d="M416.622,-708.6537C422.6371,-702.9221 429.0755,-696.7513 435,-691 444.0875,-682.1782 453.397,-673.1006 462.7777,-663.922"/>
<polygon fill="#000000" stroke="#000000" points="465.2667,-666.3833 469.9626,-656.8859 460.369,-661.382 465.2667,-666.3833"/>
<text text-anchor="middle" x="470" y="-679.8" font-family="Times,serif" font-size="14.00" fill="#000000">Parent</text>
</g>
<!-- delete_local_var_property_declaration -->
<g id="node9" class="node">
<title>delete_local_var_property_declaration</title>
<ellipse fill="none" stroke="#000000" cx="672" cy="-279" rx="189.2665" ry="18"/>
<text text-anchor="middle" x="672" y="-275.3" font-family="Times,serif" font-size="14.00" fill="#000000">delete_local_var_property_declaration</text>
</g>
<!-- statement_cleanup&#45;&gt;delete_local_var_property_declaration -->
<g id="edge4" class="edge">
<title>statement_cleanup&#45;&gt;delete_local_var_property_declaration</title>
<path fill="none" stroke="#000000" d="M351.5847,-480.8576C370.2244,-447.3264 410.0058,-383.7936 461,-348 494.8806,-324.2187 537.4716,-308.2468 575.5009,-297.7175"/>
<polygon fill="#000000" stroke="#000000" points="576.8206,-300.9877 585.5772,-295.0235 575.0125,-294.2252 576.8206,-300.9877"/>
<text text-anchor="middle" x="544" y="-318.8" font-family="Times,serif" font-size="14.00" fill="#000000">Parent</text>
</g>
<!-- delete_parent_assignment -->
<g id="node11" class="node">
<title>delete_parent_assignment</title>
<ellipse fill="none" stroke="#000000" cx="576" cy="-192" rx="133.7763" ry="18"/>
<text text-anchor="middle" x="576" y="-188.3" font-family="Times,serif" font-size="14.00" fill="#000000">delete_parent_assignment</text>
</g>
<!-- statement_cleanup&#45;&gt;delete_parent_assignment -->
<g id="edge6" class="edge">
<title>statement_cleanup&#45;&gt;delete_parent_assignment</title>
<path fill="none" stroke="#000000" d="M342.1547,-480.6938C347.7555,-434.1911 366.7357,-325.833 426,-261 446.8468,-238.1943 476.7318,-222.3607 504.3477,-211.671"/>
<polygon fill="#000000" stroke="#000000" points="505.8368,-214.8521 514.0026,-208.1015 503.4094,-208.2864 505.8368,-214.8521"/>
<text text-anchor="middle" x="450" y="-275.3" font-family="Times,serif" font-size="14.00" fill="#000000">Parent</text>
</g>
<!-- delete_field_property_declaration -->
<g id="node12" class="node">
<title>delete_field_property_declaration</title>
<ellipse fill="none" stroke="#000000" cx="196" cy="-105" rx="167.8704" ry="18"/>
<text text-anchor="middle" x="196" y="-101.3" font-family="Times,serif" font-size="14.00" fill="#000000">delete_field_property_declaration</text>
</g>
<!-- statement_cleanup&#45;&gt;delete_field_property_declaration -->
<g id="edge5" class="edge">
<title>statement_cleanup&#45;&gt;delete_field_property_declaration</title>
<path fill="none" stroke="#000000" d="M331.9494,-480.749C307.3419,-412.7366 233.155,-207.6923 206.053,-132.7855"/>
<polygon fill="#000000" stroke="#000000" points="209.2449,-131.32 202.5514,-123.1073 202.6625,-133.7016 209.2449,-131.32"/>
<text text-anchor="middle" x="270" y="-231.8" font-family="Times,serif" font-size="14.00" fill="#000000">Parent</text>
</g>
<!-- delete_enum_entry -->
<g id="node4" class="node">
<title>delete_enum_entry</title>
<ellipse fill="none" stroke="#000000" cx="961" cy="-884" rx="100.1823" ry="18"/>
<text text-anchor="middle" x="961" y="-880.3" font-family="Times,serif" font-size="14.00" fill="#000000">delete_enum_entry</text>
</g>
<!-- delete_empty_enum_declaration -->
<g id="node5" class="node">
<title>delete_empty_enum_declaration</title>
<ellipse fill="none" stroke="#000000" cx="961" cy="-731" rx="161.6714" ry="18"/>
<text text-anchor="middle" x="961" y="-727.3" font-family="Times,serif" font-size="14.00" fill="#000000">delete_empty_enum_declaration</text>
</g>
<!-- delete_enum_entry&#45;&gt;delete_empty_enum_declaration -->
<g id="edge7" class="edge">
<title>delete_enum_entry&#45;&gt;delete_empty_enum_declaration</title>
<path fill="none" stroke="#000000" d="M961,-865.8481C961,-839.5075 961,-790.4446 961,-759.3219"/>
<polygon fill="#000000" stroke="#000000" points="964.5001,-759.1283 961,-749.1283 957.5001,-759.1283 964.5001,-759.1283"/>
<text text-anchor="middle" x="985" y="-774.8" font-family="Times,serif" font-size="14.00" fill="#000000">Parent</text>
</g>
<!-- delete_file_with_no_declarations -->
<g id="node13" class="node">
<title>delete_file_with_no_declarations</title>
<ellipse fill="none" stroke="#000000" cx="961" cy="-503" rx="163.2712" ry="18"/>
<text text-anchor="middle" x="961" y="-499.3" font-family="Times,serif" font-size="14.00" fill="#000000">delete_file_with_no_declarations</text>
</g>
<!-- delete_empty_enum_declaration&#45;&gt;delete_file_with_no_declarations -->
<g id="edge8" class="edge">
<title>delete_empty_enum_declaration&#45;&gt;delete_file_with_no_declarations</title>
<path fill="none" stroke="#000000" d="M961,-712.7272C961,-673.0232 961,-578.6466 961,-531.2228"/>
<polygon fill="#000000" stroke="#000000" points="964.5001,-531.0433 961,-521.0433 957.5001,-531.0434 964.5001,-531.0433"/>
<text text-anchor="middle" x="985" y="-679.8" font-family="Times,serif" font-size="14.00" fill="#000000">Parent</text>
</g>
<!-- boolean_expression_simplify&#45;&gt;boolean_literal_cleanup -->
<g id="edge9" class="edge">
<title>boolean_expression_simplify&#45;&gt;boolean_literal_cleanup</title>
<path fill="none" stroke="#000000" d="M532.701,-657.7603C521.9347,-669.8931 510.3461,-681.2121 498,-691 490.3187,-697.0896 481.6074,-702.3298 472.5663,-706.8193"/>
<polygon fill="#000000" stroke="#000000" points="471.0332,-703.6723 463.4412,-711.0623 473.9846,-710.0197 471.0332,-703.6723"/>
<text text-anchor="middle" x="536" y="-679.8" font-family="Times,serif" font-size="14.00" fill="#000000">Parent</text>
</g>
<!-- if_cleanup -->
<g id="node7" class="node">
<title>if_cleanup</title>
<polygon fill="none" stroke="#000000" points="1161,-804.5 1161,-963.5 1471,-963.5 1471,-804.5 1161,-804.5"/>
<text text-anchor="middle" x="1316" y="-948.3" font-family="Times,serif" font-size="14.00" fill="#000000">if_cleanup</text>
<text text-anchor="middle" x="1316" y="-917.3" font-family="Times,serif" font-size="14.00" fill="#000000">simplify_ladder_if_true</text>
<text text-anchor="middle" x="1316" y="-902.3" font-family="Times,serif" font-size="14.00" fill="#000000">simplify_ladder_if_true_with_alternative</text>
<text text-anchor="middle" x="1316" y="-887.3" font-family="Times,serif" font-size="14.00" fill="#000000">simplify_ladder_if_false_with_alternative</text>
<text text-anchor="middle" x="1316" y="-872.3" font-family="Times,serif" font-size="14.00" fill="#000000">simplify_ladder_if_false</text>
<text text-anchor="middle" x="1316" y="-857.3" font-family="Times,serif" font-size="14.00" fill="#000000">simplify_if_true</text>
<text text-anchor="middle" x="1316" y="-842.3" font-family="Times,serif" font-size="14.00" fill="#000000">simplify_if_true_with_alternative</text>
<text text-anchor="middle" x="1316" y="-827.3" font-family="Times,serif" font-size="14.00" fill="#000000">simplify_if_false_with_alternative</text>
<text text-anchor="middle" x="1316" y="-812.3" font-family="Times,serif" font-size="14.00" fill="#000000">simplify_if_false</text>
</g>
<!-- delete_all_statements_after_return -->
<g id="node15" class="node">
<title>delete_all_statements_after_return</title>
<ellipse fill="none" stroke="#000000" cx="1316" cy="-731" rx="174.6691" ry="18"/>
<text text-anchor="middle" x="1316" y="-727.3" font-family="Times,serif" font-size="14.00" fill="#000000">delete_all_statements_after_return</text>
</g>
<!-- if_cleanup&#45;&gt;delete_all_statements_after_return -->
<g id="edge10" class="edge">
<title>if_cleanup&#45;&gt;delete_all_statements_after_return</title>
<path fill="none" stroke="#000000" d="M1316,-804.3631C1316,-788.1393 1316,-772.104 1316,-759.1824"/>
<polygon fill="#000000" stroke="#000000" points="1319.5001,-759.1247 1316,-749.1248 1312.5001,-759.1248 1319.5001,-759.1247"/>
<text text-anchor="middle" x="1340" y="-774.8" font-family="Times,serif" font-size="14.00" fill="#000000">Parent</text>
</g>
<!-- replace_identifier_with_value -->
<g id="node8" class="node">
<title>replace_identifier_with_value</title>
<ellipse fill="none" stroke="#000000" cx="151" cy="-18" rx="148.3739" ry="18"/>
<text text-anchor="middle" x="151" y="-14.3" font-family="Times,serif" font-size="14.00" fill="#000000">replace_identifier_with_value</text>
</g>
<!-- replace_identifier_with_value&#45;&gt;boolean_literal_cleanup -->
<g id="edge11" class="edge">
<title>replace_identifier_with_value&#45;&gt;boolean_literal_cleanup</title>
<path fill="none" stroke="#000000" d="M72.8462,-33.3196C36.0012,-45.5522 0,-67.181 0,-105 0,-503 0,-503 0,-503 0,-632.4361 161.4692,-689.6155 277.4086,-713.9888"/>
<polygon fill="#000000" stroke="#000000" points="276.9263,-717.4625 287.4248,-716.0373 278.3289,-710.6045 276.9263,-717.4625"/>
<text text-anchor="middle" x="24" y="-231.8" font-family="Times,serif" font-size="14.00" fill="#000000">Parent</text>
</g>
<!-- delete_local_var_property_declaration&#45;&gt;replace_identifier_with_value -->
<g id="edge12" class="edge">
<title>delete_local_var_property_declaration&#45;&gt;replace_identifier_with_value</title>
<path fill="none" stroke="#000000" d="M586.5367,-262.9248C527.4004,-250.24 455.4577,-231.1937 433,-210 379.5333,-159.5426 434.4852,-101.0539 378,-54 368.9642,-46.4729 320.1107,-38.2439 270.0287,-31.5557"/>
<polygon fill="#000000" stroke="#000000" points="270.378,-28.0716 260.0073,-30.2393 269.4663,-35.012 270.378,-28.0716"/>
<text text-anchor="middle" x="440" y="-144.8" font-family="Times,serif" font-size="14.00" fill="#000000">Function</text>
</g>
<!-- delete_local_var_property_declaration&#45;&gt;delete_parent_assignment -->
<g id="edge14" class="edge">
<title>delete_local_var_property_declaration&#45;&gt;delete_parent_assignment</title>
<path fill="none" stroke="#000000" d="M652.1087,-260.9735C638.0784,-248.2586 619.101,-231.0603 603.6064,-217.0183"/>
<polygon fill="#000000" stroke="#000000" points="605.626,-214.1251 595.8658,-210.0034 600.9253,-219.3121 605.626,-214.1251"/>
<text text-anchor="middle" x="662" y="-231.8" font-family="Times,serif" font-size="14.00" fill="#000000">Function</text>
</g>
<!-- delete_boolean_assignments_for_local_variable -->
<g id="node16" class="node">
<title>delete_boolean_assignments_for_local_variable</title>
<ellipse fill="none" stroke="#000000" cx="941" cy="-18" rx="231.259" ry="18"/>
<text text-anchor="middle" x="941" y="-14.3" font-family="Times,serif" font-size="14.00" fill="#000000">delete_boolean_assignments_for_local_variable</text>
</g>
<!-- delete_local_var_property_declaration&#45;&gt;delete_boolean_assignments_for_local_variable -->
<g id="edge13" class="edge">
<title>delete_local_var_property_declaration&#45;&gt;delete_boolean_assignments_for_local_variable</title>
<path fill="none" stroke="#000000" d="M690.4895,-261.0604C737.328,-215.6148 860.7648,-95.849 914.9123,-43.3118"/>
<polygon fill="#000000" stroke="#000000" points="917.6414,-45.5406 922.3812,-36.0651 912.7669,-40.5167 917.6414,-45.5406"/>
<text text-anchor="middle" x="845" y="-144.8" font-family="Times,serif" font-size="14.00" fill="#000000">Function</text>
</g>
<!-- delete_property_declaration_named -->
<g id="node10" class="node">
<title>delete_property_declaration_named</title>
<ellipse fill="none" stroke="#000000" cx="599" cy="-105" rx="178.9686" ry="18"/>
<text text-anchor="middle" x="599" y="-101.3" font-family="Times,serif" font-size="14.00" fill="#000000">delete_property_declaration_named</text>
</g>
<!-- delete_property_declaration_named&#45;&gt;replace_identifier_with_value -->
<g id="edge15" class="edge">
<title>delete_property_declaration_named&#45;&gt;replace_identifier_with_value</title>
<path fill="none" stroke="#000000" d="M541.5677,-87.9183C503.4036,-77.0404 452.0308,-63.2972 406,-54 361.4797,-45.0079 312.1382,-37.4834 268.8124,-31.6779"/>
<polygon fill="#000000" stroke="#000000" points="269.1753,-28.1955 258.8024,-30.3526 268.2565,-35.1349 269.1753,-28.1955"/>
<text text-anchor="middle" x="503" y="-57.8" font-family="Times,serif" font-size="14.00" fill="#000000">Function</text>
</g>
<!-- delete_property_declaration_named&#45;&gt;delete_parent_assignment -->
<g id="edge18" class="edge">
<title>delete_property_declaration_named&#45;&gt;delete_parent_assignment</title>
<path fill="none" stroke="#000000" d="M561.6184,-122.7703C554.9397,-127.7047 548.8811,-133.7481 545,-141 540.573,-149.2719 543.1558,-158.0725 548.3436,-165.993"/>
<polygon fill="#000000" stroke="#000000" points="545.5885,-168.1517 554.5081,-173.8694 551.1009,-163.8373 545.5885,-168.1517"/>
<text text-anchor="middle" x="577" y="-144.8" font-family="Times,serif" font-size="14.00" fill="#000000">Function</text>
</g>
<!-- delete_boolean_assignments_for_field -->
<g id="node14" class="node">
<title>delete_boolean_assignments_for_field</title>
<ellipse fill="none" stroke="#000000" cx="504" cy="-18" rx="187.367" ry="18"/>
<text text-anchor="middle" x="504" y="-14.3" font-family="Times,serif" font-size="14.00" fill="#000000">delete_boolean_assignments_for_field</text>
</g>
<!-- delete_property_declaration_named&#45;&gt;delete_boolean_assignments_for_field -->
<g id="edge17" class="edge">
<title>delete_property_declaration_named&#45;&gt;delete_boolean_assignments_for_field</title>
<path fill="none" stroke="#000000" d="M579.3159,-86.9735C565.4318,-74.2586 546.652,-57.0603 531.3188,-43.0183"/>
<polygon fill="#000000" stroke="#000000" points="533.3974,-40.1759 523.6588,-36.0034 528.6698,-45.3383 533.3974,-40.1759"/>
<text text-anchor="middle" x="590" y="-57.8" font-family="Times,serif" font-size="14.00" fill="#000000">Function</text>
</g>
<!-- delete_property_declaration_named&#45;&gt;delete_boolean_assignments_for_local_variable -->
<g id="edge16" class="edge">
<title>delete_property_declaration_named&#45;&gt;delete_boolean_assignments_for_local_variable</title>
<path fill="none" stroke="#000000" d="M664.941,-88.2255C721.6643,-73.7959 803.5687,-52.9606 863.4303,-37.7327"/>
<polygon fill="#000000" stroke="#000000" points="864.3862,-41.101 873.2147,-35.2436 862.6604,-34.3171 864.3862,-41.101"/>
<text text-anchor="middle" x="823" y="-57.8" font-family="Times,serif" font-size="14.00" fill="#000000">Function</text>
</g>
<!-- delete_parent_assignment&#45;&gt;delete_property_declaration_named -->
<g id="edge19" class="edge">
<title>delete_parent_assignment&#45;&gt;delete_property_declaration_named</title>
<path fill="none" stroke="#000000" d="M597.1762,-174.0732C601.9776,-168.7951 606.4181,-162.6375 609,-156 611.7885,-148.8313 611.6109,-140.7815 610.1334,-133.2323"/>
<polygon fill="#000000" stroke="#000000" points="613.4579,-132.1182 607.4694,-123.3782 606.7005,-133.945 613.4579,-132.1182"/>
<text text-anchor="middle" x="644" y="-144.8" font-family="Times,serif" font-size="14.00" fill="#000000">Function</text>
</g>
<!-- delete_field_property_declaration&#45;&gt;replace_identifier_with_value -->
<g id="edge20" class="edge">
<title>delete_field_property_declaration&#45;&gt;replace_identifier_with_value</title>
<path fill="none" stroke="#000000" d="M186.676,-86.9735C180.4009,-74.8418 172.0148,-58.6287 164.9499,-44.9698"/>
<polygon fill="#000000" stroke="#000000" points="168.0151,-43.2776 160.3121,-36.0034 161.7976,-46.4935 168.0151,-43.2776"/>
<text text-anchor="middle" x="197" y="-57.8" font-family="Times,serif" font-size="14.00" fill="#000000">Class</text>
</g>
<!-- delete_field_property_declaration&#45;&gt;delete_boolean_assignments_for_field -->
<g id="edge21" class="edge">
<title>delete_field_property_declaration&#45;&gt;delete_boolean_assignments_for_field</title>
<path fill="none" stroke="#000000" d="M255.7507,-88.1224C306.7215,-73.7248 380.0741,-53.0051 433.8282,-37.8213"/>
<polygon fill="#000000" stroke="#000000" points="434.9553,-41.1399 443.6273,-35.0533 433.0525,-34.4035 434.9553,-41.1399"/>
<text text-anchor="middle" x="389" y="-57.8" font-family="Times,serif" font-size="14.00" fill="#000000">Class</text>
</g>
</g>
</svg>
